<svg width="20" height="28" viewBox="0 0 20 28" fill="none" xmlns="http://www.w3.org/2000/svg">
<path d="M8.00248 6.75086V8.24989H12.4996V6.75086H13.9986V8.24989H16.9967C17.2066 8.24989 17.3839 8.32234 17.5289 8.46725C17.6738 8.61216 17.7462 8.78954 17.7462 8.99941V20.9917C17.7462 21.2016 17.6738 21.3789 17.5289 21.5239C17.3839 21.6688 17.2066 21.7412 16.9967 21.7412H3.50538C3.29551 21.7412 3.11813 21.6688 2.97322 21.5239C2.82831 21.3789 2.75586 21.2016 2.75586 20.9917V8.99941C2.75586 8.78954 2.82831 8.61216 2.97322 8.46725C3.11813 8.32234 3.29551 8.24989 3.50538 8.24989H6.50345V6.75086H8.00248ZM16.2472 13.4965H4.25489V20.2422H16.2472V13.4965ZM12.5296 14.351L13.5789 15.4153L9.87628 19.1179L7.22299 16.4646L8.2873 15.4153L9.87628 17.0043L12.5296 14.351ZM6.50345 9.74893H4.25489V11.9975H16.2472V9.74893H13.9986V10.4984H12.4996V9.74893H8.00248V10.4984H6.50345V9.74893Z" fill="#3B82F6"/>
</svg>
