<svg width="20" height="28" viewBox="0 0 20 28" fill="none" xmlns="http://www.w3.org/2000/svg">
<path d="M10.2509 21.5078C9.23026 21.5078 8.25463 21.3127 7.32404 20.9224C6.43346 20.5422 5.64045 20.0043 4.94501 19.3089C4.24956 18.6135 3.71171 17.8204 3.33147 16.9299C2.94122 15.9993 2.74609 15.0236 2.74609 14.003C2.74609 12.9823 2.94122 12.0067 3.33147 11.0761C3.71171 10.1855 4.24956 9.39253 4.94501 8.69708C5.64045 8.00163 6.43346 7.46379 7.32404 7.08354C8.25463 6.69329 9.23026 6.49817 10.2509 6.49817C11.2716 6.49817 12.2472 6.69329 13.1778 7.08354C14.0684 7.46379 14.8614 8.00163 15.5568 8.69708C16.2523 9.39253 16.7901 10.1855 17.1704 11.0761C17.5606 12.0067 17.7557 12.9823 17.7557 14.003C17.7557 15.0236 17.5606 15.9993 17.1704 16.9299C16.7901 17.8204 16.2523 18.6135 15.5568 19.3089C14.8614 20.0043 14.0684 20.5422 13.1778 20.9224C12.2472 21.3127 11.2716 21.5078 10.2509 21.5078ZM10.2509 20.0068C11.3416 20.0068 12.3523 19.7317 13.2829 19.1813C14.1834 18.651 14.8989 17.9355 15.4292 17.0349C15.9796 16.1043 16.2548 15.0937 16.2548 14.003C16.2548 12.9123 15.9796 11.9016 15.4292 10.971C14.8989 10.0705 14.1834 9.355 13.2829 8.82466C12.3523 8.27431 11.3416 7.99913 10.2509 7.99913C9.16022 7.99913 8.14957 8.27431 7.21897 8.82466C6.31839 9.355 5.60293 10.0705 5.07259 10.971C4.52224 11.9016 4.24706 12.9123 4.24706 14.003C4.24706 15.0937 4.52224 16.1043 5.07259 17.0349C5.60293 17.9355 6.31839 18.651 7.21897 19.1813C8.14957 19.7317 9.16022 20.0068 10.2509 20.0068ZM11.0014 14.003H14.0033V15.504H9.50043V10.2506H11.0014V14.003Z" fill="#3B82F6"/>
</svg>
