<svg width="40" height="40" viewBox="0 0 40 40" fill="none" xmlns="http://www.w3.org/2000/svg">
<rect x="-0.000976562" width="40" height="40" rx="20" fill="#195AFF"/>
<path d="M22.6396 17.3738L22.6396 23.1738C22.6396 23.3155 22.6879 23.4342 22.7843 23.53C22.8806 23.6259 23.0001 23.6738 23.1426 23.6738C23.2851 23.6738 23.4035 23.6259 23.498 23.53C23.5924 23.4342 23.6396 23.3155 23.6396 23.1738L23.6396 16.1738C23.6396 16.0322 23.5917 15.9134 23.4958 15.8175C23.4 15.7217 23.2813 15.6738 23.1396 15.6738L16.1396 15.6738C15.998 15.6738 15.8792 15.7221 15.7833 15.8185C15.6875 15.9148 15.6396 16.0343 15.6396 16.1768C15.6396 16.3193 15.6875 16.4377 15.7833 16.5322C15.8792 16.6266 15.998 16.6738 16.1396 16.6738L21.9396 16.6738L15.423 23.1905C15.323 23.2905 15.273 23.4072 15.273 23.5405C15.273 23.6738 15.323 23.7905 15.423 23.8905C15.523 23.9905 15.6396 24.0405 15.773 24.0405C15.9063 24.0405 16.023 23.9905 16.123 23.8905L22.6396 17.3738Z" fill="white"/>
</svg>
