<svg width="14" height="14" viewBox="0 0 14 14" fill="none" xmlns="http://www.w3.org/2000/svg">
<path d="M7.00001 0.333332C3.32668 0.333332 0.333344 3.32667 0.333344 7C0.333344 10.6733 3.32668 13.6667 7.00001 13.6667C10.6733 13.6667 13.6667 10.6733 13.6667 7C13.6667 3.32667 10.6733 0.333332 7.00001 0.333332ZM9.90001 9.38C9.80668 9.54 9.64001 9.62667 9.46668 9.62667C9.38001 9.62667 9.29334 9.60667 9.21334 9.55333L7.14668 8.32C6.63334 8.01333 6.25334 7.34 6.25334 6.74667V4.01333C6.25334 3.74 6.48001 3.51333 6.75334 3.51333C7.02668 3.51333 7.25334 3.74 7.25334 4.01333V6.74667C7.25334 6.98667 7.45334 7.34 7.66001 7.46L9.72668 8.69333C9.96668 8.83333 10.0467 9.14 9.90001 9.38Z" fill="white"/>
</svg>
