<svg width="20" height="28" viewBox="0 0 20 28" fill="none" xmlns="http://www.w3.org/2000/svg">
<path d="M10.2509 21.2646C9.23026 21.2646 8.25463 21.0695 7.32404 20.6793C6.43346 20.299 5.64045 19.7612 4.94501 19.0657C4.24956 18.3703 3.71171 17.5773 3.33147 16.6867C2.94122 15.7561 2.74609 14.7805 2.74609 13.7598C2.74609 12.7392 2.94122 11.7635 3.33147 10.8329C3.71171 9.94237 4.24956 9.14936 4.94501 8.45392C5.64045 7.75847 6.43346 7.22062 7.32404 6.84038C8.25463 6.45013 9.23026 6.255 10.2509 6.255C11.2716 6.255 12.2472 6.45013 13.1778 6.84038C14.0684 7.22062 14.8614 7.75847 15.5568 8.45392C16.2523 9.14936 16.7901 9.94237 17.1704 10.8329C17.5606 11.7635 17.7557 12.7392 17.7557 13.7598C17.7557 14.7805 17.5606 15.7561 17.1704 16.6867C16.7901 17.5773 16.2523 18.3703 15.5568 19.0657C14.8614 19.7612 14.0684 20.299 13.1778 20.6793C12.2472 21.0695 11.2716 21.2646 10.2509 21.2646ZM10.2509 19.7637C11.3416 19.7637 12.3523 19.4885 13.2829 18.9382C14.1834 18.4078 14.8989 17.6924 15.4292 16.7918C15.9796 15.8612 16.2548 14.8505 16.2548 13.7598C16.2548 12.6691 15.9796 11.6585 15.4292 10.7279C14.8989 9.8273 14.1834 9.11184 13.2829 8.5815C12.3523 8.03114 11.3416 7.75597 10.2509 7.75597C9.16022 7.75597 8.14957 8.03114 7.21897 8.5815C6.31839 9.11184 5.60293 9.8273 5.07259 10.7279C4.52224 11.6585 4.24706 12.6691 4.24706 13.7598C4.24706 14.8505 4.52224 15.8612 5.07259 16.7918C5.60293 17.6924 6.31839 18.4078 7.21897 18.9382C8.14957 19.4885 9.16022 19.7637 10.2509 19.7637ZM11.0014 13.7598H14.0033V15.2608H9.50043V10.0074H11.0014V13.7598Z" fill="#3B82F6"/>
</svg>
