<svg width="16" height="16" viewBox="0 0 16 16" fill="none" xmlns="http://www.w3.org/2000/svg">
<path d="M7.99967 1.33333C4.32634 1.33333 1.33301 4.32667 1.33301 8C1.33301 11.6733 4.32634 14.6667 7.99967 14.6667C11.673 14.6667 14.6663 11.6733 14.6663 8C14.6663 4.32667 11.673 1.33333 7.99967 1.33333ZM10.8997 10.38C10.8063 10.54 10.6397 10.6267 10.4663 10.6267C10.3797 10.6267 10.293 10.6067 10.213 10.5533L8.14634 9.32C7.63301 9.01333 7.25301 8.34 7.25301 7.74667V5.01333C7.25301 4.74 7.47967 4.51333 7.75301 4.51333C8.02634 4.51333 8.25301 4.74 8.25301 5.01333V7.74667C8.25301 7.98667 8.45301 8.34 8.65967 8.46L10.7263 9.69333C10.9663 9.83333 11.0463 10.14 10.8997 10.38Z" fill="white"/>
</svg>
