<svg width="16" height="16" viewBox="0 0 16 16" fill="none" xmlns="http://www.w3.org/2000/svg">
<path d="M7.98842 11.7236L3.8872 7.62241C3.78703 7.52223 3.66897 7.47238 3.53306 7.47285C3.39713 7.47316 3.27879 7.52372 3.17798 7.62453C3.07726 7.72524 3.02739 7.8429 3.02842 7.97749C3.02937 8.11198 3.07992 8.22934 3.1801 8.32951L8.12985 13.2793C8.23002 13.3794 8.34789 13.4295 8.48352 13.4295C8.61895 13.4295 8.73678 13.3794 8.83695 13.2793L13.7867 8.32951C13.8869 8.22934 13.9367 8.11125 13.9364 7.97525C13.936 7.83942 13.8854 7.72109 13.7846 7.62028C13.6839 7.51957 13.5662 7.46967 13.4317 7.47061C13.2971 7.47165 13.1798 7.52223 13.0796 7.6224L8.97837 11.7236L8.97837 2.50767C8.97837 2.36624 8.93123 2.24839 8.83695 2.15411C8.74267 2.05983 8.62482 2.01269 8.4834 2.01269C8.34198 2.01269 8.22413 2.05983 8.12985 2.15411C8.03557 2.24839 7.98842 2.36624 7.98842 2.50767L7.98842 11.7236Z" fill="white"/>
</svg>
