<svg width="64" height="64" viewBox="0 0 64 64" fill="none" xmlns="http://www.w3.org/2000/svg">
<rect width="64" height="64" rx="32" fill="#E7EDFF"/>
<path d="M32.0035 36.9997C33.5786 36.9997 34.9161 36.4483 36.0161 35.3457C37.1161 34.243 37.6661 32.9041 37.6661 31.329C37.6661 29.7539 37.1148 28.4163 36.0121 27.3163C34.9095 26.2163 33.5706 25.6663 31.9955 25.6663C30.4204 25.6663 29.0828 26.2177 27.9828 27.3203C26.8828 28.423 26.3328 29.7619 26.3328 31.337C26.3328 32.9121 26.8841 34.2497 27.9868 35.3497C29.0895 36.4497 30.4284 36.9997 32.0035 36.9997ZM31.9915 35.0663C30.9524 35.0663 30.0717 34.7025 29.3495 33.975C28.6273 33.2477 28.2661 32.3643 28.2661 31.325C28.2661 30.2859 28.6299 29.4052 29.3575 28.683C30.0848 27.9608 30.9681 27.5997 32.0075 27.5997C33.0466 27.5997 33.9273 27.9635 34.6495 28.691C35.3717 29.4183 35.7328 30.3017 35.7328 31.341C35.7328 32.3801 35.3691 33.2608 34.6415 33.983C33.9141 34.7052 33.0308 35.0663 31.9915 35.0663ZM31.9995 41.333C28.9995 41.333 26.2717 40.4885 23.8161 38.7997C21.3606 37.1108 19.3884 34.9552 17.8995 32.333C17.8106 32.1745 17.7439 32.0118 17.6995 31.8447C17.655 31.6775 17.6328 31.5061 17.6328 31.3303C17.6328 31.1543 17.655 30.9835 17.6995 30.8177C17.7439 30.6517 17.8106 30.4901 17.8995 30.333C19.3884 27.7108 21.3606 25.5552 23.8161 23.8663C26.2717 22.1775 28.9995 21.333 31.9995 21.333C34.9995 21.333 37.7273 22.1775 40.1828 23.8663C42.6384 25.5552 44.6106 27.7108 46.0995 30.333C46.1884 30.4912 46.2551 30.654 46.2995 30.8213C46.3439 30.9885 46.3661 31.1599 46.3661 31.3357C46.3661 31.5117 46.3439 31.6825 46.2995 31.8483C46.2551 32.0143 46.1884 32.1759 46.0995 32.333C44.6106 34.9552 42.6384 37.1108 40.1828 38.7997C37.7273 40.4885 34.9995 41.333 31.9995 41.333Z" fill="#195AFF"/>
</svg>
