<svg width="24" height="24" viewBox="0 0 24 24" fill="none" xmlns="http://www.w3.org/2000/svg">
<g clip-path="url(#clip0_159_2149)">
<path d="M12.0183 24C18.6558 24 24.0365 18.6274 24.0365 12C24.0365 5.37258 18.6558 0 12.0183 0C5.38077 0 0 5.37258 0 12C0 18.6274 5.38077 24 12.0183 24Z" fill="#E0E0E0"/>
<path d="M12.0182 23.6353C18.5549 23.6353 23.8539 18.3443 23.8539 11.8176C23.8539 5.29093 18.5549 0 12.0182 0C5.48161 0 0.182617 5.29093 0.182617 11.8176C0.182617 18.3443 5.48161 23.6353 12.0182 23.6353Z" fill="white"/>
<mask id="mask0_159_2149" style="mask-type:luminance" maskUnits="userSpaceOnUse" x="4" y="3" width="16" height="17">
<path d="M19.6892 10.4325H12.2006V13.5328H16.5111C16.1093 15.5024 14.4289 16.6331 12.2006 16.6331C9.57046 16.6331 7.45173 14.5176 7.45173 11.8915C7.45173 9.26536 9.57046 7.14986 12.2006 7.14986C13.333 7.14986 14.3558 7.55109 15.1595 8.20762L17.4974 5.87327C16.0727 4.63314 14.2463 3.86719 12.2006 3.86719C7.74397 3.86719 4.16406 7.44166 4.16406 11.8915C4.16406 16.3414 7.74397 19.9158 12.2006 19.9158C16.2189 19.9158 19.8718 16.9979 19.8718 11.8915C19.8718 11.4173 19.7988 10.9067 19.6892 10.4325Z" fill="white"/>
</mask>
<g mask="url(#mask0_159_2149)">
<path d="M3.43359 16.6337V7.15039L9.64364 11.892L3.43359 16.6337Z" fill="#FBBC05"/>
</g>
<mask id="mask1_159_2149" style="mask-type:luminance" maskUnits="userSpaceOnUse" x="4" y="3" width="16" height="17">
<path d="M19.6892 10.4325H12.2006V13.5328H16.5111C16.1093 15.5024 14.4289 16.6331 12.2006 16.6331C9.57046 16.6331 7.45173 14.5176 7.45173 11.8915C7.45173 9.26536 9.57046 7.14986 12.2006 7.14986C13.333 7.14986 14.3558 7.55109 15.1595 8.20762L17.4974 5.87327C16.0727 4.63314 14.2463 3.86719 12.2006 3.86719C7.74397 3.86719 4.16406 7.44166 4.16406 11.8915C4.16406 16.3414 7.74397 19.9158 12.2006 19.9158C16.2189 19.9158 19.8718 16.9979 19.8718 11.8915C19.8718 11.4173 19.7988 10.9067 19.6892 10.4325Z" fill="white"/>
</mask>
<g mask="url(#mask1_159_2149)">
<path d="M3.43359 7.14888L9.64364 11.8905L12.2007 9.6656L20.9678 8.2431V3.13672H3.43359V7.14888Z" fill="#EA4335"/>
</g>
<mask id="mask2_159_2149" style="mask-type:luminance" maskUnits="userSpaceOnUse" x="4" y="3" width="16" height="17">
<path d="M19.6892 10.4325H12.2006V13.5328H16.5111C16.1093 15.5024 14.4289 16.6331 12.2006 16.6331C9.57046 16.6331 7.45173 14.5176 7.45173 11.8915C7.45173 9.26536 9.57046 7.14986 12.2006 7.14986C13.333 7.14986 14.3558 7.55109 15.1595 8.20762L17.4974 5.87327C16.0727 4.63314 14.2463 3.86719 12.2006 3.86719C7.74397 3.86719 4.16406 7.44166 4.16406 11.8915C4.16406 16.3414 7.74397 19.9158 12.2006 19.9158C16.2189 19.9158 19.8718 16.9979 19.8718 11.8915C19.8718 11.4173 19.7988 10.9067 19.6892 10.4325Z" fill="white"/>
</mask>
<g mask="url(#mask2_159_2149)">
<path d="M3.43359 16.6322L14.3925 8.2431L17.2783 8.60784L20.9678 3.13672V20.6443H3.43359V16.6322Z" fill="#34A853"/>
</g>
<mask id="mask3_159_2149" style="mask-type:luminance" maskUnits="userSpaceOnUse" x="4" y="3" width="16" height="17">
<path d="M19.6892 10.4325H12.2006V13.5328H16.5111C16.1093 15.5024 14.4289 16.6331 12.2006 16.6331C9.57046 16.6331 7.45173 14.5176 7.45173 11.8915C7.45173 9.26536 9.57046 7.14986 12.2006 7.14986C13.333 7.14986 14.3558 7.55109 15.1595 8.20762L17.4974 5.87327C16.0727 4.63314 14.2463 3.86719 12.2006 3.86719C7.74397 3.86719 4.16406 7.44166 4.16406 11.8915C4.16406 16.3414 7.74397 19.9158 12.2006 19.9158C16.2189 19.9158 19.8718 16.9979 19.8718 11.8915C19.8718 11.4173 19.7988 10.9067 19.6892 10.4325Z" fill="white"/>
</mask>
<g mask="url(#mask3_159_2149)">
<path d="M20.968 20.6458L9.6438 11.892L8.18262 10.7978L20.968 7.15039V20.6458Z" fill="#4285F4"/>
</g>
</g>
<defs>
<clipPath id="clip0_159_2149">
<rect width="24" height="24" fill="white"/>
</clipPath>
</defs>
</svg>
