<svg width="60" height="60" viewBox="0 0 60 60" fill="none" xmlns="http://www.w3.org/2000/svg">
<g clip-path="url(#clip0_204_4501)">
<path d="M42.5 8.34973C46.2707 10.5269 49.4074 13.651 51.5995 17.413C53.7917 21.1749 54.9634 25.4442 54.9986 29.7981C55.0337 34.152 53.9312 38.4396 51.8 42.2365C49.6689 46.0333 46.5831 49.2078 42.8481 51.4455C39.1131 53.6833 34.8584 54.9068 30.5052 54.9949C26.1521 55.083 21.8514 54.0327 18.0289 51.9478C14.2064 49.863 10.9947 46.816 8.71167 43.1085C6.42866 39.401 5.15352 35.1615 5.0125 30.8097L5 29.9997L5.0125 29.1897C5.15251 24.8722 6.40887 20.6646 8.6591 16.9772C10.9093 13.2898 14.0766 10.2484 17.8522 8.14944C21.6278 6.05051 25.8829 4.96572 30.2025 5.00083C34.5222 5.03593 38.759 6.18973 42.5 8.34973ZM39.2675 23.2322C38.837 22.8018 38.2643 22.5432 37.6567 22.505C37.0491 22.4668 36.4485 22.6516 35.9675 23.0247L35.7325 23.2322L27.5 31.4622L24.2675 28.2322L24.0325 28.0247C23.5515 27.6519 22.9509 27.4673 22.3435 27.5056C21.7361 27.5439 21.1635 27.8025 20.7332 28.2329C20.3028 28.6632 20.0442 29.2358 20.0059 29.8432C19.9676 30.4507 20.1521 31.0512 20.525 31.5322L20.7325 31.7672L25.7325 36.7672L25.9675 36.9747C26.4059 37.3149 26.9451 37.4995 27.5 37.4995C28.0549 37.4995 28.5941 37.3149 29.0325 36.9747L29.2675 36.7672L39.2675 26.7672L39.475 26.5322C39.8481 26.0512 40.0329 25.4506 39.9947 24.843C39.9565 24.2355 39.6979 23.6627 39.2675 23.2322Z" fill="#34A853"/>
</g>
<defs>
<clipPath id="clip0_204_4501">
<rect width="60" height="60" fill="white"/>
</clipPath>
</defs>
</svg>
