<svg width="55" height="55" viewBox="0 0 55 55" fill="none" xmlns="http://www.w3.org/2000/svg">
<rect x="0.333008" width="54.0116" height="54.0347" rx="27.0058" fill="#EFF6FF"/>
<path d="M32.2576 17.9058C33.2416 17.9058 34.1468 18.1616 34.9733 18.6733C35.7998 19.1849 36.4492 19.8802 36.9214 20.7592C37.42 21.6775 37.6692 22.6943 37.6692 23.8094C37.6692 25.3312 37.315 26.7939 36.6066 28.1977C36.0031 29.3915 35.1438 30.5394 34.0287 31.6414C33.1628 32.5072 32.133 33.3534 30.9392 34.1799C30.2701 34.6391 29.3911 35.1901 28.3023 35.8329L27.83 36.1084L27.3577 35.8329C26.2164 35.1638 25.298 34.5866 24.6027 34.1012C23.3564 33.2353 22.2872 32.3433 21.3951 31.4249C20.2669 30.2442 19.4142 29.0242 18.8369 27.7647L17.0068 27.7451V25.7772L18.2072 25.7969C18.0629 25.1409 17.9908 24.4784 17.9908 23.8094C17.9908 22.6943 18.24 21.6775 18.7385 20.7592C19.2108 19.8802 19.8602 19.1849 20.6867 18.6733C21.5132 18.1616 22.4184 17.9058 23.4023 17.9058C24.2551 17.9058 25.1012 18.1157 25.9409 18.5355C26.6493 18.8766 27.279 19.3227 27.83 19.8737C28.381 19.3227 29.0107 18.8766 29.7191 18.5355C30.5587 18.1157 31.4049 17.9058 32.2576 17.9058ZM32.2576 19.8737C31.7329 19.8737 31.2016 20.0016 30.6637 20.2574C30.1258 20.5132 29.647 20.851 29.2272 21.2708L27.83 22.668L26.4328 21.2708C26.013 20.851 25.5342 20.5132 24.9963 20.2574C24.4584 20.0016 23.9271 19.8737 23.4023 19.8737C22.7726 19.8737 22.1954 20.0442 21.6706 20.3853C21.1459 20.7264 20.7293 21.1954 20.421 21.7923C20.1128 22.3892 19.9586 23.0681 19.9586 23.829C19.9586 24.485 20.0439 25.1409 20.2144 25.7969L22.3594 25.7772L24.3863 22.3925L27.338 27.3121L28.2629 25.7772H32.7496V27.7451H29.3649L27.338 31.1494L24.3863 26.2298L23.4614 27.7451L21.0409 27.7647C21.8018 29.0766 22.9628 30.3557 24.524 31.602C25.2193 32.153 26.013 32.7106 26.9051 33.2747C27.1806 33.4452 27.4889 33.6289 27.83 33.8257C28.1711 33.6289 28.4794 33.4452 28.7549 33.2747C29.647 32.7106 30.4407 32.153 31.136 31.602C32.6315 30.4082 33.7598 29.1816 34.5207 27.9222C35.3078 26.6103 35.7014 25.2459 35.7014 23.829C35.7014 23.0681 35.5505 22.386 35.2488 21.7825C34.947 21.179 34.5338 20.7133 34.009 20.3853C33.4843 20.0573 32.9005 19.8868 32.2576 19.8737Z" fill="#3B82F6"/>
</svg>
