<svg width="16" height="16" viewBox="0 0 16 16" fill="none" xmlns="http://www.w3.org/2000/svg">
<path d="M11.333 2.33333H4.66634C2.66634 2.33333 1.33301 3.33333 1.33301 5.66667V10.3333C1.33301 12.6667 2.66634 13.6667 4.66634 13.6667H11.333C13.333 13.6667 14.6663 12.6667 14.6663 10.3333V5.66667C14.6663 3.33333 13.333 2.33333 11.333 2.33333ZM11.6463 6.39333L9.55968 8.06C9.11967 8.41333 8.55967 8.58667 7.99967 8.58667C7.43967 8.58667 6.87301 8.41333 6.43967 8.06L4.35301 6.39333C4.13967 6.22 4.10634 5.9 4.27301 5.68667C4.44634 5.47333 4.75967 5.43333 4.97301 5.60667L7.05967 7.27333C7.56634 7.68 8.42634 7.68 8.93301 7.27333L11.0197 5.60667C11.233 5.43333 11.553 5.46667 11.7197 5.68667C11.893 5.9 11.8597 6.22 11.6463 6.39333Z" fill="white"/>
</svg>
