<svg width="54" height="54" viewBox="0 0 54 54" fill="none" xmlns="http://www.w3.org/2000/svg">
<rect width="54" height="54" rx="27" fill="#EFF6FF"/>
<path d="M28.1805 17.7914L31.3685 23.321C31.5128 23.5572 31.5488 23.8064 31.4767 24.0688C31.4045 24.3312 31.2504 24.528 31.0142 24.6592L29.7351 25.4069L30.7191 27.119L29.007 28.1029L28.0231 26.3909L26.7637 27.119C26.5276 27.2633 26.2783 27.2994 26.0159 27.2272C25.7535 27.155 25.5502 27.0009 25.4059 26.7648L23.5955 23.6359C22.9264 23.8458 22.3295 24.1803 21.8047 24.6395C21.28 25.0986 20.8667 25.6496 20.565 26.2925C20.2632 26.9353 20.1124 27.6175 20.1124 28.339C20.1124 28.9425 20.2173 29.5263 20.4272 30.0904C21.2275 29.5788 22.1065 29.323 23.0641 29.323C23.8775 29.323 24.6351 29.5099 25.337 29.8838C26.0389 30.2577 26.6194 30.766 27.0786 31.4089L34.6351 27.0403L35.619 28.7326L27.8657 33.2193C27.9444 33.5604 27.9838 33.9015 27.9838 34.2426C27.9838 34.5837 27.951 34.9116 27.8854 35.2265H35.8551V37.1943H19.1285C18.8136 36.7745 18.5709 36.3154 18.4004 35.8168C18.2298 35.3183 18.1445 34.7936 18.1445 34.2426C18.1445 33.2718 18.4135 32.3797 18.9513 31.5663C18.4135 30.5561 18.1445 29.4804 18.1445 28.339C18.1445 27.3813 18.3348 26.463 18.7152 25.584C19.0957 24.7313 19.6204 23.9868 20.2895 23.3505C20.9586 22.7143 21.726 22.2321 22.5919 21.9042L22.218 21.2351C22.0343 20.9202 21.9425 20.589 21.9425 20.2413C21.9425 19.8937 22.031 19.569 22.2081 19.2673C22.3852 18.9655 22.6247 18.7228 22.9264 18.5392L25.4846 17.0633C25.7995 16.8796 26.1307 16.7911 26.4784 16.7976C26.826 16.8042 27.1507 16.8927 27.4524 17.0633C27.7542 17.2338 27.9969 17.4765 28.1805 17.7914ZM23.0641 31.2908C22.5263 31.2908 22.031 31.4253 21.5784 31.6942C21.1258 31.9631 20.7683 32.3239 20.5059 32.7765C20.2436 33.2291 20.1124 33.7178 20.1124 34.2426C20.1124 34.5837 20.1714 34.9116 20.2895 35.2265H25.8388C25.9569 34.9116 26.0159 34.5837 26.0159 34.2426C26.0159 33.7178 25.8847 33.2291 25.6223 32.7765C25.36 32.3239 25.0025 31.9631 24.5499 31.6942C24.0973 31.4253 23.602 31.2908 23.0641 31.2908ZM26.4685 18.7753L23.9103 20.2512L26.6259 24.9347L29.1841 23.4588L26.4685 18.7753Z" fill="#3B82F6"/>
</svg>
