<svg width="19" height="27" viewBox="0 0 19 27" fill="none" xmlns="http://www.w3.org/2000/svg">
<path d="M8.35151 14.9842V16.4852C7.54099 16.4852 6.78551 16.6903 6.08506 17.1006C5.40462 17.5008 4.86427 18.0362 4.46402 18.7066C4.05375 19.407 3.84862 20.1675 3.84862 20.9881H2.34766C2.34766 19.8974 2.62283 18.8867 3.17319 17.9561C3.70353 17.0455 4.41899 16.3251 5.31957 15.7947C6.25016 15.2544 7.26081 14.9842 8.35151 14.9842ZM8.35151 14.2337C7.54099 14.2337 6.78551 14.0286 6.08506 13.6183C5.40462 13.2181 4.86427 12.6777 4.46402 11.9973C4.05375 11.2968 3.84862 10.5388 3.84862 9.72331C3.84862 8.90779 4.05375 8.1498 4.46402 7.44935C4.86427 6.77892 5.40462 6.24358 6.08506 5.84332C6.78551 5.43306 7.5435 5.22792 8.35902 5.22792C9.17454 5.22792 9.93253 5.43306 10.633 5.84332C11.3034 6.24358 11.8388 6.77892 12.239 7.44935C12.6493 8.1498 12.8544 8.90779 12.8544 9.72331C12.8544 10.5388 12.6493 11.2968 12.239 11.9973C11.8388 12.6777 11.3034 13.2181 10.633 13.6183C9.93253 14.0286 9.17204 14.2337 8.35151 14.2337ZM8.35151 12.7327C8.89186 12.7327 9.39218 12.5977 9.85248 12.3275C10.3128 12.0573 10.678 11.6921 10.9482 11.2318C11.2184 10.7715 11.3534 10.2712 11.3534 9.73082C11.3534 9.19047 11.2184 8.69015 10.9482 8.22985C10.678 7.76956 10.3128 7.40432 9.85248 7.13415C9.39218 6.86398 8.89186 6.72889 8.35151 6.72889C7.81117 6.72889 7.31085 6.86398 6.85055 7.13415C6.39025 7.40432 6.02502 7.76956 5.75485 8.22985C5.48467 8.69015 5.34959 9.19047 5.34959 9.73082C5.34959 10.2712 5.48467 10.7715 5.75485 11.2318C6.02502 11.6921 6.39025 12.0573 6.85055 12.3275C7.31085 12.5977 7.81117 12.7327 8.35151 12.7327ZM12.8544 20.6128L10.648 21.7686L11.0683 19.307L9.28211 17.5809L11.7587 17.2206L12.8544 14.9842L13.9651 17.2206L16.4267 17.5809L14.6406 19.307L15.0608 21.7686L12.8544 20.6128Z" fill="#3B82F6"/>
</svg>
