<svg width="17" height="16" viewBox="0 0 17 16" fill="none" xmlns="http://www.w3.org/2000/svg">
<g clip-path="url(#clip0_82_2680)">
<path d="M10.5336 3.33366C11.1848 3.4607 11.7832 3.77916 12.2523 4.24828C12.7214 4.7174 13.0399 5.31584 13.1669 5.96699M10.5336 0.666992C11.8865 0.817283 13.148 1.42311 14.1111 2.385C15.0742 3.34689 15.6816 4.60767 15.8336 5.96033M15.1669 11.2803V13.2803C15.1677 13.466 15.1297 13.6498 15.0553 13.8199C14.9809 13.99 14.8718 14.1427 14.735 14.2682C14.5982 14.3938 14.4367 14.4893 14.2608 14.5488C14.0849 14.6083 13.8985 14.6304 13.7136 14.6137C11.6622 14.3908 9.69161 13.6898 7.96028 12.567C6.3495 11.5434 4.98384 10.1778 3.96028 8.56699C2.8336 6.82779 2.13244 4.84766 1.91361 2.78699C1.89695 2.60264 1.91886 2.41683 1.97795 2.24141C2.03703 2.06598 2.13199 1.90478 2.25679 1.76807C2.38159 1.63136 2.53348 1.52213 2.70281 1.44734C2.87213 1.37255 3.05517 1.33383 3.24028 1.33366H5.24028C5.56382 1.33047 5.87748 1.44504 6.12279 1.65601C6.3681 1.86698 6.52833 2.15996 6.57361 2.48033C6.65803 3.12037 6.81458 3.74881 7.04028 4.35366C7.12998 4.59227 7.14939 4.8516 7.09622 5.10091C7.04305 5.35022 6.91952 5.57907 6.74028 5.76033L5.89361 6.60699C6.84265 8.27602 8.22458 9.65795 9.89361 10.607L10.7403 9.76033C10.9215 9.58108 11.1504 9.45756 11.3997 9.40439C11.649 9.35122 11.9083 9.37063 12.1469 9.46032C12.7518 9.68603 13.3802 9.84258 14.0203 9.92699C14.3441 9.97268 14.6399 10.1358 14.8513 10.3853C15.0627 10.6348 15.1751 10.9534 15.1669 11.2803Z" stroke="white" stroke-width="1.2" stroke-linecap="round" stroke-linejoin="round"/>
</g>
<defs>
<clipPath id="clip0_82_2680">
<rect width="16" height="16" fill="white" transform="translate(0.5)"/>
</clipPath>
</defs>
</svg>
