<svg width="16" height="16" viewBox="0 0 16 16" fill="none" xmlns="http://www.w3.org/2000/svg">
<path d="M14.6459 12.2203C14.6459 12.4603 14.5925 12.707 14.4792 12.947C14.3659 13.187 14.2192 13.4137 14.0259 13.627C13.6992 13.987 13.3392 14.247 12.9325 14.4137C12.5325 14.5803 12.0992 14.667 11.6325 14.667C10.9525 14.667 10.2259 14.507 9.45919 14.1803C8.69252 13.8537 7.92585 13.4137 7.16585 12.8603C6.39919 12.3003 5.67252 11.6803 4.97919 10.9937C4.29252 10.3003 3.67252 9.57366 3.11919 8.81366C2.57252 8.05366 2.13252 7.29366 1.81252 6.54033C1.49252 5.78033 1.33252 5.05366 1.33252 4.36032C1.33252 3.90699 1.41252 3.47366 1.57252 3.07366C1.73252 2.66699 1.98585 2.29366 2.33919 1.96032C2.76585 1.54032 3.23252 1.33366 3.72585 1.33366C3.91252 1.33366 4.09919 1.37366 4.26585 1.45366C4.43919 1.53366 4.59252 1.65366 4.71252 1.82699L6.25919 4.00699C6.37919 4.17366 6.46585 4.32699 6.52585 4.47366C6.58585 4.61366 6.61919 4.75366 6.61919 4.88033C6.61919 5.04033 6.57252 5.20032 6.47919 5.35366C6.39252 5.50699 6.26585 5.66699 6.10585 5.82699L5.59919 6.35366C5.52585 6.42699 5.49252 6.51366 5.49252 6.62033C5.49252 6.67366 5.49919 6.72032 5.51252 6.77366C5.53252 6.82699 5.55252 6.86699 5.56585 6.90699C5.68585 7.12699 5.89252 7.41366 6.18585 7.76033C6.48585 8.10699 6.80585 8.46033 7.15252 8.81366C7.51252 9.16699 7.85919 9.49366 8.21252 9.79366C8.55919 10.087 8.84585 10.287 9.07252 10.407C9.10585 10.4203 9.14585 10.4403 9.19252 10.4603C9.24585 10.4803 9.29919 10.487 9.35919 10.487C9.47252 10.487 9.55919 10.447 9.63252 10.3737L10.1392 9.87366C10.3059 9.70699 10.4659 9.58033 10.6192 9.50033C10.7725 9.40699 10.9259 9.36032 11.0925 9.36032C11.2192 9.36032 11.3525 9.38699 11.4992 9.44699C11.6459 9.50699 11.7992 9.59366 11.9659 9.70699L14.1725 11.2737C14.3459 11.3937 14.4659 11.5337 14.5392 11.7003C14.6059 11.867 14.6459 12.0337 14.6459 12.2203Z" fill="white"/>
</svg>
