<svg width="17" height="16" viewBox="0 0 17 16" fill="none" xmlns="http://www.w3.org/2000/svg">
<path d="M9.83348 1.33301H4.50014C4.14652 1.33301 3.80738 1.47348 3.55733 1.72353C3.30728 1.97358 3.16681 2.31272 3.16681 2.66634V13.333C3.16681 13.6866 3.30728 14.0258 3.55733 14.2758C3.80738 14.5259 4.14652 14.6663 4.50014 14.6663H12.5001C12.8538 14.6663 13.1929 14.5259 13.443 14.2758C13.693 14.0258 13.8335 13.6866 13.8335 13.333V5.33301M9.83348 1.33301L13.8335 5.33301M9.83348 1.33301L9.83348 5.33301H13.8335M11.1668 8.66634H5.83348M11.1668 11.333H5.83348M7.16681 5.99967H5.83348" stroke="#242424" stroke-width="1.2" stroke-linecap="round" stroke-linejoin="round"/>
</svg>
