<svg width="16" height="16" viewBox="0 0 16 16" fill="none" xmlns="http://www.w3.org/2000/svg">
<path d="M10.8998 5.03301V10.833C10.8998 10.9747 10.948 11.0934 11.0444 11.1892C11.1408 11.2851 11.2602 11.333 11.4028 11.333C11.5452 11.333 11.6637 11.2851 11.7581 11.1892C11.8525 11.0934 11.8998 10.9747 11.8998 10.833V3.83301C11.8998 3.69134 11.8518 3.57257 11.7559 3.47667C11.6602 3.38091 11.5414 3.33301 11.3998 3.33301H4.39978C4.25811 3.33301 4.13935 3.38124 4.04345 3.47767C3.94768 3.57401 3.89978 3.69344 3.89978 3.83601C3.89978 3.97844 3.94768 4.09691 4.04345 4.19134C4.13935 4.28577 4.25811 4.33301 4.39978 4.33301H10.1998L3.68311 10.8497C3.58311 10.9497 3.53311 11.0663 3.53311 11.1997C3.53311 11.333 3.58311 11.4497 3.68311 11.5497C3.78311 11.6497 3.89978 11.6997 4.03311 11.6997C4.16645 11.6997 4.28311 11.6497 4.38311 11.5497L10.8998 5.03301Z" fill="white"/>
</svg>
