<svg width="16" height="16" viewBox="0 0 16 16" fill="none" xmlns="http://www.w3.org/2000/svg">
<path d="M11.7236 7.9894L7.6224 3.88818C7.52223 3.78801 7.47238 3.66994 7.47285 3.53404C7.47316 3.39811 7.52372 3.27976 7.62453 3.17895C7.72524 3.07824 7.8429 3.02836 7.97749 3.0294C8.11198 3.03034 8.22934 3.0809 8.32951 3.18107L13.2793 8.13082C13.3794 8.231 13.4295 8.34887 13.4295 8.48449C13.4295 8.61993 13.3794 8.73775 13.2793 8.83793L8.32951 13.7877C8.22934 13.8878 8.11125 13.9377 7.97525 13.9373C7.83942 13.9369 7.72109 13.8864 7.62028 13.7856C7.51957 13.6848 7.46967 13.5672 7.47061 13.4327C7.47165 13.2981 7.52223 13.1807 7.6224 13.0806L11.7236 8.97935L2.50767 8.97935C2.36624 8.97935 2.24839 8.93221 2.15411 8.83793C2.05983 8.74365 2.01269 8.6258 2.01269 8.48438C2.01269 8.34295 2.05983 8.2251 2.15411 8.13082C2.24839 8.03654 2.36624 7.9894 2.50767 7.9894L11.7236 7.9894Z" fill="white"/>
</svg>
