<svg width="65" height="64" viewBox="0 0 65 64" fill="none" xmlns="http://www.w3.org/2000/svg">
<rect x="0.5" width="64" height="64" rx="32" fill="#E7EDFF"/>
<path d="M23.2 44.7998C22.8667 44.9331 22.5556 44.8998 22.2667 44.6998C21.9778 44.4998 21.8334 44.222 21.8334 43.8665V37.4331C21.8334 36.9887 21.9389 36.5665 22.15 36.1665C22.3612 35.7665 22.6556 35.4443 23.0334 35.1998L25.2 33.7331C25.3112 35.5776 25.5334 37.2053 25.8667 38.6165C26.2 40.0276 26.7222 41.5331 27.4334 43.1331L23.2 44.7998ZM29.3 42.6665C29.1 42.6665 28.9167 42.5943 28.75 42.4498C28.5834 42.3053 28.4445 42.1109 28.3334 41.8665C27.7112 40.4887 27.25 39.0665 26.95 37.5998C26.65 36.1331 26.5 34.5665 26.5 32.8998C26.5 30.3443 26.9667 27.9109 27.9 25.5998C28.8334 23.2887 30.1 21.4442 31.7 20.0665C31.8112 19.9776 31.9334 19.9109 32.0667 19.8665C32.2 19.822 32.3445 19.7998 32.5 19.7998C32.6556 19.7998 32.8 19.822 32.9334 19.8665C33.0667 19.9109 33.1889 19.9776 33.3 20.0665C34.9 21.4442 36.1667 23.2887 37.1 25.5998C38.0334 27.9109 38.5 30.3443 38.5 32.8998C38.5 34.5887 38.35 36.1609 38.05 37.6165C37.75 39.072 37.2889 40.4887 36.6667 41.8665C36.5556 42.1109 36.4167 42.3053 36.25 42.4498C36.0834 42.5943 35.9 42.6665 35.7 42.6665H29.3ZM32.5 32.9998C33.1445 32.9998 33.6945 32.772 34.15 32.3165C34.6056 31.8609 34.8334 31.3109 34.8334 30.6665C34.8334 30.022 34.6056 29.472 34.15 29.0165C33.6945 28.5609 33.1445 28.3331 32.5 28.3331C31.8556 28.3331 31.3056 28.5609 30.85 29.0165C30.3945 29.472 30.1667 30.022 30.1667 30.6665C30.1667 31.3109 30.3945 31.8609 30.85 32.3165C31.3056 32.772 31.8556 32.9998 32.5 32.9998ZM41.8 44.7998L37.5667 43.1331C38.2778 41.5331 38.8 40.0276 39.1334 38.6165C39.4667 37.2053 39.6889 35.5776 39.8 33.7331L41.9667 35.1998C42.3445 35.4443 42.6389 35.7665 42.85 36.1665C43.0612 36.5665 43.1667 36.9887 43.1667 37.4331V43.8665C43.1667 44.222 43.0222 44.4998 42.7334 44.6998C42.4445 44.8998 42.1334 44.9331 41.8 44.7998Z" fill="#195AFF"/>
</svg>
