<svg width="16" height="16" viewBox="0 0 16 16" fill="none" xmlns="http://www.w3.org/2000/svg">
<path d="M8.96775 3.70866L13.0797 7.79911C13.1802 7.89902 13.2983 7.94856 13.4343 7.94773C13.5702 7.94707 13.6884 7.8962 13.7889 7.79513C13.8894 7.69415 13.939 7.57636 13.9376 7.44177C13.9363 7.30728 13.8854 7.19006 13.785 7.09015L8.82225 2.15341C8.72182 2.0535 8.60381 2.00372 8.46819 2.00407C8.33275 2.00443 8.21506 2.05483 8.11515 2.15526L3.1784 7.11798C3.07849 7.21841 3.02893 7.33663 3.02966 7.47263C3.03042 7.60846 3.08131 7.72665 3.18238 7.8272C3.28336 7.92765 3.40113 7.97724 3.53562 7.97594C3.67021 7.97455 3.78745 7.92366 3.88736 7.82323L7.97781 3.71126L8.00198 12.9272C8.00236 13.0686 8.0498 13.1863 8.14433 13.2804C8.23886 13.3744 8.35684 13.4212 8.49826 13.4209C8.63968 13.4205 8.7574 13.373 8.85144 13.2785C8.94547 13.184 8.9923 13.066 8.99193 12.9246L8.96775 3.70866Z" fill="white"/>
</svg>
