<svg width="200" height="120" viewBox="0 0 200 120" fill="none" xmlns="http://www.w3.org/2000/svg">
<rect width="200" height="120" rx="16" fill="#EBF0FF"/>
<g clip-path="url(#clip0_270_2343)">
<rect width="88" height="48" transform="translate(56 36)" fill="#E4FFF6"/>
<path d="M58.5694 83.3984H56.58C56.5585 83.3984 56.5477 83.3873 56.5477 83.3672V79.7022C56.5462 79.6859 56.5392 79.6706 56.528 79.6591C56.5167 79.6475 56.5019 79.6403 56.4861 79.6387H56.0616C56.0456 79.6397 56.0304 79.6467 56.0191 79.6584C56.0077 79.6701 56.0009 79.6857 56 79.7022V83.8676C56.0015 83.8839 56.0085 83.8992 56.0197 83.9107C56.031 83.9223 56.0458 83.9295 56.0616 83.931H58.5694C58.5854 83.9299 58.6004 83.9228 58.6117 83.9112C58.6231 83.8995 58.6299 83.884 58.6311 83.8676V83.4649C58.6306 83.4479 58.6241 83.4317 58.6127 83.4194C58.6013 83.4071 58.5859 83.3997 58.5694 83.3984Z" fill="white"/>
<path d="M59.907 79.6407H59.4835C59.4754 79.6404 59.4672 79.6418 59.4596 79.6449C59.452 79.648 59.4451 79.6527 59.4393 79.6586C59.4336 79.6646 59.429 79.6717 59.426 79.6795C59.423 79.6873 59.4216 79.6957 59.4219 79.7041V83.8695C59.4218 83.8779 59.4233 83.8862 59.4263 83.894C59.4294 83.9017 59.4339 83.9088 59.4397 83.9147C59.4454 83.9206 59.4523 83.9253 59.4598 83.9284C59.4673 83.9315 59.4754 83.9331 59.4835 83.933H59.907C59.923 83.9318 59.938 83.9247 59.9493 83.9131C59.9607 83.9014 59.9675 83.886 59.9687 83.8695V79.7041C59.9675 79.6877 59.9607 79.6722 59.9493 79.6605C59.938 79.6489 59.923 79.6418 59.907 79.6407Z" fill="white"/>
<path d="M63.6837 79.6407H61.1788C61.1707 79.6404 61.1625 79.6418 61.1549 79.6449C61.1473 79.648 61.1404 79.6527 61.1347 79.6586C61.1289 79.6646 61.1244 79.6717 61.1214 79.6795C61.1184 79.6873 61.117 79.6957 61.1172 79.7041V83.8695C61.1171 83.8779 61.1186 83.8862 61.1216 83.894C61.1247 83.9017 61.1292 83.9088 61.135 83.9147C61.1407 83.9206 61.1476 83.9253 61.1551 83.9284C61.1626 83.9315 61.1707 83.9331 61.1788 83.933H61.6023C61.6173 83.9314 61.6311 83.9239 61.6408 83.9121C61.6505 83.9002 61.6553 83.885 61.6542 83.8695V82.1125C61.6536 82.1068 61.6542 82.101 61.656 82.0956C61.6579 82.0902 61.6609 82.0853 61.6648 82.0812C61.6688 82.0772 61.6736 82.0741 61.6788 82.0722C61.6841 82.0703 61.6897 82.0696 61.6953 82.0702H63.3844C63.3926 82.0705 63.4007 82.0691 63.4083 82.066C63.4159 82.0629 63.4228 82.0582 63.4286 82.0523C63.4344 82.0463 63.4389 82.0392 63.4419 82.0314C63.4449 82.0236 63.4463 82.0152 63.446 82.0068V81.6121C63.4462 81.6038 63.4447 81.5954 63.4416 81.5877C63.4386 81.5799 63.434 81.5729 63.4283 81.567C63.4225 81.561 63.4157 81.5564 63.4082 81.5532C63.4006 81.5501 63.3926 81.5485 63.3844 81.5487H61.6943C61.6887 81.5493 61.6831 81.5487 61.6779 81.5468C61.6726 81.5449 61.6678 81.5418 61.6639 81.5377C61.6599 81.5337 61.6569 81.5287 61.6551 81.5233C61.6532 81.5179 61.6526 81.5121 61.6532 81.5064V80.2065C61.6532 80.1844 61.6747 80.1753 61.6943 80.1753H63.6827C63.6902 80.1747 63.6975 80.1725 63.7041 80.169C63.7108 80.1655 63.7167 80.1606 63.7215 80.1547C63.7263 80.1488 63.7299 80.142 63.7322 80.1346C63.7344 80.1273 63.7352 80.1196 63.7346 80.1119V79.7091C63.736 79.7012 63.7357 79.693 63.7339 79.6851C63.732 79.6772 63.7286 79.6698 63.7238 79.6634C63.719 79.6569 63.713 79.6516 63.7061 79.6477C63.6992 79.6438 63.6916 79.6414 63.6837 79.6407Z" fill="white"/>
<path d="M67.2101 79.6406H64.7023C64.6862 79.6416 64.6711 79.6486 64.6597 79.6603C64.6484 79.672 64.6416 79.6876 64.6406 79.7041V83.8695C64.6421 83.8858 64.6491 83.901 64.6604 83.9126C64.6716 83.9242 64.6864 83.9314 64.7023 83.9329H67.2091C67.2172 83.9331 67.2253 83.9315 67.2328 83.9284C67.2403 83.9252 67.2472 83.9206 67.2529 83.9147C67.2587 83.9087 67.2632 83.9017 67.2663 83.8939C67.2693 83.8862 67.2708 83.8779 67.2707 83.8695V83.4667C67.2708 83.4584 67.2693 83.4501 67.2663 83.4423C67.2632 83.4346 67.2587 83.4275 67.2529 83.4216C67.2472 83.4157 67.2403 83.411 67.2328 83.4079C67.2253 83.4047 67.2172 83.4032 67.2091 83.4033H65.2314C65.1991 83.4033 65.1903 83.3922 65.1903 83.3721V82.0632C65.1903 82.041 65.2011 82.0319 65.2314 82.0319H66.9098C66.9181 82.0329 66.9265 82.0319 66.9344 82.0291C66.9423 82.0262 66.9495 82.0216 66.9554 82.0155C66.9613 82.0094 66.9658 82.002 66.9686 81.9939C66.9714 81.9858 66.9723 81.9771 66.9714 81.9685V81.5738C66.9723 81.5653 66.9714 81.5566 66.9686 81.5485C66.9658 81.5403 66.9613 81.5329 66.9554 81.5268C66.9495 81.5207 66.9423 81.5161 66.9344 81.5133C66.9265 81.5104 66.9181 81.5094 66.9098 81.5104H65.2314C65.1991 81.5104 65.1903 81.4993 65.1903 81.4681V80.2115C65.1903 80.1894 65.2011 80.1803 65.2314 80.1803H67.2101C67.2182 80.1806 67.2264 80.1791 67.234 80.1761C67.2416 80.173 67.2485 80.1683 67.2542 80.1624C67.26 80.1564 67.2645 80.1493 67.2675 80.1415C67.2705 80.1337 67.2719 80.1253 67.2717 80.1169V79.7141C67.2731 79.705 67.2726 79.6957 67.2701 79.6868C67.2677 79.6779 67.2634 79.6696 67.2575 79.6626C67.2516 79.6556 67.2443 79.65 67.2361 79.6462C67.2279 79.6424 67.219 79.6405 67.2101 79.6406Z" fill="white"/>
<path d="M72.6579 81.6549H71.3218C71.3137 81.6546 71.3055 81.6561 71.2979 81.6592C71.2903 81.6623 71.2834 81.6669 71.2777 81.6729C71.2719 81.6788 71.2673 81.6859 71.2643 81.6938C71.2613 81.7016 71.2599 81.7099 71.2602 81.7184V82.0798C71.2601 82.0882 71.2616 82.0965 71.2646 82.1043C71.2677 82.112 71.2722 82.1191 71.278 82.125C71.2837 82.1309 71.2906 82.1356 71.2981 82.1387C71.3056 82.1418 71.3137 82.1434 71.3218 82.1432H72.1288C72.161 82.1432 72.1698 82.1543 72.1698 82.1855C72.1749 82.4118 72.1469 82.6375 72.0867 82.8551C72.0268 83.0458 71.9064 83.2103 71.7448 83.3223C71.5832 83.4342 71.3899 83.487 71.1957 83.4723C70.9962 83.4929 70.796 83.4399 70.6309 83.3228C70.4658 83.2057 70.3464 83.0322 70.2939 82.833C70.1825 82.1382 70.1825 81.4294 70.2939 80.7346C70.3467 80.5356 70.4662 80.3623 70.6313 80.2453C70.7963 80.1283 70.9962 80.0751 71.1957 80.0953C71.3852 80.0831 71.5739 80.1305 71.7367 80.2312C71.8995 80.3319 72.0287 80.4811 72.1072 80.6591C72.1288 80.7014 72.1591 80.7125 72.1904 80.6903L72.563 80.5091C72.5762 80.5 72.5856 80.4863 72.5896 80.4705C72.5936 80.4547 72.5918 80.438 72.5845 80.4235C72.4631 80.1546 72.2659 79.9295 72.0185 79.7774C71.7712 79.6254 71.4852 79.5533 71.1976 79.5707C70.8843 79.5456 70.572 79.631 70.3121 79.8129C70.0522 79.9948 69.8602 80.2624 69.7677 80.5715C69.6728 80.9664 69.6382 81.374 69.665 81.7798C69.6395 82.1876 69.6741 82.597 69.7677 82.9941C69.8597 83.3035 70.0516 83.5714 70.3117 83.7534C70.5717 83.9353 70.8842 84.0205 71.1976 83.9949C71.5095 84.0145 71.8187 83.926 72.0759 83.7435C72.3332 83.561 72.5236 83.295 72.6168 82.988C72.686 82.6772 72.7204 82.3594 72.7195 82.0405V81.7163C72.7198 81.708 72.7184 81.6997 72.7154 81.692C72.7124 81.6843 72.7078 81.6773 72.702 81.6715C72.6962 81.6657 72.6893 81.6612 72.6817 81.6584C72.6741 81.6555 72.666 81.6543 72.6579 81.6549Z" fill="white"/>
<path d="M75.1017 79.576C74.79 79.5526 74.4798 79.6389 74.2219 79.8207C73.9641 80.0026 73.7739 80.2692 73.6825 80.5769C73.5764 80.9697 73.538 81.3786 73.569 81.7851C73.5392 82.1936 73.5776 82.6043 73.6825 82.9994C73.7941 83.2931 73.9892 83.5453 74.2422 83.7231C74.4952 83.9008 74.7944 83.996 75.1007 83.996C75.4071 83.996 75.7063 83.9008 75.9593 83.7231C76.2123 83.5453 76.4073 83.2931 76.5189 82.9994C76.6558 82.2001 76.6558 81.3822 76.5189 80.5829C76.4292 80.2742 76.2399 80.0061 75.9822 79.8231C75.7245 79.64 75.414 79.5529 75.1017 79.576ZM75.982 82.8353C75.9313 83.0311 75.8154 83.2024 75.6545 83.3193C75.4936 83.4362 75.298 83.4911 75.1017 83.4746C74.9041 83.4916 74.7069 83.4371 74.5442 83.3203C74.3815 83.2036 74.2635 83.032 74.2107 82.8353C74.1404 82.4891 74.1125 82.1353 74.1275 81.7821C74.1119 81.4315 74.1398 81.0803 74.2107 80.737C74.2639 80.5404 74.3819 80.3691 74.5445 80.2524C74.7071 80.1357 74.9042 80.081 75.1017 80.0976C75.298 80.0807 75.4939 80.1355 75.6548 80.2524C75.8158 80.3693 75.9316 80.5409 75.982 80.737C76.0651 81.0783 76.0981 81.4306 76.0798 81.7821C76.0977 82.1361 76.0654 82.4909 75.9839 82.8353H75.982Z" fill="white"/>
<path d="M79.1417 79.704C79.1357 79.686 79.1246 79.6703 79.1097 79.659C79.0949 79.6476 79.077 79.6412 79.0585 79.6406H78.6673C78.6155 79.6406 78.6057 79.6718 78.5842 79.704L77.1434 83.8695C77.141 83.8764 77.1401 83.8839 77.141 83.8913C77.1419 83.8986 77.1444 83.9057 77.1484 83.9119C77.1524 83.918 77.1578 83.9232 77.164 83.9268C77.1703 83.9305 77.1773 83.9326 77.1845 83.9329H77.608C77.6491 83.9329 77.6697 83.9107 77.6912 83.8695L78.012 82.9331H79.6904L80.0112 83.8695C80.0154 83.8885 80.026 83.9054 80.0413 83.9171C80.0566 83.9287 80.0754 83.9343 80.0943 83.9329H80.5178C80.5589 83.9329 80.5795 83.8997 80.5589 83.8695L79.1417 79.704ZM78.1871 82.4226L78.8512 80.4743H78.8619L79.5153 82.4226H78.1871Z" fill="white"/>
<path d="M83.9191 83.4003H81.9306C81.9091 83.4003 81.8984 83.3892 81.8984 83.3691V79.7041C81.8968 79.6878 81.8899 79.6726 81.8786 79.661C81.8674 79.6494 81.8526 79.6422 81.8367 79.6407H81.4132C81.4051 79.6404 81.3969 79.6418 81.3893 79.6449C81.3817 79.648 81.3748 79.6527 81.3691 79.6586C81.3633 79.6646 81.3588 79.6717 81.3558 79.6795C81.3528 79.6873 81.3513 79.6957 81.3516 79.7041V83.8695C81.3515 83.8779 81.353 83.8862 81.356 83.894C81.3591 83.9017 81.3636 83.9088 81.3694 83.9147C81.3751 83.9206 81.382 83.9253 81.3895 83.9284C81.397 83.9315 81.4051 83.9331 81.4132 83.933H83.9201C83.936 83.9318 83.9511 83.9247 83.9624 83.9131C83.9737 83.9014 83.9805 83.886 83.9817 83.8695V83.4668C83.9812 83.4496 83.9745 83.4333 83.9629 83.421C83.9514 83.4087 83.9357 83.4013 83.9191 83.4003Z" fill="white"/>
<path d="M86.3195 81.504L86.1239 81.4819C85.4813 81.3872 85.2436 81.1516 85.2436 80.7902C85.2436 80.3874 85.5243 80.0984 86.0319 80.0984C86.3901 80.1002 86.7397 80.2112 87.0364 80.4176C87.0434 80.4239 87.0515 80.4287 87.0604 80.4316C87.0692 80.4344 87.0785 80.4354 87.0877 80.4343C87.0969 80.4333 87.1058 80.4303 87.1138 80.4255C87.1218 80.4207 87.1288 80.4143 87.1342 80.4065L87.3416 80.0562C87.3631 80.034 87.3523 80.0028 87.3308 79.9706C86.9552 79.7103 86.5121 79.5727 86.0593 79.5759C85.8875 79.5539 85.7132 79.5702 85.5481 79.6236C85.383 79.6771 85.2309 79.7663 85.1022 79.8855C84.9735 80.0046 84.8711 80.1508 84.802 80.3142C84.7329 80.4775 84.6987 80.6543 84.7017 80.8325C84.7017 81.502 85.1174 81.8967 85.9244 82.0135L86.1317 82.0467C86.8056 82.1323 87.0012 82.377 87.0012 82.7384C87.0012 83.1744 86.6589 83.4725 86.0896 83.4725C85.6627 83.4626 85.2506 83.3095 84.9159 83.0365C84.8837 83.0053 84.8543 83.0053 84.8328 83.0365L84.5628 83.3667C84.5525 83.3802 84.5469 83.3969 84.5469 83.4141C84.5469 83.4312 84.5525 83.4479 84.5628 83.4614C84.9781 83.807 85.496 83.9954 86.03 83.995C87.0345 83.995 87.5411 83.4533 87.5411 82.7052C87.5421 82.0024 87.1372 81.6208 86.3195 81.504Z" fill="white"/>
<path d="M88.9543 83.2601H88.4878C88.4794 83.2591 88.471 83.2601 88.4631 83.263C88.4552 83.2658 88.448 83.2705 88.4421 83.2766C88.4362 83.2826 88.4317 83.29 88.4289 83.2982C88.4262 83.3063 88.4252 83.315 88.4261 83.3235V83.8652C88.4261 83.8964 88.4476 83.9186 88.4878 83.9186H88.9543C88.9693 83.9197 88.9841 83.9148 88.9956 83.9048C89.0072 83.8948 89.0144 83.8806 89.0159 83.8652V83.3235C89.016 83.3152 89.0145 83.3069 89.0115 83.2991C89.0084 83.2913 89.0039 83.2843 88.9982 83.2784C88.9924 83.2725 88.9856 83.2678 88.978 83.2646C88.9705 83.2615 88.9624 83.26 88.9543 83.2601Z" fill="white"/>
<path d="M92.9984 79.6391H91.6007C91.5925 79.6388 91.5844 79.6403 91.5768 79.6434C91.5692 79.6465 91.5623 79.6511 91.5565 79.6571C91.5508 79.663 91.5462 79.6701 91.5432 79.678C91.5402 79.6858 91.5388 79.6941 91.5391 79.7025V83.868C91.5391 83.8992 91.5606 83.9213 91.6007 83.9213H92.9984C93.2919 83.9574 93.5884 83.8865 93.8364 83.721C94.0844 83.5554 94.2682 83.3057 94.356 83.0151C94.5072 82.2019 94.5072 81.3666 94.356 80.5534C94.2685 80.2621 94.0851 80.0113 93.8372 79.8444C93.5894 79.6775 93.2927 79.6049 92.9984 79.6391ZM93.8376 82.8128C93.77 83.0094 93.6378 83.1756 93.4639 83.2826C93.2899 83.3896 93.0852 83.4307 92.8849 83.3988H92.1181C92.0966 83.3988 92.077 83.3877 92.077 83.3676V80.205C92.077 80.1828 92.0986 80.1738 92.1181 80.1738H92.8849C93.0852 80.1415 93.2902 80.1824 93.4642 80.2895C93.6382 80.3965 93.7703 80.5629 93.8376 80.7598C93.9186 81.0939 93.9467 81.4394 93.9207 81.7827C93.9494 82.1283 93.9223 82.4763 93.8405 82.8128H93.8376Z" fill="white"/>
<path d="M96.8549 79.5759C96.5435 79.5541 96.234 79.641 95.9765 79.8226C95.719 80.0042 95.5285 80.2699 95.4357 80.5767C95.3409 80.9715 95.3062 81.3792 95.333 81.7849C95.3075 82.1927 95.3421 82.6021 95.4357 82.9992C95.5473 83.2929 95.7423 83.5451 95.9954 83.7229C96.2484 83.9007 96.5476 83.9958 96.8539 83.9958C97.1603 83.9958 97.4595 83.9007 97.7125 83.7229C97.9655 83.5451 98.1605 83.2929 98.2721 82.9992C98.4233 82.2012 98.4233 81.3807 98.2721 80.5827C98.1822 80.2741 97.9929 80.0062 97.7353 79.8231C97.4776 79.6401 97.1671 79.5529 96.8549 79.5759ZM97.7459 82.8351C97.6927 83.0317 97.5747 83.203 97.4121 83.3197C97.2495 83.4364 97.0524 83.4911 96.8549 83.4745C96.6586 83.4914 96.4627 83.4366 96.3018 83.3197C96.1408 83.2027 96.025 83.0312 95.9746 82.8351C95.8912 82.491 95.8583 82.136 95.8768 81.7819C95.8577 81.4305 95.8907 81.078 95.9746 80.7368C96.0253 80.5409 96.1412 80.3696 96.3021 80.2527C96.463 80.1359 96.6586 80.0809 96.8549 80.0974C97.0526 80.0802 97.2498 80.1347 97.4126 80.2515C97.5753 80.3683 97.6932 80.5399 97.7459 80.7368C97.8232 81.0792 97.8561 81.4306 97.8437 81.7819C97.8574 82.1359 97.8245 82.4902 97.7459 82.8351Z" fill="white"/>
<path d="M102.302 79.6407H101.919C101.911 79.6404 101.903 79.6419 101.895 79.645C101.888 79.648 101.881 79.6527 101.875 79.6587C101.869 79.6646 101.865 79.6717 101.862 79.6795C101.859 79.6874 101.857 79.6957 101.857 79.7041V82.9261H101.836L99.9502 79.7041C99.9381 79.6845 99.9214 79.6683 99.9015 79.6572C99.8816 79.6461 99.8593 79.6404 99.8367 79.6407H99.4533C99.4451 79.6403 99.4368 79.6416 99.4291 79.6446C99.4214 79.6477 99.4144 79.6523 99.4085 79.6583C99.4026 79.6642 99.398 79.6714 99.3949 79.6793C99.3919 79.6872 99.3904 79.6956 99.3907 79.7041V83.8696C99.3906 83.878 99.3921 83.8864 99.3952 83.8942C99.3983 83.9021 99.4029 83.9092 99.4088 83.9151C99.4147 83.921 99.4216 83.9257 99.4293 83.9288C99.4369 83.9318 99.4451 83.9333 99.4533 83.933H99.8367C99.8527 83.9318 99.8677 83.9248 99.879 83.9131C99.8903 83.9015 99.8972 83.886 99.8983 83.8696V80.6677H99.9199L101.806 83.8746C101.816 83.8929 101.831 83.9083 101.849 83.9193C101.867 83.9304 101.887 83.9368 101.908 83.938H102.299C102.308 83.9383 102.316 83.9369 102.324 83.9338C102.331 83.9307 102.338 83.9261 102.344 83.9201C102.35 83.9142 102.354 83.9071 102.358 83.8993C102.361 83.8914 102.362 83.883 102.362 83.8746V79.7092C102.363 79.7005 102.362 79.6918 102.36 79.6835C102.357 79.6752 102.353 79.6676 102.347 79.6611C102.342 79.6546 102.335 79.6495 102.327 79.646C102.319 79.6424 102.311 79.6406 102.302 79.6407Z" fill="white"/>
<path d="M106.084 79.6406H103.573C103.557 79.6416 103.542 79.6486 103.531 79.6603C103.519 79.672 103.513 79.6876 103.512 79.7041V83.8695C103.513 83.8858 103.52 83.901 103.531 83.9126C103.543 83.9242 103.558 83.9314 103.573 83.9329H106.08C106.096 83.9317 106.111 83.9247 106.123 83.913C106.134 83.9014 106.141 83.8859 106.142 83.8695V83.4667C106.14 83.4504 106.133 83.4352 106.122 83.4236C106.111 83.4121 106.096 83.4049 106.08 83.4033H104.092C104.07 83.4033 104.059 83.3922 104.059 83.3721V82.0632C104.059 82.041 104.07 82.0319 104.092 82.0319H105.781C105.789 82.0322 105.797 82.0308 105.805 82.0277C105.812 82.0246 105.819 82.0199 105.825 82.014C105.831 82.0081 105.835 82.0009 105.838 81.9931C105.841 81.9853 105.843 81.9769 105.843 81.9685V81.5738C105.843 81.5654 105.841 81.5571 105.838 81.5494C105.835 81.5416 105.831 81.5346 105.825 81.5287C105.819 81.5227 105.812 81.5181 105.805 81.5149C105.797 81.5118 105.789 81.5103 105.781 81.5104H104.092C104.07 81.5104 104.059 81.4993 104.059 81.4681V80.2115C104.059 80.1894 104.07 80.1803 104.092 80.1803H106.08C106.096 80.1794 106.111 80.1724 106.123 80.1607C106.134 80.149 106.141 80.1334 106.142 80.1169V79.7141C106.143 79.6966 106.138 79.6794 106.127 79.6657C106.116 79.6521 106.101 79.6431 106.084 79.6406Z" fill="white"/>
<path d="M107.525 83.2598H107.056C107.024 83.2598 107.004 83.282 107.004 83.3233V83.865C107.004 83.8721 107.005 83.8791 107.007 83.8857C107.01 83.8923 107.014 83.8983 107.019 83.9033C107.023 83.9083 107.029 83.9123 107.036 83.9149C107.042 83.9174 107.049 83.9186 107.056 83.9183H107.522C107.563 83.9183 107.584 83.8962 107.584 83.865V83.3233C107.585 83.315 107.584 83.3066 107.581 83.2987C107.579 83.2908 107.575 83.2836 107.569 83.2776C107.563 83.2715 107.557 83.2668 107.549 83.2637C107.541 83.2607 107.533 83.2594 107.525 83.2598Z" fill="white"/>
<path d="M143.996 54.9326C143.998 53.7724 143.665 52.6377 143.039 51.6723C142.414 50.7069 141.525 49.954 140.484 49.509C139.443 49.0641 138.297 48.9469 137.192 49.1724C136.086 49.3979 135.07 49.9559 134.273 50.7759C133.475 51.5959 132.932 52.6409 132.712 53.7788C132.491 54.9167 132.604 56.0963 133.035 57.1684C133.466 58.2405 134.196 59.1569 135.133 59.8017C136.07 60.4465 137.172 60.7906 138.299 60.7906C139.052 60.8112 139.801 60.6738 140.501 60.3868C141.201 60.0998 141.837 59.6692 142.37 59.1212C142.903 58.5732 143.322 57.9192 143.601 57.1991C143.881 56.479 144.015 55.7079 143.996 54.9326ZM143.033 54.9326C143.022 55.8926 142.736 56.828 142.211 57.6211C141.685 58.4142 140.944 59.0296 140.079 59.3898C139.215 59.7501 138.266 59.8391 137.353 59.6457C136.439 59.4523 135.602 58.9851 134.945 58.3029C134.289 57.6207 133.844 56.7539 133.665 55.8117C133.486 54.8695 133.582 53.8938 133.94 53.0075C134.299 52.1212 134.904 51.3638 135.679 50.8306C136.455 50.2975 137.366 50.0123 138.299 50.0111C138.929 49.9933 139.556 50.1088 140.142 50.3504C140.727 50.5921 141.258 50.9548 141.702 51.4161C142.145 51.8773 142.492 52.4274 142.721 53.0323C142.95 53.6372 143.056 54.2839 143.033 54.9326ZM136.755 58.212V52.493H135.777C135.3 52.493 135.113 52.6732 135.113 53.1847V58.212H136.755ZM139.851 58.212H141.479V53.1827C141.479 52.6712 141.293 52.491 140.815 52.491H139.851V58.212ZM139.127 58.212V51.7479C139.127 51.2364 138.942 51.0673 138.452 51.0673H136.985V51.7811H137.083C137.415 51.7811 137.488 51.8667 137.488 52.2846V58.2181H139.134L139.127 58.212Z" fill="white"/>
<path d="M100.219 58.2098L100.759 56.3673H102.871L103.368 58.2098H105.336L103.391 51.1899C103.356 51.0061 103.256 50.8422 103.11 50.7305C102.964 50.6187 102.783 50.5671 102.602 50.5858H99.8363V51.2483H100.063C100.357 51.2483 100.508 51.3651 100.508 51.5896C100.495 51.8025 100.445 52.0113 100.362 52.2069L98.4141 58.2149H100.221L100.219 58.2098ZM102.601 55.1218H101.036L101.876 52.3206L102.601 55.1218Z" fill="white"/>
<path d="M113.576 58.2099V53.0749C113.582 52.9972 113.572 52.919 113.547 52.8456C113.521 52.7722 113.48 52.7054 113.427 52.6497C113.374 52.594 113.31 52.5509 113.239 52.5231C113.169 52.4953 113.093 52.4837 113.017 52.4889H111.328V53.1393H111.431C111.712 53.1393 111.836 53.2783 111.836 53.5753V58.2069L113.576 58.2099ZM113.608 51.2766C113.608 50.7651 113.246 50.457 112.604 50.457C111.982 50.457 111.61 50.7651 111.61 51.2766C111.61 51.7881 111.982 52.1073 112.604 52.1073C113.244 52.1073 113.608 51.7992 113.608 51.2766Z" fill="white"/>
<path d="M115.045 54.1288C115.581 53.8565 116.167 53.7042 116.764 53.6818C117.231 53.6818 117.396 53.852 117.396 54.3514V54.4782C116.681 54.595 116.465 54.6373 116.06 54.734C115.837 54.7871 115.619 54.8585 115.407 54.9474C115.075 55.0734 114.794 55.3089 114.606 55.6172C114.419 55.9255 114.336 56.2891 114.371 56.6511C114.371 57.7375 114.827 58.2711 115.769 58.2711C116.091 58.2697 116.41 58.2086 116.711 58.0909C116.978 57.9549 117.228 57.7858 117.456 57.5874V57.673C117.446 57.7454 117.453 57.8191 117.476 57.8883C117.499 57.9575 117.536 58.0204 117.587 58.0721C117.637 58.1237 117.698 58.1628 117.765 58.1861C117.832 58.2094 117.904 58.2165 117.974 58.2067H119.57V57.5895H119.486C119.187 57.5895 119.071 57.4505 119.071 57.086V54.3624C119.071 52.9146 118.582 52.4141 117.176 52.4141C116.726 52.4135 116.278 52.4669 115.84 52.5732C115.426 52.6636 115.028 52.8181 114.659 53.0314L115.045 54.1288ZM117.392 55.4599V56.5776C117.152 56.8606 116.814 57.0361 116.45 57.0669C116.14 57.0669 116.027 56.9078 116.027 56.4809C116.027 56.054 116.125 55.8637 116.432 55.7469C116.74 55.6131 117.062 55.5168 117.392 55.4599Z" fill="white"/>
<path d="M130.375 57.0171H127.951L130.272 53.6712V52.4902H126.647C126.232 52.4902 126.037 52.6815 126.037 53.1074V54.1515H126.691V54.0458C126.691 53.79 126.826 53.6622 127.095 53.6622H128.347L126.008 57.0392V58.2112H130.38V57.0171H130.375Z" fill="white"/>
<path d="M122.098 58.2093V54.347C122.211 54.2001 122.354 54.081 122.517 53.9982C122.68 53.9155 122.858 53.8713 123.04 53.8687C123.402 53.8687 123.496 54.0187 123.496 54.5937V58.2184H125.226V54.3218C125.226 53.4156 125.165 53.1297 124.884 52.8296C124.747 52.69 124.583 52.5818 124.403 52.5124C124.222 52.4429 124.029 52.4138 123.837 52.4269C123.497 52.4257 123.16 52.4992 122.849 52.6424C122.538 52.7856 122.261 52.9953 122.035 53.2575V53.035C122.044 52.9603 122.037 52.8842 122.013 52.8129C121.989 52.7416 121.95 52.677 121.897 52.6244C121.845 52.5717 121.781 52.5325 121.711 52.5097C121.641 52.487 121.567 52.4813 121.495 52.4933H119.848V53.1387H119.95C120.244 53.1387 120.366 53.2777 120.366 53.5747V58.2063L122.098 58.2093Z" fill="white"/>
<path d="M110.56 58.2101V51.1701C110.568 51.092 110.56 51.013 110.535 50.9388C110.51 50.8646 110.469 50.797 110.416 50.741C110.362 50.6849 110.297 50.6418 110.226 50.6146C110.154 50.5875 110.078 50.5771 110.002 50.5841H108.293V51.2486H108.396C108.695 51.2486 108.811 51.3765 108.811 51.6735V58.2121L110.56 58.2101Z" fill="white"/>
<path d="M107.584 58.2096V51.1695C107.592 51.0923 107.584 51.0142 107.56 50.9406C107.536 50.867 107.496 50.7998 107.444 50.7438C107.391 50.6878 107.328 50.6444 107.257 50.6167C107.187 50.589 107.111 50.5777 107.036 50.5835H105.316V51.2481H105.43C105.723 51.2481 105.846 51.3759 105.846 51.673V58.2116L107.584 58.2096Z" fill="white"/>
<path d="M92.7212 36H56V73.804H92.7212V36Z" fill="white"/>
<path fill-rule="evenodd" clip-rule="evenodd" d="M57.8984 71.837V66.8027H62.2656C63.1674 66.8027 64.613 66.9265 64.613 68.1227C64.5816 68.4133 64.4566 68.6847 64.2578 68.8937C64.0591 69.1026 63.7981 69.2371 63.5166 69.2755C64.2462 69.5001 64.613 69.9149 64.613 70.4838C64.613 71.7182 63.2339 71.837 62.2656 71.841L57.8984 71.837ZM59.5015 69.7165L59.9661 68.9453C60.0243 68.8584 60.102 68.7873 60.1926 68.7379C60.2832 68.6885 60.3839 68.6622 60.4864 68.6613H62.2675C62.5864 68.6613 62.8456 68.5133 62.8456 68.2586C62.8456 68.0039 62.5884 67.8559 62.2675 67.8559H59.5015V69.7165ZM59.5015 69.7165V71.837L59.9661 71.0637C60.0243 70.9769 60.102 70.9058 60.1926 70.8563C60.2832 70.8069 60.3839 70.7807 60.4864 70.7798H62.247C62.321 70.7908 62.3964 70.7853 62.4682 70.7637C62.54 70.7421 62.6064 70.7048 62.6629 70.6544C62.7194 70.604 62.7648 70.5417 62.7959 70.4717C62.8269 70.4017 62.843 70.3256 62.843 70.2487C62.843 70.1717 62.8269 70.0956 62.7959 70.0256C62.7648 69.9556 62.7194 69.8933 62.6629 69.8429C62.6064 69.7925 62.54 69.7553 62.4682 69.7336C62.3964 69.712 62.321 69.7065 62.247 69.7176L59.5015 69.7165ZM68.4891 68.0129L66.3246 71.839H64.4408L67.4592 66.8047H69.5229L72.5394 71.839H70.6536L70.146 70.9419H67.3545L67.8172 70.1686C67.8752 70.0816 67.9529 70.0103 68.0435 69.9609C68.1341 69.9115 68.235 69.8853 68.3375 69.8847H69.5474L68.4891 68.0129ZM81.5954 68.0129L79.4309 71.839H77.5481L80.5645 66.8047H82.6283L85.6427 71.839H83.7609L83.2533 70.9419H80.4618L80.9264 70.1686C80.984 70.0816 81.0613 70.0104 81.1516 69.9609C81.2419 69.9114 81.3425 69.8853 81.4448 69.8847H82.6566L81.5954 68.0129ZM75.4492 70.7788C75.813 70.7788 76.1084 70.5976 76.1084 70.2321V66.8027H77.7144V70.3861C77.7144 71.4725 77.0102 71.838 76.0869 71.838H73.4206C73.3184 71.837 73.2179 71.8107 73.1277 71.7612C73.0375 71.7118 72.9601 71.6408 72.9022 71.5541L72.4376 70.7788H75.4492ZM88.5555 70.7788C88.9193 70.7788 89.2167 70.5976 89.2167 70.2321V66.8027H90.8178V70.3861C90.8178 71.4725 90.1136 71.838 89.1902 71.838H86.5201C86.4179 71.837 86.3174 71.8107 86.2272 71.7612C86.137 71.7118 86.0596 71.6408 86.0017 71.5541L85.5371 70.7788H88.5555Z" fill="#265CA7"/>
<path d="M77.9236 54.8026C78.5165 54.6569 79.0466 54.3151 79.4326 53.8295C79.8186 53.3439 80.0393 52.7413 80.0607 52.1142C80.0607 49.3242 77.235 49.0352 75.4774 49.0352H68.6641V60.7673H71.0467V51.5192H78.1378L77.3553 53.0859C77.2845 53.2062 77.1807 53.3022 77.0569 53.3618C76.9332 53.4215 76.795 53.4421 76.6599 53.4212H74.068C73.8037 53.4531 73.5621 53.5902 73.3949 53.8033C73.2276 54.0163 73.148 54.2883 73.1731 54.5609V57.0248C73.1731 57.0248 73.2454 56.0642 74.0318 55.9867L77.5001 55.9716L76.7548 57.4728C76.6952 57.597 76.6022 57.7009 76.4869 57.7723C76.3716 57.8437 76.2388 57.8795 76.1044 57.8756L74.021 57.9017C74.021 57.9017 73.308 57.9128 73.1691 58.8865V60.7602H75.4774C77.3788 60.7512 80.0607 60.4763 80.0607 57.5997C80.0624 56.9539 79.8523 56.3264 79.4644 55.8188C79.0766 55.3111 78.5337 54.9531 77.9236 54.8026Z" fill="#265CA7"/>
</g>
<defs>
<clipPath id="clip0_270_2343">
<rect width="88" height="48" fill="white" transform="translate(56 36)"/>
</clipPath>
</defs>
</svg>
