<svg width="81" height="80" viewBox="0 0 81 80" fill="none" xmlns="http://www.w3.org/2000/svg">
<rect x="0.333496" width="80" height="80" rx="40" fill="#FAFAFA"/>
<g clip-path="url(#clip0_82_2347)">
<path d="M60.1047 25.7716L54.5619 20.2288C54.2567 19.9237 53.7622 19.9237 53.4569 20.2288C53.1519 20.5339 53.1519 21.0286 53.4569 21.3337L54.5673 22.4441L48.0758 28.9357L51.3977 32.2576L57.8893 25.7661L58.9997 26.8765C59.3048 27.1815 59.7994 27.1815 60.1046 26.8765C60.4097 26.5715 60.4097 26.0768 60.1047 25.7716ZM29.4238 38.2085C34.4362 38.2085 38.514 34.1306 38.514 29.1182C38.514 24.1058 34.4362 20.0279 29.4238 20.0279C24.4115 20.0279 20.3335 24.1058 20.3335 29.1181C20.3335 34.1305 24.4114 38.2085 29.4238 38.2085ZM28.6399 23.6719H31.7754C32.0914 23.6719 32.3762 23.8431 32.4972 24.1351C32.618 24.427 32.5512 24.7673 32.3278 24.9908L30.5261 26.7969H31.7754C32.2068 26.7969 32.5566 27.1466 32.5566 27.5781C32.5566 28.0096 32.2068 28.3594 31.7754 28.3594H28.6399C28.3239 28.3594 28.039 28.1551 27.9181 27.8632C27.7972 27.5712 27.8641 27.2474 28.0875 27.024L29.8893 25.2344H28.64C28.2086 25.2344 27.8587 24.8846 27.8587 24.4531C27.8587 24.0216 28.2085 23.6719 28.6399 23.6719ZM27.0722 29.9219H30.2076C30.5237 29.9219 30.8085 30.1036 30.9294 30.3955C30.9885 30.5381 31.004 30.695 30.9738 30.8464C30.9437 30.9978 30.8693 31.1368 30.7601 31.2459L28.9583 33.0469H30.2076C30.639 33.0469 30.9889 33.3966 30.9889 33.8281C30.9889 34.2596 30.639 34.6094 30.2076 34.6094H27.0722C26.7562 34.6094 26.4713 34.4157 26.3504 34.1237C26.2295 33.8319 26.2964 33.5027 26.5197 33.2793L28.3215 31.4844H27.0722C26.6408 31.4844 26.2909 31.1346 26.2909 30.7031C26.2909 30.2716 26.6408 29.9219 27.0722 29.9219ZM31.3578 43.4365C30.2781 44.5162 29.6512 45.9276 29.5707 47.4408L28.6815 48.3299C27.9594 49.0521 27.8072 50.1313 28.224 51.0046L20.5623 58.6663C20.2572 58.9714 20.2572 59.4661 20.5623 59.7712C20.8675 60.0762 21.3619 60.0763 21.6672 59.7712L29.3289 52.1096C30.2022 52.5265 31.2814 52.3742 32.0036 51.652L32.8933 50.7623C34.1883 50.6933 35.4084 50.2238 36.4101 49.4129L33.6562 46.6774C33.3511 46.3723 33.3511 45.8776 33.6562 45.5725C33.9614 45.2675 34.4559 45.2676 34.7611 45.5725L37.54 48.3327L38.6522 47.2204L35.8733 44.4602C35.5683 44.1551 35.5683 43.6604 35.8733 43.3553C36.1786 43.0503 36.6731 43.0504 36.9783 43.3553L39.7572 46.1155L40.8694 45.0033L38.0905 42.243C37.7854 41.938 37.7854 41.4433 38.0905 41.1381C38.3958 40.8331 38.8903 40.8332 39.1954 41.1381L41.9744 43.8983L43.0866 42.7861L40.3077 40.0258C40.0026 39.7208 40.0026 39.2261 40.3077 38.9209C40.6129 38.6159 41.1075 38.616 41.4126 38.9209L44.1915 41.6812L47.8433 38.0294L38.6132 36.1814L31.3578 43.4365ZM44.752 27.8215C44.4469 27.5165 43.9523 27.5165 43.6471 27.8215C43.342 28.1266 43.342 28.6213 43.6471 28.9265L44.7575 30.0369L39.9405 34.8538L49.1707 36.7018L50.2965 35.5759L51.4069 36.6863C51.7121 36.9914 52.2067 36.9914 52.5119 36.6863C52.8169 36.3812 52.8169 35.8865 52.5119 35.5814L44.752 27.8215Z" fill="#195AFF"/>
</g>
<defs>
<clipPath id="clip0_82_2347">
<rect width="40" height="40" fill="white" transform="translate(20.3335 20)"/>
</clipPath>
</defs>
</svg>
