<svg width="81" height="80" viewBox="0 0 81 80" fill="none" xmlns="http://www.w3.org/2000/svg">
<rect x="0.666504" width="80" height="80" rx="40" fill="#FAFAFA"/>
<path d="M24.833 35.5643C24.833 30.2368 28.8914 25.833 34.0063 25.833C36.6469 25.833 39.0077 27.0161 40.6667 28.8885C42.3287 27.0156 44.6995 25.833 47.3263 25.833C52.4413 25.833 56.4997 30.2368 56.4997 35.5643C56.4997 36.7513 56.3414 37.9596 56.0449 39.1663H51.0115L49.1644 37.3192C48.5611 36.7159 47.544 36.8809 47.1625 37.6441L45.438 41.0929L44.1034 39.7582C43.5572 39.212 42.6513 39.287 42.2023 39.9156L39.396 43.8444L37.5554 35.8686C37.298 34.753 35.8008 34.5418 35.2447 35.5426L32.2286 40.9716L30.7879 39.0507C30.3315 38.4421 29.4419 38.3789 28.904 38.9168L27.8212 39.9997H25.3802C25.0235 38.576 24.833 37.0936 24.833 35.5643Z" fill="#195AFF"/>
<path d="M25.8817 41.6663C28.1397 48.0746 33.793 53.111 40.3709 55.6047C40.5613 55.6769 40.7714 55.6769 40.9617 55.6047C45.2879 53.9647 49.1585 50.9118 51.9496 47.3166C53.5162 45.2986 54.7598 43.0871 55.5482 40.833H50.8389C50.5074 40.833 50.1895 40.7013 49.955 40.4669L48.3946 38.9065L46.6702 42.3553C46.2887 43.1184 45.2716 43.2835 44.6683 42.6802L43.2727 41.2845L40.215 45.5653C39.5891 46.4415 38.222 46.1691 37.9799 45.1198L36.1752 37.2997L33.3735 42.3427C32.9337 43.1344 31.8242 43.2102 31.2808 42.4856L29.7428 40.435L28.8776 41.3002C28.6432 41.5346 28.3253 41.6663 27.9938 41.6663H25.8817Z" fill="#195AFF"/>
</svg>
