<svg width="81" height="80" viewBox="0 0 81 80" fill="none" xmlns="http://www.w3.org/2000/svg">
<rect x="0.666504" width="80" height="80" rx="40" fill="#FAFAFA"/>
<path d="M49.7153 52.4997C48.3049 52.4997 47.116 52.0098 46.1487 51.03C45.1813 50.05 44.6872 48.8617 44.6663 47.465C44.6663 46.777 44.8108 46.1163 45.0997 45.483C45.3885 44.8497 45.7885 44.2997 46.2997 43.833L48.333 41.933C48.7148 41.5552 49.1713 41.3663 49.7027 41.3663C50.234 41.3663 50.6885 41.5552 51.0663 41.933L53.0663 43.833C53.5775 44.2997 53.9723 44.843 54.251 45.463C54.5295 46.0828 54.679 46.7395 54.6997 47.433C54.6997 48.833 54.2163 50.0275 53.2497 51.0163C52.283 52.0052 51.1049 52.4997 49.7153 52.4997ZM40.6743 35.5997C41.7135 35.5997 42.5941 35.9635 43.3163 36.691C44.0385 37.4183 44.3997 38.3017 44.3997 39.341C44.3997 40.3801 44.0359 41.2608 43.3083 41.983C42.581 42.7052 41.6977 43.0663 40.6583 43.0663C39.6192 43.0663 38.7385 42.7025 38.0163 41.975C37.2941 41.2477 36.933 40.3643 36.933 39.325C36.933 38.2859 37.2968 37.4052 38.0243 36.683C38.7517 35.9608 39.635 35.5997 40.6743 35.5997ZM34.9997 39.337C34.9997 40.9121 35.5539 42.2552 36.6623 43.3663C37.7705 44.4775 39.1163 45.033 40.6997 45.033C41.2108 45.033 41.6941 44.9719 42.1497 44.8497C42.6052 44.7275 43.0441 44.5441 43.4663 44.2997C43.1552 44.9441 42.933 45.6052 42.7997 46.283C42.6663 46.9608 42.6552 47.6552 42.7663 48.3663C42.8108 48.5885 42.7719 48.783 42.6497 48.9497C42.5275 49.1163 42.3552 49.2219 42.133 49.2663C40.5997 49.4441 39.1108 49.3775 37.6663 49.0663C36.2219 48.7552 34.833 48.2441 33.4997 47.533C32.0552 46.7552 30.7497 45.783 29.583 44.6163C28.4163 43.4497 27.4441 42.1441 26.6663 40.6997C26.5468 40.4803 26.4613 40.2568 26.41 40.029C26.3587 39.8012 26.333 39.5692 26.333 39.333C26.333 39.0968 26.3587 38.8648 26.41 38.637C26.4613 38.4092 26.5468 38.1857 26.6663 37.9663C28.0663 35.3441 30.0052 33.2497 32.483 31.683C34.9608 30.1163 37.6885 29.333 40.6663 29.333C43.6441 29.333 46.3719 30.1163 48.8497 31.683C51.3275 33.2497 53.2663 35.3441 54.6663 37.9663C54.7775 38.2108 54.8663 38.4441 54.933 38.6663C54.9997 38.8885 55.033 39.0997 55.033 39.2997C55.033 39.7415 54.9219 40.1685 54.6997 40.581C54.4775 40.9935 54.2219 41.433 53.933 41.8997L51.7663 39.833C51.4732 39.5583 51.15 39.3563 50.7967 39.227C50.4431 39.0977 50.0768 39.033 49.6977 39.033C49.3188 39.033 48.9521 39.0997 48.5977 39.233C48.2435 39.3663 47.9219 39.5663 47.633 39.833L45.9997 41.3663C46.1108 41.0552 46.1997 40.73 46.2663 40.3907C46.333 40.0511 46.3663 39.6985 46.3663 39.333C46.3663 37.759 45.815 36.421 44.7123 35.319C43.6097 34.2172 42.2708 33.6663 40.6957 33.6663C39.1205 33.6663 37.7775 34.2177 36.6663 35.3203C35.5552 36.423 34.9997 37.7619 34.9997 39.337Z" fill="#195AFF"/>
</svg>
