<svg width="80" height="80" viewBox="0 0 80 80" fill="none" xmlns="http://www.w3.org/2000/svg">
<rect width="80" height="80" rx="40" fill="#FAFAFA"/>
<path d="M21.8483 30.9999C21.7203 31.4399 21.6883 31.9359 21.7683 32.4719C21.9203 33.4319 22.4003 34.4559 23.1283 35.3599C23.8563 36.2639 24.7523 36.9599 25.6563 37.3119C26.0963 37.4879 26.5283 37.5759 26.9283 37.5759C27.4723 37.5759 27.9683 37.4159 28.3683 37.0959C29.6803 36.0399 29.4323 33.6319 27.8083 31.6079C26.3043 29.7359 24.2403 28.9679 22.8963 29.6879C22.5443 29.6319 21.6883 29.2879 21.6003 27.3599C21.5763 26.7199 21.9123 26.1359 22.4883 25.8159C23.0963 25.4719 23.8243 25.4879 24.4083 25.8639C27.1203 27.6079 30.2003 28.0959 32.0003 28.2319C31.7363 28.7839 31.5923 29.3759 31.5923 29.9999C31.5923 31.6159 32.5443 33.0959 34.2803 34.1679C34.6403 34.3919 34.9683 34.6959 35.2563 35.0799C36.0883 36.1679 36.2963 37.5759 35.8323 38.8479C35.2323 40.4719 34.6483 43.2799 35.2803 47.4479C36.4643 55.2079 39.5203 55.9599 39.8643 56.0239C39.9043 56.0319 39.9523 56.0319 40.0003 56.0319C40.0483 56.0319 40.0963 56.0319 40.1363 56.0239C40.2403 55.9999 40.8803 55.8639 41.6643 55.1119C40.6568 54.4494 39.8297 53.547 39.2572 52.4858C38.6847 51.4245 38.3847 50.2377 38.3843 49.0319C38.3843 45.2879 41.2163 42.1999 44.8563 41.7839C44.7203 40.7279 44.5043 39.7439 44.1683 38.8479C43.6963 37.5759 43.9123 36.1679 44.7443 35.0799C45.0323 34.6959 45.3603 34.3919 45.7203 34.1679C47.4563 33.0959 48.4083 31.6159 48.4083 29.9999C48.4083 29.3759 48.2643 28.7839 48.0003 28.2319C49.8003 28.0959 52.8803 27.6079 55.5923 25.8639C56.1683 25.4959 56.9043 25.4719 57.5123 25.8159C58.0883 26.1439 58.4163 26.7199 58.3923 27.4399C58.3043 29.2799 57.4723 29.6319 57.0963 29.6879C55.7523 28.9679 53.6883 29.7439 52.1843 31.6079C50.5603 33.6319 50.3123 36.0399 51.6243 37.0959C52.0243 37.4159 52.5123 37.5679 53.0483 37.5679C53.6643 37.5679 54.3363 37.3679 54.9923 36.9919C55.6483 36.6159 56.3043 36.0639 56.8643 35.3599C57.5923 34.4559 58.0723 33.4319 58.2243 32.4719C58.3043 31.9359 58.2723 31.4319 58.1443 30.9999C59.0163 30.5519 59.8883 29.5439 59.9843 27.5119L60.0003 27.4079C60.0403 26.1599 59.4083 25.0479 58.3043 24.4239C57.1843 23.7919 55.8163 23.8239 54.7363 24.5199C51.6643 26.4959 47.9123 26.6719 46.8403 26.6799C45.3283 25.2559 42.8563 24.3439 40.0003 24.3439C37.1443 24.3439 34.6723 25.2559 33.1603 26.6799C32.0883 26.6719 28.3523 26.5039 25.2723 24.5199C24.743 24.1797 24.1307 23.9908 23.5017 23.9739C22.8727 23.957 22.2511 24.1126 21.7043 24.4239C20.6003 25.0479 19.9603 26.1599 20.0003 27.4079L20.0083 27.5199C20.1043 29.5439 20.9763 30.5519 21.8483 30.9999Z" fill="#195AFF"/>
<path d="M45.6804 43.3359C42.5364 43.3359 39.9844 45.8879 39.9844 49.0319C39.9844 52.1679 42.5364 54.7199 45.6804 54.7199C48.8164 54.7199 51.3684 52.1679 51.3684 49.0319C51.3684 45.8879 48.8164 43.3359 45.6804 43.3359ZM47.4804 49.8239H46.4804V50.8319C46.4804 51.2719 46.1204 51.6319 45.6804 51.6319C45.2404 51.6319 44.8804 51.2719 44.8804 50.8319V49.8239H43.8724C43.4324 49.8239 43.0724 49.4639 43.0724 49.0239C43.0724 48.5839 43.4324 48.2239 43.8724 48.2239H44.8804V47.2159C44.8804 46.7759 45.2404 46.4159 45.6804 46.4159C46.1204 46.4159 46.4804 46.7759 46.4804 47.2159V48.2239H47.4884C47.9284 48.2239 48.2884 48.5839 48.2884 49.0239C48.2884 49.4639 47.9284 49.8239 47.4804 49.8239Z" fill="#195AFF"/>
</svg>
