<svg width="81" height="80" viewBox="0 0 81 80" fill="none" xmlns="http://www.w3.org/2000/svg">
<rect x="0.333496" width="80" height="80" rx="40" fill="#FAFAFA"/>
<path d="M53.3335 32C54.9585 32 56.3335 33.375 56.3335 35V53C56.3335 54.6875 54.9585 56 53.3335 56H27.3335C25.646 56 24.3335 54.6875 24.3335 53V35C24.3335 33.375 25.646 32 27.3335 32H32.3335V29C32.3335 27.375 33.646 26 35.3335 26H45.3335C46.9585 26 48.3335 27.375 48.3335 29V32H53.3335ZM36.3335 30V32H44.3335V30H36.3335ZM46.3335 45.5V42.5C46.3335 42.25 46.0835 42 45.8335 42H42.3335V38.5C42.3335 38.25 42.0835 38 41.8335 38H38.8335C38.521 38 38.3335 38.25 38.3335 38.5V42H34.8335C34.521 42 34.3335 42.25 34.3335 42.5V45.5C34.3335 45.8125 34.521 46 34.8335 46H38.3335V49.5C38.3335 49.8125 38.521 50 38.8335 50H41.8335C42.0835 50 42.3335 49.8125 42.3335 49.5V46H45.8335C46.0835 46 46.3335 45.8125 46.3335 45.5Z" fill="#195AFF"/>
</svg>
