<svg width="81" height="80" viewBox="0 0 81 80" fill="none" xmlns="http://www.w3.org/2000/svg">
<rect x="0.666504" width="80" height="80" rx="40" fill="#FAFAFA"/>
<path d="M49.3866 39.3258C50.4055 38.3069 50.7828 36.9019 50.502 35.6486C50.2605 34.5708 50.1869 33.2847 50.9679 32.5036L54.9417 28.5299C55.3391 28.1325 55.331 27.4858 54.924 27.0984L52.7928 25.0702C52.3997 24.6962 51.78 24.7038 51.3963 25.0875L47.4741 29.0098C46.693 29.7908 45.4069 29.7172 44.3291 29.4757C43.0758 29.1949 41.6708 29.5722 40.6519 30.5911C39.1124 32.1306 39.0376 34.5518 40.4848 35.999C41.038 36.5522 41.7335 36.883 42.4676 36.9946C42.7312 37.0347 42.943 37.2465 42.9831 37.5101C43.0947 38.2442 43.4255 38.9397 43.9787 39.4929C45.4259 40.9401 47.8471 40.8653 49.3866 39.3258Z" fill="#195AFF"/>
<path d="M31.2431 40.002C30.2259 41.0192 29.85 42.4227 30.1314 43.6752C30.3735 44.7529 30.4472 46.0388 29.6661 46.8198L25.7685 50.7174C25.3861 51.0999 25.377 51.7171 25.7481 52.1106L27.7669 54.2512C28.1537 54.6613 28.8029 54.6708 29.2015 54.2722L33.16 50.3137C33.941 49.5327 35.2269 49.6063 36.3047 49.8485C37.5571 50.1299 38.9606 49.7539 39.9778 48.7367C41.515 47.1995 41.5879 44.7802 40.1407 43.333C39.5874 42.7798 38.892 42.4487 38.1582 42.3366C37.8949 42.2964 37.6834 42.0849 37.6432 41.8216C37.5312 41.0878 37.2001 40.3924 36.6468 39.8392C35.1996 38.3919 32.7803 38.4648 31.2431 40.002Z" fill="#195AFF"/>
<path fill-rule="evenodd" clip-rule="evenodd" d="M31.9594 31.2929C32.3499 30.9024 32.9831 30.9024 33.3736 31.2929L34.3736 32.2929C34.7641 32.6834 34.7641 33.3166 34.3736 33.7071C33.9831 34.0976 33.3499 34.0976 32.9594 33.7071L31.9594 32.7071C31.5689 32.3166 31.5689 31.6834 31.9594 31.2929Z" fill="#195AFF"/>
<path fill-rule="evenodd" clip-rule="evenodd" d="M36.6665 30.0002C37.2188 30.0002 37.6665 30.4479 37.6665 31.0002L37.6665 32.0002C37.6665 32.5524 37.2188 33.0002 36.6665 33.0002C36.1142 33.0002 35.6665 32.5524 35.6665 32.0002L35.6665 31.0002C35.6665 30.4479 36.1142 30.0002 36.6665 30.0002Z" fill="#195AFF"/>
<path fill-rule="evenodd" clip-rule="evenodd" d="M30.6665 35.9989C30.6665 35.4466 31.1143 34.9989 31.6665 34.9989L32.6665 34.9989C33.2188 34.9989 33.6665 35.4466 33.6665 35.9989C33.6665 36.5512 33.2188 36.9989 32.6665 36.9989L31.6665 36.9989C31.1143 36.9989 30.6665 36.5512 30.6665 35.9989Z" fill="#195AFF"/>
<path fill-rule="evenodd" clip-rule="evenodd" d="M49.3736 48.7071C48.9831 49.0976 48.3499 49.0976 47.9594 48.7071L46.9594 47.7071C46.5689 47.3166 46.5689 46.6834 46.9594 46.2929C47.3499 45.9024 47.9831 45.9024 48.3736 46.2929L49.3736 47.2929C49.7641 47.6834 49.7641 48.3166 49.3736 48.7071Z" fill="#195AFF"/>
<path fill-rule="evenodd" clip-rule="evenodd" d="M44.6665 49.9998C44.1142 49.9998 43.6665 49.5521 43.6665 48.9998L43.6665 47.9998C43.6665 47.4476 44.1142 46.9998 44.6665 46.9998C45.2188 46.9998 45.6665 47.4476 45.6665 47.9998L45.6665 48.9998C45.6665 49.5521 45.2188 49.9998 44.6665 49.9998Z" fill="#195AFF"/>
<path fill-rule="evenodd" clip-rule="evenodd" d="M50.6665 43.9972C50.6665 44.5495 50.2187 44.9972 49.6665 44.9972L48.6665 44.9972C48.1142 44.9972 47.6665 44.5495 47.6665 43.9972C47.6665 43.4449 48.1142 42.9972 48.6665 42.9972L49.6665 42.9972C50.2187 42.9972 50.6665 43.4449 50.6665 43.9972Z" fill="#195AFF"/>
</svg>
