<svg width="80" height="80" viewBox="0 0 80 80" fill="none" xmlns="http://www.w3.org/2000/svg">
<rect width="80" height="80" rx="40" fill="#FAFAFA"/>
<path fill-rule="evenodd" clip-rule="evenodd" d="M43.2715 49.8453C43.2715 51.1452 43.7922 52.3247 44.5985 53.34C43.5837 56.6759 40.5476 59.1537 36.9333 59.3305C39.0104 57.8706 41.1844 55.7663 41.2402 53.2642C41.284 51.2953 40.0126 49.7814 38.4978 48.6856C36.9497 47.5121 35.4465 46.2362 34.0204 44.918C33.7146 44.6357 33.4116 44.3505 33.1115 44.0623C34.1736 44.4535 35.3214 44.6673 36.5193 44.6673C39.4962 44.6673 42.1651 43.3479 43.9729 41.2621C44.0962 41.2598 44.2221 41.2816 44.3448 41.3289C44.7233 41.475 44.9605 41.821 44.9605 42.2266V43.3673L43.6204 43.946C43.404 44.0395 43.2715 44.241 43.2715 44.4767V49.8453H43.2715ZM46.1383 37.4402C47.5865 37.4402 48.7713 36.2554 48.7713 34.8073C48.7713 33.3591 47.5865 32.1742 46.1383 32.1742H46.0231C46.2548 33.0125 46.3792 33.8952 46.3792 34.8073C46.3792 35.7193 46.2548 36.602 46.0231 37.4403L46.1383 37.4402ZM26.9001 32.1742C25.4519 32.1742 24.2671 33.359 24.2671 34.8072C24.2671 36.2554 25.4519 37.4402 26.9001 37.4402H27.0153C26.7836 36.602 26.6592 35.7192 26.6592 34.8072C26.6592 33.8952 26.7836 33.0124 27.0153 32.1742H26.9001ZM35.1024 59.2204C31.1282 58.5414 28.078 55.0596 28.078 50.8995V42.2265C28.078 41.8208 28.3153 41.4749 28.6937 41.3288C28.8121 41.2826 28.9384 41.2599 29.0655 41.262C31.1779 44.0112 35.0679 47.4592 37.8472 49.5648C42.4133 52.8597 39.4879 56.5516 35.1024 59.2204ZM37.8767 53.0574C37.8767 52.3098 37.2669 51.6999 36.5192 51.6999C35.7715 51.6999 35.1617 52.3098 35.1617 53.0574C35.1617 53.8051 35.7715 54.4149 36.5192 54.4149C37.2669 54.4149 37.8767 53.8052 37.8767 53.0574ZM55.7331 44.8156V49.8453C55.7331 52.3945 52.9914 54.7433 50.0491 55.7338C47.1069 54.7433 44.3651 52.3945 44.3651 49.8453V44.8156L50.0491 42.3612L55.7331 44.8156ZM53.3923 48.2255C53.3921 48.1294 53.3539 48.0373 53.286 47.9694C53.218 47.9015 53.126 47.8632 53.0299 47.8631H51.2336V46.0667C51.2334 45.9707 51.1951 45.8786 51.1272 45.8107C51.0593 45.7427 50.9672 45.7045 50.8712 45.7043H49.2272C49.1311 45.7045 49.039 45.7427 48.9711 45.8107C48.9032 45.8786 48.8649 45.9707 48.8647 46.0667V47.8631H47.0684C46.9724 47.8632 46.8803 47.9015 46.8124 47.9694C46.7444 48.0373 46.7062 48.1294 46.706 48.2255V49.8695C46.7062 49.9656 46.7444 50.0577 46.8124 50.1256C46.8803 50.1935 46.9724 50.2318 47.0684 50.232H48.8647V52.0283C48.8649 52.1244 48.9032 52.2164 48.9711 52.2844C49.039 52.3523 49.1311 52.3905 49.2272 52.3907H50.8712C50.9672 52.3905 51.0593 52.3523 51.1272 52.2844C51.1951 52.2164 51.2334 52.1244 51.2336 52.0283V50.232H53.0299C53.126 50.2318 53.218 50.1935 53.286 50.1256C53.3539 50.0577 53.3921 49.9656 53.3923 49.8695V48.2255ZM27.7529 34.8072C27.7529 30.2279 31.2954 26.45 35.78 26.0725L35.802 25.9427C35.9916 24.8372 36.3218 23.9881 36.7851 23.4163C36.965 23.1945 37.1726 23.0156 37.3964 22.8808C37.544 22.3046 37.8244 21.6577 38.2369 20.9434C38.2727 20.8812 38.3206 20.8266 38.3775 20.7829C38.4345 20.7392 38.4996 20.7071 38.569 20.6885C38.6383 20.6699 38.7107 20.6652 38.7819 20.6746C38.8531 20.684 38.9218 20.7074 38.984 20.7434C39.0462 20.7793 39.1007 20.8271 39.1444 20.8841C39.1881 20.9411 39.2201 21.0061 39.2387 21.0755C39.2573 21.1449 39.262 21.2172 39.2526 21.2884C39.2432 21.3596 39.2199 21.4283 39.184 21.4905C38.9395 21.9138 38.7643 22.279 38.6408 22.5927C38.9664 22.6269 39.2837 22.747 39.564 22.9576C39.9487 23.246 40.1962 23.655 40.2608 24.1088C40.3658 24.8445 40.0137 25.4342 39.3643 25.6113C38.7051 25.7913 37.7779 25.4637 37.4303 24.6209C37.4132 24.5795 37.3975 24.5369 37.3832 24.4939C37.2065 24.8291 37.0248 25.3245 36.8939 26.0495C41.5495 26.247 45.2854 30.1045 45.2854 34.8072C45.2854 39.6355 41.3474 43.5735 36.5191 43.5735C31.6908 43.5735 27.7529 39.6355 27.7529 34.8072ZM38.4415 24.2036C38.5623 24.4966 38.8926 24.6066 39.0765 24.5561C39.1247 24.5433 39.2147 24.5185 39.1783 24.2635C39.1647 24.1679 39.1114 23.9852 38.9078 23.8324C38.751 23.7149 38.5636 23.6674 38.3725 23.684C38.3598 23.9442 38.4028 24.1102 38.4415 24.2036H38.4415ZM39.1522 35.0453C39.1637 35.1818 39.226 35.309 39.3268 35.4017C39.4275 35.4944 39.5594 35.546 39.6964 35.5462C39.7119 35.5462 39.7274 35.5454 39.7433 35.5439C39.8149 35.5379 39.8845 35.5178 39.9483 35.4849C40.0121 35.4519 40.0688 35.4067 40.1151 35.3519C40.1614 35.297 40.1964 35.2335 40.2181 35.1651C40.2399 35.0967 40.248 35.0247 40.2419 34.9531C40.2322 34.844 40.2533 34.7343 40.3027 34.6364C40.352 34.5385 40.4277 34.4564 40.5212 34.3992C40.6144 34.3414 40.7218 34.3108 40.8315 34.3108C40.9411 34.3108 41.0485 34.3414 41.1417 34.3992C41.2352 34.4564 41.3109 34.5386 41.3602 34.6364C41.4096 34.7343 41.4306 34.844 41.4211 34.9531C41.415 35.0247 41.423 35.0967 41.4448 35.1651C41.4665 35.2336 41.5016 35.297 41.5479 35.3519C41.5942 35.4068 41.6509 35.452 41.7147 35.4849C41.7785 35.5179 41.8481 35.5379 41.9197 35.5439C41.9912 35.55 42.0633 35.542 42.1317 35.5202C42.2001 35.4984 42.2636 35.4634 42.3185 35.4171C42.3734 35.3708 42.4186 35.3141 42.4516 35.2503C42.4846 35.1865 42.5046 35.1169 42.5107 35.0453C42.565 34.4078 42.2601 33.8034 41.7151 33.4675C41.1701 33.132 40.493 33.132 39.9479 33.4675C39.4029 33.8034 39.0979 34.4078 39.1522 35.0453H39.1522ZM34.5242 36.735C34.5804 37.0075 34.6916 37.2657 34.8511 37.4937C35.0105 37.7217 35.2149 37.9147 35.4516 38.0609C35.781 38.2638 36.15 38.3652 36.5193 38.3652C36.8886 38.3652 37.2576 38.2638 37.5868 38.0609C37.8235 37.9147 38.0279 37.7217 38.1873 37.4937C38.3468 37.2657 38.458 37.0075 38.5142 36.735C38.5286 36.6647 38.529 36.5922 38.5154 36.5217C38.5017 36.4512 38.4744 36.3841 38.4348 36.3242C38.3952 36.2643 38.3442 36.2127 38.2847 36.1725C38.2252 36.1324 38.1584 36.1043 38.088 36.0899C37.7921 36.0289 37.5033 36.2199 37.4426 36.5158C37.4166 36.6419 37.3651 36.7615 37.2913 36.867C37.2175 36.9726 37.1229 37.0619 37.0133 37.1296C36.865 37.2217 36.6938 37.2705 36.5192 37.2705C36.3445 37.2705 36.1734 37.2217 36.025 37.1296C35.9154 37.0619 35.8208 36.9725 35.747 36.867C35.6732 36.7614 35.6218 36.6419 35.5958 36.5158C35.5814 36.4454 35.5532 36.3786 35.513 36.3192C35.4728 36.2597 35.4212 36.2087 35.3613 36.1692C35.3014 36.1296 35.2342 36.1023 35.1637 36.0887C35.0932 36.0751 35.0207 36.0755 34.9504 36.0899C34.88 36.1043 34.8132 36.1323 34.7537 36.1725C34.6942 36.2127 34.6432 36.2642 34.6036 36.3241C34.564 36.3841 34.5366 36.4512 34.523 36.5217C34.5094 36.5922 34.5098 36.6647 34.5242 36.735ZM30.5276 35.0453C30.5533 35.3462 30.8177 35.5702 31.1188 35.5439C31.1904 35.5379 31.26 35.5178 31.3238 35.4849C31.3876 35.4519 31.4443 35.4067 31.4906 35.3519C31.5369 35.297 31.5719 35.2336 31.5937 35.1651C31.6155 35.0967 31.6236 35.0247 31.6175 34.9531C31.6079 34.844 31.6289 34.7343 31.6783 34.6364C31.7276 34.5386 31.8033 34.4564 31.8968 34.3992C31.9899 34.3414 32.0974 34.3108 32.207 34.3108C32.3166 34.3108 32.4241 34.3414 32.5172 34.3992C32.6107 34.4564 32.6864 34.5385 32.7357 34.6364C32.7851 34.7343 32.8061 34.844 32.7964 34.9531C32.771 35.254 32.9941 35.5188 33.2951 35.5439C33.3108 35.5454 33.3265 35.5462 33.342 35.5462C33.479 35.546 33.6109 35.4945 33.7117 35.4017C33.8125 35.309 33.8748 35.1818 33.8864 35.0453C33.9404 34.4078 33.6356 33.8034 33.0906 33.4675C32.5456 33.132 31.8684 33.132 31.3233 33.4675C30.7784 33.8034 30.4737 34.4078 30.5276 35.0453Z" fill="#195AFF"/>
</svg>
