<svg width="81" height="80" viewBox="0 0 81 80" fill="none" xmlns="http://www.w3.org/2000/svg">
<rect x="0.333496" width="80" height="80" rx="40" fill="#FAFAFA"/>
<path d="M40.3335 40C35.896 40 32.3335 36.4375 32.3335 32C32.3335 27.625 35.896 24 40.3335 24C44.7085 24 48.3335 27.625 48.3335 32C48.3335 36.4375 44.7085 40 40.3335 40ZM32.8335 50.5C32.8335 49.6875 33.4585 49 34.3335 49C35.146 49 35.8335 49.6875 35.8335 50.5C35.8335 51.375 35.146 52 34.3335 52C33.4585 52 32.8335 51.375 32.8335 50.5ZM46.3335 42.0625C50.771 42.3125 54.3335 45.9375 54.3335 50.4375V53.25C54.3335 54.75 53.021 56 51.521 56H29.0835C27.5835 56 26.3335 54.75 26.3335 53.25V50.4375C26.3335 46.25 29.3335 42.8125 33.3335 42.1875V47.1875C31.896 47.625 30.8335 48.9375 30.8335 50.5625C30.8335 52.4375 32.396 54.0625 34.3335 54.0625C36.271 54.0625 37.8335 52.4375 37.8335 50.5625C37.8335 48.9375 36.771 47.625 35.3335 47.1875V42.125C35.771 42.1875 36.271 42.25 36.7085 42.4375C37.8335 42.8125 39.0835 43.0625 40.3335 43.0625C41.5835 43.0625 42.771 42.8125 43.896 42.4375C44.021 42.375 44.146 42.375 44.3335 42.3125V45.125C42.021 45.625 40.3335 47.625 40.3335 50V52.75C40.3335 53.25 40.7085 53.6875 41.146 53.75L43.146 54C43.396 54.0625 43.646 53.875 43.7085 53.625L43.896 52.625C43.9585 52.375 43.771 52.125 43.521 52.0625L42.3335 51.8125V50.125C42.3335 45.9375 48.3335 46.125 48.3335 50V51.8125L47.0835 52.0625C46.8335 52.125 46.646 52.375 46.7085 52.625L46.896 53.625C46.9585 53.875 47.2085 54.0625 47.4585 54L49.521 53.625C49.9585 53.5 50.3335 53.125 50.3335 52.625V50C50.3335 47.625 48.5835 45.5625 46.3335 45.125V42.0625Z" fill="#195AFF"/>
</svg>
