<svg width="80" height="80" viewBox="0 0 80 80" fill="none" xmlns="http://www.w3.org/2000/svg">
<rect width="80" height="80" rx="40" fill="#FAFAFA"/>
<g clip-path="url(#clip0_82_2293)">
<path d="M54.1398 21.1691C51.5539 19.2339 47.8742 19.7598 45.9375 22.3418C43.9992 24.9262 44.525 28.6066 47.1094 30.5449C47.5242 30.8566 47.8406 31.2598 48.0391 31.7168H47.0312C45.0927 31.7168 43.5156 30.1397 43.5156 28.2012H41.1719C41.1719 30.1159 42.0952 31.8188 43.5197 32.8887C42.0952 33.9585 41.1718 35.6615 41.1719 37.5762V43.6762C40.7891 43.6199 40.3977 43.5918 40 43.5918C39.6023 43.5918 39.2109 43.6199 38.8281 43.6762V37.5762C38.8281 35.6615 37.9048 33.9585 36.4803 32.8887C37.9048 31.8188 38.8281 30.1159 38.8281 28.2012H36.4844C36.4844 30.1397 34.9073 31.7168 32.9688 31.7168H31.9609C32.1594 31.2598 32.4758 30.8566 32.8914 30.5449C35.475 28.6066 36.0008 24.9262 34.0625 22.341C32.1258 19.7598 28.4461 19.2339 25.8586 21.1699C22.1352 23.9629 20 28.234 20 32.8887C20 37.5434 22.1352 41.8145 25.8586 44.6074L25.8594 44.6082C28.4477 46.5465 32.1266 46.0145 34.0625 43.4355C36.0008 40.8512 35.475 37.1707 32.8906 35.2324C32.4758 34.9207 32.1594 34.5176 31.9609 34.0605H32.9688C34.9073 34.0605 36.4844 35.6377 36.4844 37.5762V44.3848C33.7148 45.7027 31.7969 48.5293 31.7969 51.7949C31.7969 56.3184 35.4766 59.998 40 59.998C44.5234 59.998 48.2031 56.3184 48.2031 51.7949C48.2031 48.5293 46.2852 45.7027 43.5156 44.3848V37.5763C43.5156 35.6377 45.0927 34.0606 47.0312 34.0606H48.0391C47.8406 34.5177 47.5242 34.9208 47.1086 35.2325C44.525 37.1708 43.9992 40.8512 45.9375 43.4364C47.8719 46.013 51.5508 46.5481 54.1406 44.6083L54.1414 44.6075C57.8648 41.8145 60 37.5434 60 32.8888C60 28.2341 57.8648 23.9629 54.1398 21.1691ZM43.5156 52.9668H41.1719V55.3105H38.8281V52.9668H36.4844V50.623H38.8281V48.2793H41.1719V50.623H43.5156V52.9668Z" fill="#195AFF"/>
</g>
<defs>
<clipPath id="clip0_82_2293">
<rect width="40" height="40" fill="white" transform="translate(20 20)"/>
</clipPath>
</defs>
</svg>
