<svg width="335" height="120" viewBox="0 0 335 120" fill="none" xmlns="http://www.w3.org/2000/svg">
<path d="M0 16C0 7.16344 7.16344 0 16 0H319C327.837 0 335 7.16345 335 16V104C335 112.837 327.837 120 319 120H16C7.16345 120 0 112.837 0 104V16Z" fill="#EBF0FF"/>
<g clip-path="url(#clip0_270_2277)">
<rect width="152" height="62" transform="translate(92 29)" fill="#B0DFE0"/>
<path d="M96.4381 90.2235H93.0018C92.9647 90.2235 92.9461 90.2091 92.9461 90.1832V85.4492C92.9435 85.4282 92.9314 85.4084 92.912 85.3935C92.8926 85.3786 92.867 85.3693 92.8396 85.3672H92.1064C92.0787 85.3685 92.0526 85.3775 92.033 85.3926C92.0133 85.4077 92.0016 85.4279 92 85.4492V90.8295C92.0026 90.8506 92.0147 90.8703 92.0341 90.8852C92.0535 90.9002 92.0791 90.9095 92.1064 90.9114H96.4381C96.4657 90.91 96.4916 90.9008 96.5112 90.8858C96.5307 90.8707 96.5426 90.8507 96.5445 90.8295V90.3094C96.5438 90.2874 96.5325 90.2665 96.5128 90.2506C96.4931 90.2347 96.4665 90.2251 96.4381 90.2235Z" fill="white"/>
<path d="M98.7482 85.3692H98.0166C98.0026 85.3688 97.9885 85.3706 97.9754 85.3746C97.9622 85.3786 97.9503 85.3847 97.9403 85.3923C97.9304 85.4001 97.9225 85.4092 97.9174 85.4193C97.9122 85.4294 97.9097 85.4402 97.9102 85.4511V90.8314C97.91 90.8422 97.9126 90.853 97.9178 90.863C97.9231 90.873 97.931 90.8822 97.9409 90.8898C97.9508 90.8974 97.9626 90.9035 97.9757 90.9075C97.9887 90.9115 98.0026 90.9135 98.0166 90.9134H98.7482C98.7757 90.9119 98.8017 90.9027 98.8212 90.8877C98.8408 90.8726 98.8526 90.8527 98.8546 90.8314V85.4511C98.8526 85.4299 98.8408 85.4099 98.8212 85.3948C98.8017 85.3798 98.7757 85.3706 98.7482 85.3692Z" fill="white"/>
<path d="M105.277 85.3692H100.95C100.936 85.3688 100.922 85.3706 100.909 85.3746C100.896 85.3786 100.884 85.3847 100.874 85.3923C100.864 85.4001 100.856 85.4092 100.851 85.4193C100.846 85.4294 100.843 85.4402 100.844 85.4511V90.8314C100.844 90.8422 100.846 90.853 100.851 90.863C100.857 90.873 100.865 90.8822 100.874 90.8898C100.884 90.8974 100.896 90.9035 100.909 90.9075C100.922 90.9115 100.936 90.9135 100.95 90.9134H101.682C101.708 90.9113 101.731 90.9017 101.748 90.8864C101.765 90.871 101.773 90.8514 101.771 90.8314V88.5619C101.77 88.5546 101.771 88.5471 101.775 88.5401C101.778 88.5331 101.783 88.5268 101.79 88.5215C101.797 88.5163 101.805 88.5123 101.814 88.5099C101.823 88.5074 101.833 88.5065 101.842 88.5073H104.76C104.774 88.5077 104.788 88.5059 104.801 88.5019C104.814 88.4979 104.826 88.4918 104.836 88.4842C104.846 88.4764 104.854 88.4673 104.859 88.4572C104.864 88.4471 104.867 88.4363 104.866 88.4254V87.9156C104.867 87.9049 104.864 87.894 104.859 87.8841C104.853 87.874 104.846 87.865 104.836 87.8573C104.826 87.8496 104.814 87.8436 104.801 87.8395C104.788 87.8355 104.774 87.8334 104.76 87.8337H101.841C101.831 87.8345 101.821 87.8337 101.812 87.8312C101.803 87.8288 101.795 87.8248 101.788 87.8195C101.781 87.8143 101.776 87.8079 101.773 87.8009C101.77 87.7939 101.769 87.7864 101.77 87.7791V86.1C101.77 86.0715 101.807 86.0597 101.841 86.0597H105.275C105.288 86.0589 105.301 86.0561 105.312 86.0516C105.324 86.0471 105.334 86.0407 105.342 86.0331C105.35 86.0255 105.357 86.0167 105.361 86.0071C105.364 85.9977 105.366 85.9878 105.365 85.9778V85.4575C105.367 85.4473 105.367 85.4367 105.363 85.4265C105.36 85.4163 105.354 85.4068 105.346 85.3985C105.338 85.3901 105.327 85.3833 105.315 85.3782C105.304 85.3732 105.29 85.3701 105.277 85.3692Z" fill="white"/>
<path d="M111.364 85.3691H107.032C107.005 85.3704 106.978 85.3795 106.959 85.3946C106.939 85.4097 106.927 85.4299 106.926 85.4512V90.8315C106.928 90.8525 106.94 90.8722 106.96 90.8871C106.979 90.9021 107.005 90.9114 107.032 90.9134H111.362C111.376 90.9136 111.39 90.9116 111.403 90.9076C111.416 90.9034 111.428 90.8975 111.438 90.8899C111.448 90.8821 111.456 90.8731 111.461 90.863C111.466 90.8531 111.469 90.8423 111.469 90.8315V90.3112C111.469 90.3005 111.466 90.2898 111.461 90.2797C111.456 90.2697 111.448 90.2606 111.438 90.2529C111.428 90.2453 111.416 90.2393 111.403 90.2352C111.39 90.2311 111.376 90.2292 111.362 90.2293H107.946C107.89 90.2293 107.875 90.215 107.875 90.189V88.4983C107.875 88.4697 107.894 88.4579 107.946 88.4579H110.845C110.86 88.4592 110.874 88.4579 110.888 88.4543C110.901 88.4505 110.914 88.4446 110.924 88.4367C110.934 88.4288 110.942 88.4193 110.947 88.4088C110.952 88.3984 110.953 88.3871 110.952 88.376V87.8662C110.953 87.8552 110.952 87.844 110.947 87.8335C110.942 87.8229 110.934 87.8134 110.924 87.8055C110.914 87.7976 110.901 87.7917 110.888 87.7881C110.874 87.7843 110.86 87.783 110.845 87.7843H107.946C107.89 87.7843 107.875 87.77 107.875 87.7297V86.1066C107.875 86.078 107.894 86.0663 107.946 86.0663H111.364C111.378 86.0666 111.392 86.0647 111.405 86.0608C111.418 86.0568 111.43 86.0508 111.44 86.0431C111.45 86.0354 111.458 86.0262 111.463 86.0161C111.468 86.0061 111.471 85.9952 111.47 85.9844V85.4641C111.473 85.4523 111.472 85.4403 111.468 85.4288C111.463 85.4173 111.456 85.4066 111.446 85.3976C111.436 85.3885 111.423 85.3813 111.409 85.3764C111.395 85.3715 111.379 85.369 111.364 85.3691Z" fill="white"/>
<path d="M120.775 87.9711H118.467C118.453 87.9707 118.439 87.9726 118.425 87.9766C118.412 87.9806 118.4 87.9866 118.391 87.9943C118.381 88.0019 118.373 88.0111 118.367 88.0213C118.362 88.0314 118.36 88.0421 118.36 88.0531V88.5199C118.36 88.5308 118.363 88.5415 118.368 88.5516C118.373 88.5615 118.381 88.5707 118.391 88.5783C118.401 88.5859 118.413 88.592 118.426 88.596C118.439 88.6 118.453 88.6021 118.467 88.6018H119.861C119.916 88.6018 119.931 88.6161 119.931 88.6564C119.94 88.9487 119.892 89.2403 119.788 89.5213C119.684 89.7677 119.477 89.9801 119.197 90.1248C118.918 90.2693 118.584 90.3375 118.249 90.3186C117.904 90.3452 117.559 90.2767 117.273 90.1254C116.988 89.9742 116.782 89.7501 116.691 89.4928C116.499 88.5953 116.499 87.6798 116.691 86.7824C116.782 86.5253 116.989 86.3015 117.274 86.1503C117.559 85.9992 117.904 85.9305 118.249 85.9566C118.576 85.9408 118.902 86.0021 119.183 86.1321C119.465 86.2622 119.688 86.4549 119.823 86.6848C119.861 86.7395 119.913 86.7538 119.967 86.7251L120.611 86.4911C120.633 86.4793 120.65 86.4616 120.657 86.4412C120.664 86.4208 120.66 86.3992 120.648 86.3805C120.438 86.0332 120.097 85.7424 119.67 85.546C119.243 85.3496 118.749 85.2565 118.252 85.279C117.711 85.2466 117.172 85.3569 116.723 85.5918C116.274 85.8268 115.942 86.1724 115.782 86.5717C115.618 87.0818 115.559 87.6082 115.605 88.1324C115.561 88.6591 115.621 89.188 115.782 89.7009C115.941 90.1005 116.273 90.4466 116.722 90.6816C117.171 90.9166 117.711 91.0266 118.252 90.9936C118.791 91.0189 119.325 90.9046 119.769 90.6689C120.214 90.4331 120.543 90.0895 120.704 89.693C120.823 89.2915 120.883 88.8811 120.881 88.4691V88.0504C120.881 88.0397 120.879 88.0289 120.874 88.019C120.869 88.0091 120.861 88 120.851 87.9925C120.841 87.985 120.829 87.9792 120.816 87.9756C120.803 87.9719 120.789 87.9703 120.775 87.9711Z" fill="white"/>
<path d="M124.993 85.2861C124.455 85.2559 123.919 85.3674 123.474 85.6022C123.029 85.8371 122.7 86.1815 122.542 86.5789C122.359 87.0863 122.293 87.6145 122.346 88.1395C122.295 88.6672 122.361 89.1977 122.542 89.708C122.735 90.0874 123.072 90.4131 123.509 90.6428C123.946 90.8723 124.463 90.9953 124.992 90.9953C125.521 90.9953 126.038 90.8723 126.475 90.6428C126.912 90.4131 127.249 90.0874 127.441 89.708C127.678 88.6756 127.678 87.6191 127.441 86.5867C127.286 86.188 126.959 85.8417 126.514 85.6053C126.069 85.3688 125.533 85.2563 124.993 85.2861ZM126.514 89.496C126.426 89.7489 126.226 89.9702 125.948 90.1212C125.67 90.2722 125.333 90.3431 124.993 90.3218C124.652 90.3438 124.312 90.2734 124.031 90.1225C123.75 89.9718 123.546 89.7501 123.454 89.496C123.333 89.0489 123.285 88.5919 123.311 88.1357C123.284 87.6828 123.332 87.2292 123.454 86.7857C123.546 86.5318 123.75 86.3105 124.031 86.1598C124.312 86.0091 124.652 85.9384 124.993 85.9598C125.333 85.938 125.671 86.0088 125.949 86.1598C126.227 86.3108 126.427 86.5324 126.514 86.7857C126.658 87.2266 126.715 87.6816 126.683 88.1357C126.714 88.5929 126.658 89.0512 126.517 89.496H126.514Z" fill="white"/>
<path d="M131.976 85.453C131.966 85.4297 131.946 85.4095 131.921 85.3949C131.895 85.3801 131.864 85.3719 131.832 85.3711H131.156C131.067 85.3711 131.05 85.4114 131.013 85.453L128.524 90.8334C128.52 90.8423 128.519 90.852 128.52 90.8616C128.522 90.871 128.526 90.8802 128.533 90.8882C128.54 90.8961 128.549 90.9028 128.56 90.9074C128.571 90.9122 128.583 90.9149 128.595 90.9153H129.327C129.398 90.9153 129.433 90.8866 129.47 90.8334L130.025 89.6239H132.924L133.478 90.8334C133.485 90.858 133.503 90.8798 133.53 90.8949C133.556 90.9099 133.589 90.9171 133.621 90.9153H134.353C134.424 90.9153 134.459 90.8724 134.424 90.8334L131.976 85.453ZM130.327 88.9645L131.474 86.448H131.493L132.621 88.9645H130.327Z" fill="white"/>
<path d="M140.224 90.2253H136.789C136.752 90.2253 136.734 90.211 136.734 90.185V85.4511C136.731 85.43 136.719 85.4104 136.699 85.3954C136.68 85.3804 136.654 85.3711 136.627 85.3692H135.896C135.882 85.3688 135.867 85.3706 135.854 85.3746C135.841 85.3786 135.829 85.3847 135.819 85.3923C135.809 85.4001 135.802 85.4092 135.796 85.4193C135.791 85.4294 135.789 85.4402 135.789 85.4511V90.8314C135.789 90.8422 135.792 90.853 135.797 90.863C135.802 90.873 135.81 90.8822 135.82 90.8898C135.83 90.8974 135.842 90.9035 135.855 90.9075C135.868 90.9115 135.882 90.9135 135.896 90.9134H140.226C140.253 90.9119 140.279 90.9027 140.299 90.8877C140.318 90.8726 140.33 90.8527 140.332 90.8314V90.3112C140.331 90.289 140.32 90.268 140.3 90.2521C140.28 90.2362 140.253 90.2266 140.224 90.2253Z" fill="white"/>
<path d="M144.374 87.7762L144.036 87.7476C142.926 87.6253 142.516 87.321 142.516 86.8542C142.516 86.3339 143.001 85.9606 143.878 85.9606C144.496 85.9629 145.1 86.1063 145.613 86.3729C145.625 86.381 145.639 86.3872 145.654 86.391C145.669 86.3946 145.685 86.3959 145.701 86.3945C145.717 86.3932 145.732 86.3893 145.746 86.3831C145.76 86.3769 145.772 86.3687 145.781 86.3586L146.14 85.9061C146.177 85.8774 146.158 85.8371 146.121 85.7955C145.472 85.4593 144.707 85.2816 143.925 85.2857C143.628 85.2573 143.327 85.2784 143.042 85.3473C142.757 85.4164 142.494 85.5317 142.272 85.6856C142.049 85.8395 141.872 86.0283 141.753 86.2394C141.634 86.4503 141.575 86.6786 141.58 86.9088C141.58 87.7736 142.298 88.2834 143.692 88.4343L144.05 88.4772C145.214 88.5877 145.552 88.9038 145.552 89.3706C145.552 89.9338 144.96 90.3188 143.977 90.3188C143.24 90.306 142.528 90.1083 141.95 89.7557C141.894 89.7154 141.843 89.7154 141.806 89.7557L141.34 90.1822C141.322 90.1996 141.312 90.2212 141.312 90.2434C141.312 90.2655 141.322 90.287 141.34 90.3045C142.057 90.7509 142.952 90.9942 143.874 90.9937C145.609 90.9937 146.484 90.294 146.484 89.3277C146.486 88.4199 145.787 87.927 144.374 87.7762Z" fill="white"/>
<path d="M148.921 90.0454H148.115C148.1 90.0441 148.086 90.0454 148.072 90.0492C148.059 90.0528 148.046 90.0588 148.036 90.0667C148.026 90.0745 148.018 90.084 148.013 90.0946C148.009 90.1051 148.007 90.1163 148.008 90.1273V90.827C148.008 90.8673 148.046 90.896 148.115 90.896H148.921C148.947 90.8974 148.972 90.8911 148.992 90.8781C149.012 90.8652 149.025 90.8469 149.027 90.827V90.1273C149.027 90.1166 149.025 90.1059 149.02 90.0958C149.014 90.0857 149.006 90.0767 148.997 90.069C148.987 90.0614 148.975 90.0554 148.962 90.0512C148.949 90.0472 148.935 90.0453 148.921 90.0454Z" fill="white"/>
<path d="M155.907 85.3681H153.493C153.479 85.3677 153.465 85.3697 153.452 85.3737C153.439 85.3777 153.427 85.3836 153.417 85.3914C153.407 85.399 153.399 85.4081 153.394 85.4183C153.389 85.4284 153.386 85.4391 153.387 85.45V90.8304C153.387 90.8707 153.424 90.8993 153.493 90.8993H155.907C156.414 90.9459 156.926 90.8543 157.355 90.6406C157.783 90.4267 158.101 90.1041 158.252 89.7288C158.514 88.6784 158.514 87.5995 158.252 86.5491C158.101 86.1728 157.784 85.8489 157.356 85.6333C156.928 85.4177 156.416 85.3239 155.907 85.3681ZM157.357 89.4675C157.24 89.7214 157.012 89.9361 156.711 90.0743C156.411 90.2125 156.057 90.2656 155.711 90.2244H154.387C154.35 90.2244 154.316 90.21 154.316 90.1841V86.0991C154.316 86.0704 154.353 86.0588 154.387 86.0588H155.711C156.057 86.017 156.411 86.0699 156.712 86.2082C157.013 86.3464 157.241 86.5613 157.357 86.8157C157.497 87.2472 157.545 87.6935 157.5 88.1369C157.55 88.5833 157.503 89.0328 157.362 89.4675H157.357Z" fill="white"/>
<path d="M162.566 85.2859C162.028 85.2578 161.493 85.37 161.049 85.6046C160.604 85.8391 160.275 86.1823 160.114 86.5786C159.951 87.0886 159.891 87.6152 159.937 88.1392C159.893 88.666 159.953 89.1948 160.114 89.7077C160.307 90.087 160.644 90.4128 161.081 90.6425C161.518 90.8721 162.035 90.995 162.564 90.995C163.093 90.995 163.61 90.8721 164.047 90.6425C164.484 90.4128 164.821 90.087 165.014 89.7077C165.275 88.6769 165.275 87.6171 165.014 86.5864C164.858 86.1878 164.531 85.8417 164.086 85.6052C163.641 85.3688 163.105 85.2562 162.566 85.2859ZM164.105 89.4957C164.013 89.7497 163.809 89.9709 163.528 90.1217C163.247 90.2724 162.907 90.3431 162.566 90.3216C162.227 90.3434 161.888 90.2727 161.61 90.1217C161.332 89.9705 161.132 89.749 161.045 89.4957C160.901 89.0513 160.844 88.5927 160.876 88.1353C160.843 87.6814 160.9 87.2261 161.045 86.7854C161.133 86.5324 161.333 86.3111 161.611 86.1601C161.889 86.0093 162.227 85.9382 162.566 85.9595C162.907 85.9373 163.248 86.0077 163.529 86.1586C163.81 86.3094 164.014 86.5311 164.105 86.7854C164.238 87.2277 164.295 87.6816 164.274 88.1353C164.297 88.5926 164.241 89.0502 164.105 89.4957Z" fill="white"/>
<path d="M171.979 85.3692H171.317C171.302 85.3688 171.288 85.3708 171.275 85.3748C171.262 85.3787 171.25 85.3847 171.24 85.3925C171.23 85.4001 171.222 85.4093 171.217 85.4193C171.212 85.4296 171.21 85.4403 171.21 85.4511V89.6129H171.173L167.916 85.4511C167.895 85.4258 167.866 85.4049 167.832 85.3905C167.797 85.3762 167.759 85.3688 167.72 85.3692H167.057C167.043 85.3687 167.029 85.3704 167.016 85.3743C167.002 85.3783 166.99 85.3842 166.98 85.392C166.97 85.3996 166.962 85.4089 166.957 85.4191C166.951 85.4293 166.949 85.4401 166.949 85.4511V90.8316C166.949 90.8424 166.952 90.8533 166.957 90.8633C166.962 90.8735 166.97 90.8827 166.981 90.8903C166.991 90.898 167.003 90.904 167.016 90.908C167.029 90.9119 167.043 90.9138 167.057 90.9134H167.72C167.747 90.9119 167.773 90.9029 167.793 90.8877C167.812 90.8728 167.824 90.8527 167.826 90.8316V86.6958H167.863L171.12 90.838C171.139 90.8617 171.165 90.8815 171.196 90.8958C171.227 90.9101 171.262 90.9184 171.298 90.9199H171.974C171.988 90.9203 172.002 90.9185 172.015 90.9145C172.028 90.9105 172.04 90.9045 172.05 90.8968C172.061 90.8892 172.069 90.88 172.074 90.8699C172.079 90.8597 172.082 90.8489 172.082 90.838V85.4577C172.083 85.4465 172.082 85.4352 172.078 85.4245C172.073 85.4138 172.066 85.404 172.056 85.3956C172.046 85.3872 172.034 85.3806 172.021 85.3761C172.008 85.3714 171.993 85.3691 171.979 85.3692Z" fill="white"/>
<path d="M178.51 85.3691H174.173C174.145 85.3704 174.119 85.3795 174.099 85.3946C174.08 85.4097 174.068 85.4299 174.066 85.4512V90.8315C174.069 90.8525 174.081 90.8722 174.1 90.8871C174.12 90.9021 174.146 90.9114 174.173 90.9134H178.503C178.53 90.9118 178.556 90.9028 178.576 90.8877C178.595 90.8727 178.607 90.8527 178.609 90.8315V90.3112C178.607 90.2901 178.595 90.2705 178.575 90.2555C178.556 90.2407 178.53 90.2314 178.503 90.2293H175.068C175.031 90.2293 175.012 90.215 175.012 90.189V88.4983C175.012 88.4697 175.031 88.4579 175.068 88.4579H177.986C178 88.4583 178.014 88.4565 178.027 88.4525C178.04 88.4485 178.052 88.4424 178.062 88.4348C178.072 88.4272 178.08 88.4179 178.085 88.4078C178.09 88.3977 178.093 88.3869 178.092 88.376V87.8662C178.093 87.8553 178.09 87.8446 178.085 87.8347C178.079 87.8246 178.072 87.8156 178.062 87.8079C178.052 87.8002 178.04 87.7942 178.027 87.7901C178.014 87.7861 178 87.7842 177.986 87.7843H175.068C175.031 87.7843 175.012 87.77 175.012 87.7297V86.1066C175.012 86.078 175.031 86.0663 175.068 86.0663H178.503C178.531 86.0651 178.557 86.0561 178.576 86.0409C178.596 86.0258 178.608 86.0057 178.609 85.9844V85.4641C178.611 85.4415 178.602 85.4193 178.584 85.4016C178.565 85.384 178.539 85.3724 178.51 85.3691Z" fill="white"/>
<path d="M180.998 90.045H180.187C180.132 90.045 180.098 90.0737 180.098 90.127V90.8267C180.097 90.8359 180.099 90.8449 180.104 90.8535C180.108 90.862 180.114 90.8697 180.123 90.8762C180.131 90.8827 180.141 90.8878 180.152 90.8912C180.164 90.8944 180.175 90.896 180.187 90.8956H180.993C181.064 90.8956 181.1 90.867 181.1 90.8267V90.127C181.101 90.1163 181.1 90.1055 181.095 90.0953C181.091 90.0851 181.083 90.0758 181.074 90.068C181.064 90.0601 181.052 90.0541 181.039 90.0501C181.026 90.0462 181.012 90.0445 180.998 90.045Z" fill="white"/>
<path d="M243.998 53.4538C244.001 51.9553 243.425 50.4896 242.345 49.2426C241.265 47.9956 239.729 47.0231 237.931 46.4484C236.133 45.8737 234.154 45.7223 232.245 46.0136C230.335 46.3049 228.58 47.0256 227.203 48.0848C225.826 49.1439 224.887 50.4937 224.506 51.9635C224.126 53.4333 224.32 54.957 225.064 56.3418C225.809 57.7265 227.07 58.9102 228.689 59.7431C230.307 60.576 232.21 61.0204 234.157 61.0204C235.458 61.047 236.752 60.8696 237.961 60.4988C239.17 60.1281 240.268 59.5719 241.189 58.8641C242.109 58.1563 242.833 57.3115 243.316 56.3814C243.799 55.4513 244.031 54.4553 243.998 53.4538ZM242.334 53.4538C242.316 54.6938 241.822 55.9021 240.914 56.9265C240.007 57.9509 238.725 58.7458 237.232 59.2111C235.739 59.6764 234.101 59.7914 232.523 59.5416C230.945 59.2918 229.498 58.6883 228.365 57.8071C227.231 56.926 226.462 55.8064 226.153 54.5893C225.844 53.3723 226.009 52.1121 226.629 50.9673C227.248 49.8224 228.293 48.8441 229.633 48.1554C230.972 47.4668 232.546 47.0985 234.157 47.0969C235.246 47.0739 236.329 47.2231 237.34 47.5352C238.351 47.8474 239.268 48.3158 240.035 48.9117C240.801 49.5074 241.401 50.218 241.796 50.9993C242.192 51.7806 242.375 52.6159 242.334 53.4538ZM231.491 57.6897V50.3027H229.802C228.977 50.3027 228.655 50.5355 228.655 51.1961V57.6897H231.491ZM236.838 57.6897H239.65V51.1936C239.65 50.5329 239.329 50.3001 238.502 50.3001H236.838V57.6897ZM235.588 57.6897V49.3403C235.588 48.6796 235.267 48.4612 234.422 48.4612H231.888V49.3832H232.057C232.63 49.3832 232.757 49.4937 232.757 50.0335V57.6976H235.6L235.588 57.6897Z" fill="white"/>
<path d="M168.383 57.6885L169.315 55.3086H172.964L173.823 57.6885H177.222L173.861 48.6211C173.802 48.3837 173.629 48.172 173.377 48.0277C173.125 47.8833 172.812 47.8166 172.5 47.8408H167.722V48.6965H168.114C168.621 48.6965 168.883 48.8474 168.883 49.1374C168.859 49.4124 168.774 49.6821 168.631 49.9347L165.266 57.695H168.386L168.383 57.6885ZM172.498 53.6998H169.795L171.245 50.0816L172.498 53.6998Z" fill="white"/>
<path d="M191.445 57.688V51.0553C191.456 50.9549 191.439 50.8539 191.395 50.7591C191.35 50.6643 191.28 50.578 191.188 50.5061C191.097 50.4341 190.986 50.3784 190.864 50.3425C190.742 50.3066 190.611 50.2916 190.48 50.2984H187.562V51.1385H187.74C188.225 51.1385 188.439 51.318 188.439 51.7016V57.6841L191.445 57.688ZM191.501 48.7325C191.501 48.0718 190.875 47.6738 189.765 47.6738C188.693 47.6738 188.049 48.0718 188.049 48.7325C188.049 49.3932 188.693 49.8055 189.765 49.8055C190.872 49.8055 191.501 49.4075 191.501 48.7325Z" fill="white"/>
<path d="M193.986 52.418C194.912 52.0662 195.924 51.8695 196.956 51.8406C197.762 51.8406 198.047 52.0604 198.047 52.7055V52.8693C196.812 53.0201 196.439 53.0748 195.74 53.1997C195.355 53.2683 194.977 53.3605 194.611 53.4753C194.039 53.6381 193.552 53.9422 193.229 54.3405C192.905 54.7387 192.762 55.2083 192.822 55.6759C192.822 57.0792 193.609 57.7684 195.236 57.7684C195.792 57.7666 196.343 57.6877 196.863 57.5357C197.325 57.36 197.757 57.1416 198.151 56.8853V56.9959C198.134 57.0894 198.146 57.1846 198.185 57.274C198.224 57.3634 198.29 57.4446 198.376 57.5114C198.463 57.578 198.569 57.6285 198.685 57.6586C198.801 57.6887 198.924 57.6979 199.046 57.6852H201.801V56.888H201.658C201.141 56.888 200.94 56.7085 200.94 56.2377V52.7197C200.94 50.8496 200.095 50.2031 197.667 50.2031C196.89 50.2024 196.116 50.2713 195.36 50.4086C194.644 50.5254 193.956 50.725 193.319 51.0005L193.986 52.418ZM198.041 54.1373V55.581C197.626 55.9465 197.042 56.1732 196.414 56.213C195.878 56.213 195.682 56.0075 195.682 55.4561C195.682 54.9047 195.851 54.6589 196.382 54.508C196.915 54.3352 197.47 54.2108 198.041 54.1373Z" fill="white"/>
<path d="M220.469 56.1461H216.283L220.292 51.8243V50.2988H214.031C213.313 50.2988 212.976 50.5459 212.976 51.096V52.4447H214.105V52.3081C214.105 51.9777 214.338 51.8127 214.804 51.8127H216.967L212.926 56.1746V57.6885H220.477V56.1461H220.469Z" fill="white"/>
<path d="M206.173 57.6877V52.6989C206.367 52.5092 206.614 52.3553 206.895 52.2484C207.177 52.1416 207.486 52.0845 207.799 52.0811C208.425 52.0811 208.587 52.2749 208.587 53.0176V57.6995H211.575V52.6664C211.575 51.4959 211.469 51.1266 210.984 50.7389C210.748 50.5586 210.464 50.4189 210.153 50.3292C209.841 50.2395 209.508 50.2019 209.176 50.2188C208.588 50.2172 208.006 50.3122 207.469 50.4971C206.933 50.6821 206.453 50.953 206.063 51.2916V51.0043C206.08 50.9078 206.067 50.8095 206.026 50.7174C205.984 50.6253 205.916 50.5418 205.825 50.4739C205.734 50.4058 205.624 50.3552 205.504 50.3257C205.383 50.2964 205.255 50.2891 205.13 50.3046H202.285V51.1382H202.463C202.969 51.1382 203.181 51.3177 203.181 51.7014V57.6839L206.173 57.6877Z" fill="white"/>
<path d="M186.24 57.687V48.5936C186.255 48.4928 186.24 48.3907 186.196 48.2949C186.153 48.199 186.083 48.1117 185.991 48.0394C185.898 47.9669 185.786 47.9112 185.663 47.8761C185.539 47.8411 185.407 47.8277 185.276 47.8367H182.324V48.695H182.502C183.019 48.695 183.22 48.8602 183.22 49.2439V57.6896L186.24 57.687Z" fill="white"/>
<path d="M181.1 57.6882V48.5948C181.115 48.495 181.101 48.3942 181.059 48.2991C181.017 48.204 180.948 48.1172 180.858 48.0449C180.768 47.9726 180.658 47.9165 180.536 47.8807C180.414 47.845 180.284 47.8304 180.154 47.8378H177.184V48.6963H177.38C177.886 48.6963 178.097 48.8614 178.097 49.2451V57.6908L181.1 57.6882Z" fill="white"/>
<path d="M155.428 29H92V77.8302H155.428V29Z" fill="white"/>
<path fill-rule="evenodd" clip-rule="evenodd" d="M95.2812 75.2878V68.7852H102.825C104.382 68.7852 106.879 68.9451 106.879 70.4902C106.825 70.8655 106.609 71.2161 106.266 71.486C105.922 71.7559 105.472 71.9296 104.985 71.9792C106.246 72.2693 106.879 72.8051 106.879 73.5399C106.879 75.1343 104.497 75.2878 102.825 75.293L95.2812 75.2878ZM98.0502 72.5488L98.8527 71.5527C98.9533 71.4404 99.0875 71.3486 99.2439 71.2848C99.4003 71.221 99.5744 71.187 99.7514 71.1858H102.828C103.379 71.1858 103.826 70.9947 103.826 70.6657C103.826 70.3367 103.382 70.1455 102.828 70.1455H98.0502V72.5488ZM98.0502 72.5488V75.2878L98.8527 74.2889C98.9533 74.1768 99.0875 74.085 99.2439 74.0211C99.4003 73.9572 99.5744 73.9234 99.7514 73.9222H102.792C102.92 73.9365 103.051 73.9293 103.174 73.9014C103.298 73.8735 103.413 73.8254 103.511 73.7603C103.608 73.6952 103.687 73.6147 103.74 73.5243C103.794 73.4339 103.822 73.3356 103.822 73.2362C103.822 73.1368 103.794 73.0385 103.74 72.9481C103.687 72.8577 103.608 72.7772 103.511 72.7121C103.413 72.647 103.298 72.5989 103.174 72.5709C103.051 72.543 102.92 72.5359 102.792 72.5502L98.0502 72.5488ZM113.574 70.3483L109.836 75.2904H106.582L111.795 68.7877H115.36L120.57 75.2904H117.313L116.436 74.1316H111.614L112.414 73.1328C112.514 73.0204 112.648 72.9283 112.805 72.8645C112.961 72.8007 113.135 72.7668 113.312 72.7661H115.402L113.574 70.3483ZM136.212 70.3483L132.474 75.2904H129.222L134.432 68.7877H137.997L143.203 75.2904H139.953L139.076 74.1316H134.254L135.057 73.1328C135.156 73.0204 135.29 72.9284 135.446 72.8645C135.602 72.8006 135.776 72.7668 135.952 72.7661H138.045L136.212 70.3483ZM125.596 73.921C126.225 73.921 126.735 73.6869 126.735 73.2148V68.7852H129.509V73.4137C129.509 74.817 128.293 75.2891 126.698 75.2891H122.092C121.916 75.2878 121.742 75.2538 121.586 75.1899C121.431 75.1261 121.297 75.0344 121.197 74.9224L120.394 73.921H125.596ZM148.234 73.921C148.863 73.921 149.376 73.6869 149.376 73.2148V68.7852H152.142V73.4137C152.142 74.817 150.926 75.2891 149.331 75.2891H144.719C144.542 75.2878 144.369 75.2538 144.213 75.1899C144.057 75.1261 143.923 75.0344 143.823 74.9224L143.021 73.921H148.234Z" fill="#265CA7"/>
<path d="M129.865 53.2874C130.889 53.0993 131.805 52.6578 132.471 52.0305C133.138 51.4033 133.519 50.6249 133.556 49.8149C133.556 46.2112 128.675 45.8379 125.64 45.8379H113.871V60.9919H117.986V49.0464H130.235L128.883 51.07C128.761 51.2254 128.582 51.3494 128.368 51.4264C128.154 51.5035 127.915 51.5301 127.682 51.5031H123.205C122.749 51.5443 122.331 51.7214 122.042 51.9967C121.754 52.2718 121.616 52.6231 121.659 52.9753V56.1578C121.659 56.1578 121.784 54.917 123.143 54.8169L129.133 54.7974L127.846 56.7365C127.743 56.8969 127.582 57.0311 127.383 57.1233C127.184 57.2155 126.955 57.2618 126.723 57.2567L123.124 57.2905C123.124 57.2905 121.892 57.3048 121.652 58.5625V60.9827H125.64C128.924 60.9711 133.556 60.616 133.556 56.9004C133.559 56.0662 133.196 55.2557 132.526 54.6C131.856 53.9443 130.919 53.4818 129.865 53.2874Z" fill="#265CA7"/>
</g>
<defs>
<clipPath id="clip0_270_2277">
<rect width="152" height="62" fill="white" transform="translate(92 29)"/>
</clipPath>
</defs>
</svg>
