<svg width="64" height="64" viewBox="0 0 64 64" fill="none" xmlns="http://www.w3.org/2000/svg">
<rect width="64" height="64" rx="32" fill="#FAFAFA"/>
<path d="M19.3333 38.6663C18.7833 38.6663 18.3126 38.4705 17.921 38.0787C17.5292 37.6871 17.3333 37.2163 17.3333 36.6663V27.333C17.3333 27.0497 17.4298 26.8121 17.6227 26.6203C17.8153 26.4288 18.0542 26.333 18.3393 26.333C18.6242 26.333 18.8611 26.4288 19.05 26.6203C19.2389 26.8121 19.3333 27.0497 19.3333 27.333V36.6663H31.1V28.333C31.1 27.783 31.2959 27.3121 31.6877 26.9203C32.0792 26.5288 32.55 26.333 33.1 26.333H41.8333C43.1625 26.333 44.3003 26.8062 45.247 27.7527C46.1935 28.6993 46.6667 29.8372 46.6667 31.1663V36.6663C46.6667 37.2163 46.4709 37.6871 46.0793 38.0787C45.6875 38.4705 45.2167 38.6663 44.6667 38.6663H19.3333ZM25 34.6997C26 34.6997 26.8389 34.3608 27.5167 33.683C28.1945 33.0052 28.5333 32.1663 28.5333 31.1663C28.5333 30.1663 28.1945 29.3275 27.5167 28.6497C26.8389 27.9719 26 27.633 25 27.633C24 27.633 23.1611 27.9719 22.4833 28.6497C21.8056 29.3275 21.4667 30.1663 21.4667 31.1663C21.4667 32.1663 21.8056 33.0052 22.4833 33.683C23.1611 34.3608 24 34.6997 25 34.6997Z" fill="#195AFF"/>
</svg>
