<svg width="65" height="64" viewBox="0 0 65 64" fill="none" xmlns="http://www.w3.org/2000/svg">
<rect x="0.333374" width="64" height="64" rx="32" fill="#FAFAFA"/>
<path d="M37.8334 20C40.0556 20 41.9167 20.8222 43.4167 22.4667C44.9167 24.1111 45.6667 26.0667 45.6667 28.3333C45.6667 28.7333 45.6445 29.1278 45.6 29.5167C45.5556 29.9055 45.4778 30.2889 45.3667 30.6667H37.0334L34.7667 27.2667C34.6556 27.0889 34.5 26.9445 34.3 26.8333C34.1 26.7222 33.8889 26.6667 33.6667 26.6667C33.3778 26.6667 33.1167 26.7555 32.8834 26.9333C32.65 27.1111 32.4889 27.3333 32.4 27.6L30.6 33L29.4334 31.2667C29.3222 31.0889 29.1667 30.9445 28.9667 30.8333C28.7667 30.7222 28.5556 30.6667 28.3334 30.6667H19.3C19.1889 30.2889 19.1111 29.9055 19.0667 29.5167C19.0223 29.1278 19 28.7445 19 28.3667C19 26.0778 19.7445 24.1111 21.2334 22.4667C22.7223 20.8222 24.5778 20 26.8 20C27.8667 20 28.8722 20.2111 29.8167 20.6333C30.7612 21.0556 31.6 21.6444 32.3334 22.4C33.0445 21.6444 33.8722 21.0556 34.8167 20.6333C35.7612 20.2111 36.7667 20 37.8334 20ZM32.3334 44C31.9334 44 31.55 43.9278 31.1834 43.7833C30.8167 43.6389 30.4889 43.4222 30.2 43.1333L21.2667 34.1667C21.1334 34.0333 21.0111 33.9 20.9 33.7667C20.7889 33.6333 20.6778 33.4889 20.5667 33.3333H27.6L29.8667 36.7333C29.9778 36.9111 30.1334 37.0555 30.3334 37.1667C30.5334 37.2778 30.7445 37.3333 30.9667 37.3333C31.2556 37.3333 31.5222 37.2445 31.7667 37.0667C32.0112 36.8889 32.1778 36.6667 32.2667 36.4L34.0667 31L35.2 32.7333C35.3334 32.9111 35.5 33.0555 35.7 33.1667C35.9 33.2778 36.1112 33.3333 36.3334 33.3333H44.0667L43.7334 33.7333L43.4 34.1333L34.4334 43.1333C34.1445 43.4222 33.8222 43.6389 33.4667 43.7833C33.1112 43.9278 32.7334 44 32.3334 44Z" fill="#195AFF"/>
</svg>
