<svg width="65" height="64" viewBox="0 0 65 64" fill="none" xmlns="http://www.w3.org/2000/svg">
<rect x="0.666992" width="64" height="64" rx="32" fill="#FAFAFA"/>
<path d="M27.3337 38.6667C25.1337 38.6667 23.2504 37.9278 21.6837 36.45C20.1171 34.9722 19.3337 33.1555 19.3337 31V27.6667C19.3337 25.5111 20.1171 23.6945 21.6837 22.2167C23.2504 20.7389 25.1337 20 27.3337 20C28.3559 20 29.2226 20.3556 29.9337 21.0667C30.6449 21.7778 31.0004 22.6444 31.0004 23.6667C31.0004 24.6889 30.6449 25.5555 29.9337 26.2667C29.2226 26.9778 28.3559 27.3333 27.3337 27.3333V31.3333C28.3559 31.3333 29.2226 31.6889 29.9337 32.4C30.6449 33.1111 31.0004 33.9778 31.0004 35V43C31.0004 43.2889 30.9059 43.5278 30.7171 43.7167C30.5282 43.9055 30.2893 44 30.0004 44C29.7115 44 29.4726 43.9055 29.2837 43.7167C29.0949 43.5278 29.0004 43.2889 29.0004 43V38.2667C28.7559 38.4 28.4893 38.5 28.2004 38.5667C27.9115 38.6333 27.6226 38.6667 27.3337 38.6667ZM38.0004 38.6667C37.7115 38.6667 37.4226 38.6333 37.1337 38.5667C36.8449 38.5 36.5782 38.4 36.3337 38.2667V43C36.3337 43.2889 36.2393 43.5278 36.0504 43.7167C35.8615 43.9055 35.6226 44 35.3337 44C35.0449 44 34.8059 43.9055 34.6171 43.7167C34.4282 43.5278 34.3337 43.2889 34.3337 43V35C34.3337 33.9778 34.6893 33.1111 35.4004 32.4C36.1115 31.6889 36.9782 31.3333 38.0004 31.3333V27.3333C36.9782 27.3333 36.1115 26.9778 35.4004 26.2667C34.6893 25.5555 34.3337 24.6889 34.3337 23.6667C34.3337 22.6444 34.6893 21.7778 35.4004 21.0667C36.1115 20.3556 36.9782 20 38.0004 20C40.2004 20 42.0837 20.7389 43.6504 22.2167C45.2171 23.6945 46.0004 25.5111 46.0004 27.6667V31C46.0004 33.1555 45.2171 34.9722 43.6504 36.45C42.0837 37.9278 40.2004 38.6667 38.0004 38.6667Z" fill="#195AFF"/>
</svg>
