<svg width="65" height="64" viewBox="0 0 65 64" fill="none" xmlns="http://www.w3.org/2000/svg">
<rect x="0.333008" width="64" height="64" rx="32" fill="#FAFAFA"/>
<path d="M22.067 44C21.1386 44 20.4787 43.5667 20.0874 42.7C19.696 41.8333 19.8226 41.0445 20.467 40.3333L28.7337 31V22H27.0004C26.717 22 26.4796 21.9036 26.288 21.7107C26.0963 21.518 26.0004 21.2791 26.0004 20.994C26.0004 20.7091 26.0963 20.4722 26.288 20.2833C26.4796 20.0944 26.717 20 27.0004 20H37.667C37.9504 20 38.188 20.0964 38.3797 20.2893C38.5713 20.482 38.667 20.7209 38.667 21.006C38.667 21.2909 38.5713 21.5278 38.3797 21.7167C38.188 21.9056 37.9504 22 37.667 22H35.9337V31L44.2004 40.3333C44.8448 41.0445 44.9714 41.8333 44.58 42.7C44.1887 43.5667 43.5288 44 42.6004 44H22.067Z" fill="#195AFF"/>
</svg>
