<svg width="64" height="64" viewBox="0 0 64 64" fill="none" xmlns="http://www.w3.org/2000/svg">
<rect width="64" height="64" rx="32" fill="#FAFAFA"/>
<path d="M32 18.667C33.1334 18.667 34.0834 19.0503 34.85 19.817C35.6167 20.5837 36 21.5337 36 22.667C36 23.8003 35.6167 24.7503 34.85 25.517C34.0834 26.2837 33.1334 26.667 32 26.667C30.8667 26.667 29.9167 26.2837 29.15 25.517C28.3834 24.7503 28 23.8003 28 22.667C28 21.5337 28.3834 20.5837 29.15 19.817C29.9167 19.0503 30.8667 18.667 32 18.667ZM32 28.0003C33.0222 28.0003 34.0445 28.1337 35.0667 28.4003C36.0889 28.667 37.0112 29.0225 37.8334 29.467C38.6778 29.9115 39.3612 30.4281 39.8834 31.017C40.4056 31.6059 40.6667 32.2337 40.6667 32.9003V40.6003C40.6667 41.4225 40.4056 42.1337 39.8834 42.7337C39.3612 43.3337 38.7 43.6337 37.9 43.6337C37.6778 43.6337 37.4889 43.5559 37.3334 43.4003C37.1778 43.2448 37.1 42.9559 37.1 42.5337V41.3003C37.1 40.4559 36.5389 39.7837 35.4167 39.2837C34.2945 38.7837 33.1556 38.5337 32 38.5337C31.0445 38.5337 30.1112 38.6892 29.2 39.0003C28.2889 39.3115 27.6112 39.7225 27.1667 40.2337C27.0334 40.4115 27 40.6003 27.0667 40.8003C27.1334 41.0003 27.2778 41.1448 27.5 41.2337C28.2112 41.4781 28.9556 41.6448 29.7334 41.7337C30.5112 41.8225 31.3 41.8781 32.1 41.9003C32.5889 41.9003 33 42.067 33.3334 42.4003C33.6667 42.7337 33.8334 43.1448 33.8334 43.6337C33.8334 44.1225 33.6667 44.5337 33.3334 44.867C33 45.2003 32.5889 45.367 32.1 45.367C31.3222 45.367 30.4278 45.2837 29.4167 45.117C28.4056 44.9503 27.4445 44.6781 26.5334 44.3003C25.6222 43.9225 24.8612 43.4337 24.25 42.8337C23.6389 42.2337 23.3334 41.4892 23.3334 40.6003V32.9003C23.3334 32.2337 23.5889 31.6059 24.1 31.017C24.6112 30.4281 25.2889 29.9115 26.1334 29.467C26.9778 29.0225 27.9112 28.667 28.9334 28.4003C29.9556 28.1337 30.9778 28.0003 32 28.0003ZM32 36.0003C32.7778 36.0003 33.4167 35.7503 33.9167 35.2503C34.4167 34.7503 34.6667 34.1115 34.6667 33.3337C34.6667 32.5559 34.4167 31.917 33.9167 31.417C33.4167 30.917 32.7778 30.667 32 30.667C31.2222 30.667 30.5834 30.917 30.0834 31.417C29.5834 31.917 29.3334 32.5559 29.3334 33.3337C29.3334 34.1115 29.5834 34.7503 30.0834 35.2503C30.5834 35.7503 31.2222 36.0003 32 36.0003Z" fill="#195AFF"/>
</svg>
