<svg width="65" height="64" viewBox="0 0 65 64" fill="none" xmlns="http://www.w3.org/2000/svg">
<rect x="0.666687" width="64" height="64" rx="32" fill="#FAFAFA"/>
<path d="M28 45.3337C27.45 45.3337 26.9792 45.1378 26.5877 44.746C26.1959 44.3545 26 43.8837 26 43.3337V38.667H21.3334C20.7834 38.667 20.3126 38.4711 19.921 38.0793C19.5293 37.6878 19.3334 37.217 19.3334 36.667V33.0003H28.1334L30.5 36.5337C30.5889 36.667 30.7 36.7781 30.8334 36.867C30.9667 36.9559 31.1204 37.0003 31.2944 37.0003C31.5204 37.0003 31.7227 36.9337 31.9014 36.8003C32.08 36.667 32.2018 36.5003 32.2667 36.3003L34.3 30.2337L35.8334 32.5337C35.9445 32.667 36.0667 32.7781 36.2 32.867C36.3334 32.9559 36.4889 33.0003 36.6667 33.0003H46V36.667C46 37.217 45.8042 37.6878 45.4127 38.0793C45.0209 38.4711 44.55 38.667 44 38.667H39.3334V43.3337C39.3334 43.8837 39.1376 44.3545 38.746 44.746C38.3542 45.1378 37.8834 45.3337 37.3334 45.3337H28ZM31.0334 33.767L29.5 31.4337C29.4158 31.3052 29.2979 31.2009 29.1464 31.1207C28.995 31.0405 28.8352 31.0003 28.6667 31.0003H19.3334V27.3337C19.3334 26.7837 19.5293 26.3128 19.921 25.921C20.3126 25.5295 20.7834 25.3337 21.3334 25.3337H26V20.667C26 20.117 26.1959 19.6461 26.5877 19.2543C26.9792 18.8628 27.45 18.667 28 18.667H37.3334C37.8834 18.667 38.3542 18.8628 38.746 19.2543C39.1376 19.6461 39.3334 20.117 39.3334 20.667V25.3337H44C44.55 25.3337 45.0209 25.5295 45.4127 25.921C45.8042 26.3128 46 26.7837 46 27.3337V31.0003H37.2L34.8334 27.467C34.7222 27.3337 34.6 27.2225 34.4667 27.1337C34.3334 27.0448 34.181 27.0003 34.0097 27.0003C33.787 27.0003 33.5858 27.067 33.406 27.2003C33.226 27.3337 33.1018 27.5003 33.0334 27.7003L31.0334 33.767Z" fill="#195AFF"/>
</svg>
