<svg width="80" height="80" viewBox="0 0 80 80" fill="none" xmlns="http://www.w3.org/2000/svg">
<rect width="80" height="80" rx="40" fill="#FAFAFA"/>
<path d="M41.1 39.6003V33.9003C41.1 33.6115 41.0056 33.3725 40.8167 33.1837C40.6278 32.9948 40.3889 32.9003 40.1 32.9003C39.8112 32.9003 39.5722 32.9948 39.3834 33.1837C39.1945 33.3725 39.1 33.6115 39.1 33.9003V40.0003C39.1 40.1337 39.1222 40.2559 39.1667 40.367C39.2112 40.4781 39.2778 40.5892 39.3667 40.7003L44.1667 45.667C44.3667 45.8892 44.6167 45.9948 44.9167 45.9837C45.2167 45.9725 45.4667 45.867 45.6667 45.667C45.8667 45.467 45.9667 45.2225 45.9667 44.9337C45.9667 44.6448 45.8667 44.4003 45.6667 44.2003L41.1 39.6003ZM40 53.3337C38.1778 53.3337 36.4556 52.9837 34.8334 52.2837C33.2112 51.5837 31.7945 50.6281 30.5834 49.417C29.3722 48.2059 28.4167 46.7892 27.7167 45.167C27.0167 43.5448 26.6667 41.8225 26.6667 40.0003C26.6667 38.1781 27.0167 36.4559 27.7167 34.8337C28.4167 33.2115 29.3722 31.7948 30.5834 30.5837C31.7945 29.3725 33.2112 28.417 34.8334 27.717C36.4556 27.017 38.1778 26.667 40 26.667C41.8222 26.667 43.5445 27.017 45.1667 27.717C46.7889 28.417 48.2056 29.3725 49.4167 30.5837C50.6278 31.7948 51.5834 33.2115 52.2834 34.8337C52.9834 36.4559 53.3334 38.1781 53.3334 40.0003C53.3334 41.8225 52.9834 43.5448 52.2834 45.167C51.5834 46.7892 50.6278 48.2059 49.4167 49.417C48.2056 50.6281 46.7889 51.5837 45.1667 52.2837C43.5445 52.9837 41.8222 53.3337 40 53.3337Z" fill="#195AFF"/>
</svg>
