<svg width="76" height="68" viewBox="0 0 76 68" fill="none" xmlns="http://www.w3.org/2000/svg">
<path d="M19.0965 0L27.1917 5.87596C25.8079 7.69471 24.1473 10.4928 22.21 14.2702C20.2727 17.9077 18.6121 21.9649 17.2283 26.4418C15.8445 30.7788 15.2218 34.9759 15.3602 39.0332C16.3289 38.7533 17.0899 38.6134 17.6435 38.6134C18.3354 38.4735 19.0273 38.4036 19.7192 38.4036C23.4554 38.4036 26.7766 39.5228 29.6825 41.7613C32.5885 43.8598 34.0415 47.3574 34.0415 52.2541C34.0415 56.4512 32.6577 60.1586 29.8901 63.3764C27.2609 66.4543 23.663 67.9932 19.0965 67.9932C12.731 68.1331 7.95686 66.1045 4.77412 61.9074C1.59137 57.5704 -1.47995e-08 52.2541 -1.30164e-08 45.9584C-1.17485e-08 41.4815 0.691901 36.7247 2.0757 31.6882C3.4595 26.6517 5.53521 21.4752 8.30281 16.1589C11.2088 10.7026 14.8067 5.31634 19.0965 0ZM60.6105 0L68.7057 5.87596C67.3219 7.69471 65.6614 10.4928 63.7241 14.2702C61.7867 17.9077 60.1262 21.9649 58.7424 26.4418C57.3586 30.7788 56.7359 34.9759 56.8742 39.0332C57.8429 38.7533 58.604 38.6134 59.1575 38.6134C59.8494 38.4735 60.5413 38.4036 61.2332 38.4036C64.9695 38.4036 68.2906 39.5228 71.1966 41.7613C74.1026 43.8598 75.5556 47.3574 75.5556 52.2541C75.5556 56.4512 74.1718 60.1586 71.4042 63.3764C68.7749 66.4543 65.177 67.9932 60.6105 67.9932C54.245 68.1331 49.4709 66.1045 46.2882 61.9074C43.1054 57.5704 41.514 52.2541 41.514 45.9584C41.514 41.4815 42.2059 36.7247 43.5897 31.6882C44.9735 26.6517 47.0492 21.4752 49.8168 16.1589C52.7228 10.7026 56.3207 5.31634 60.6105 0Z" fill="#6AABFF"/>
</svg>
