<svg width="367" height="32" viewBox="0 0 367 32" fill="none" xmlns="http://www.w3.org/2000/svg">
<path d="M4.17341 31.095C6.73687 31.0831 8.38247 30.988 9.14289 30.8185C9.88252 30.6402 10.3251 30.1527 10.4617 29.3531C10.6043 28.5565 10.64 21.2442 10.5835 7.41926L10.4172 1.17412L6.98638 1.19493C5.08235 1.38814 3.63577 2.03911 2.63177 3.13298C1.5149 4.39033 0.573287 5.62093 0.276247 8.48044H0.0475264L0 0.332912L13.4114 0.326967L27.1108 0.264545L27.1494 8.48044H27.0485C26.5405 5.44258 26.2791 5.28801 25.9049 4.44978C24.8919 2.22637 23.0117 1.12656 20.2611 1.13845L16.4204 1.1533L16.352 8.20696L16.3996 18.2539C16.4263 25.5573 16.4709 29.4066 16.5154 29.796C16.5719 30.1913 17.1927 30.4856 18.3927 30.7056C19.5809 30.9166 21.0245 31.0266 22.6849 31.0117L22.9226 31.526L3.93578 31.6092L4.17341 31.095ZM36.05 31.5914L29.9992 31.4784L23.604 31.6092V30.979C26.2298 30.9611 27.6378 30.7086 27.7863 30.2122C27.8487 30.0368 27.8903 29.3501 27.9111 28.1374C27.9259 26.9305 27.9289 25.2541 27.917 23.1169L27.8962 18.1558L27.8843 15.0734L27.8784 14.1014L27.8754 13.3672L27.8724 12.7578L27.8754 12.2971C27.8635 11.2924 27.8101 10.6949 27.7002 10.4987C27.5368 10.0202 26.1466 9.78536 23.5119 9.79725V9.1225L30.1062 9.22653L35.9608 9.06899L35.9669 9.74077C33.7332 9.74969 32.4827 9.98154 32.2094 10.4185C32.0638 10.8168 31.9985 13.8368 32.0252 19.4786L42.1394 19.431L42.1215 17.5346L42.1185 16.0394C42.1066 12.7578 42.0294 10.8822 41.866 10.4155C41.6997 9.9429 40.4432 9.72591 38.0698 9.72888L38.0728 9.06007L43.8175 9.17303L50.5603 9.0036L50.5633 9.67538C47.9523 9.68429 46.5741 9.91614 46.4315 10.362C46.2889 10.8049 46.2236 13.3137 46.2533 17.8824L46.2594 19.9482C46.2831 26.3866 46.3782 29.8109 46.5356 30.2389C46.699 30.658 48.0654 30.8631 50.6496 30.8512L50.6557 31.526L44.1149 31.419L38.1741 31.5497L38.1651 30.9017C40.4256 30.8957 41.6732 30.6758 41.9138 30.224C42.095 29.9119 42.1722 26.666 42.1395 20.507L32.0283 20.5486C32.052 26.6273 32.156 29.8465 32.3016 30.1973C32.3996 30.4469 32.9105 30.6194 33.8432 30.7264C34.1551 30.7501 34.9036 30.8096 36.0502 30.9196L36.05 31.5914ZM55.8474 30.1824C55.9989 29.7128 56.0672 27.3199 56.0464 23.0128L56.0316 18.0161C56.0108 13.3493 55.9216 10.7871 55.7731 10.3293C55.6305 9.87453 54.2226 9.64862 51.57 9.65754L51.561 9.12547C52.8175 9.11655 54.6087 9.10764 56.9315 9.09872C59.2514 9.08981 60.9267 9.07791 61.9871 9.07791L72.3924 9.03332L72.44 17.814H71.8667C71.4925 14.3927 70.7647 12.1633 69.6805 11.1378C68.6052 10.1094 66.5794 9.59512 63.606 9.60998C62.9793 9.61296 62.3555 9.61592 61.7525 9.6189C60.9475 9.66943 60.4842 9.80616 60.3802 10.0559C60.205 10.4185 60.1277 13.5247 60.1485 19.3775L61.503 19.4072C63.3803 19.3983 64.6814 18.9733 65.3824 18.132C66.0804 17.2998 66.4339 15.7065 66.422 13.382H66.9567L67.0161 26.3836H66.4784C66.4755 24.0027 66.1339 22.3321 65.4774 21.372C64.8299 20.403 63.6684 19.9304 62.0436 19.9363L60.1574 19.9423C60.184 26.3093 60.2762 29.7692 60.4307 30.331C60.5258 30.6877 61.8862 30.8631 64.5299 30.8512C67.3814 30.8365 69.3538 30.2865 70.4618 29.1837C71.6677 27.9917 72.5262 25.6583 73.0222 22.1627H73.5599L73.5865 28.1493L73.631 31.5438L61.3395 31.4665L51.662 31.6092V30.9077C54.3026 30.8929 55.6929 30.6521 55.8474 30.1824ZM88.0447 29.6087C88.2556 28.9518 88.3447 25.6048 88.3239 19.5648L88.2853 12.5795C88.2674 6.04005 88.1487 2.45823 87.9318 1.81617C87.7328 1.17412 85.7635 0.864984 82.0505 0.876873L82.0415 0.127812C83.797 0.118896 86.298 0.106998 89.5477 0.0921426C92.8003 0.0743113 95.1558 0.0683782 96.6261 0.0653956L111.211 0L111.27 12.2882L110.465 12.2941C109.94 7.49953 108.924 4.39033 107.418 2.94274C105.897 1.49515 103.054 0.784727 98.8956 0.79959C98.0223 0.805523 97.1638 0.811488 96.3143 0.814438C95.1796 0.882804 94.538 1.09385 94.3806 1.44163C94.134 1.941 94.0301 6.28972 94.0687 14.4789L95.9579 14.5116C98.5956 14.5056 100.399 13.9052 101.385 12.737C102.383 11.5659 102.855 9.33947 102.846 6.08759L103.595 6.08462L103.672 24.288L102.923 24.2941C102.909 20.9589 102.445 18.6166 101.53 17.273C100.607 15.9235 99.0085 15.2577 96.7064 15.2666L94.0657 15.2725C94.1103 24.184 94.235 29.0261 94.4578 29.8109C94.5885 30.3191 96.5074 30.554 100.2 30.5451C104.183 30.5271 106.948 29.7484 108.508 28.2057C110.198 26.5411 111.389 23.2685 112.081 18.3877L112.842 18.3847L112.877 26.7611L112.943 31.52L95.7351 31.4041L82.1841 31.6092L82.1871 30.6193C85.8674 30.6075 87.819 30.2716 88.0447 29.6087ZM132.585 21.9144C132.591 25.0682 131.863 27.5175 130.369 29.2623C128.884 31.0161 126.805 31.89 124.123 31.9108C121.06 31.9169 118.595 30.9031 116.735 28.861C114.882 26.813 113.94 24.0664 113.922 20.6065C113.913 17.0157 114.858 14.0819 116.768 11.7931C118.672 9.50432 121.105 8.35992 124.016 8.351C125.109 8.34209 126.068 8.53232 126.873 8.9128C127.699 9.30219 128.507 9.9383 129.306 10.839L129.621 10.833C129.93 10.3872 130.212 9.94426 130.473 9.49839C130.723 9.0436 130.946 8.55017 131.148 8.01215L131.653 8.01512L131.694 18.6357L131.088 18.6417C130.354 12.1617 128.032 8.93063 124.152 8.95144C122.222 8.96334 120.745 9.89966 119.744 11.7812C118.746 13.6628 118.253 16.4391 118.277 20.119C118.298 27.5472 120.43 31.2539 124.654 31.242C126.867 31.2272 128.635 30.3978 129.986 28.7659C131.329 27.1251 131.994 24.9106 131.982 22.1195V21.9173L132.585 21.9144ZM139.664 11.6624C138.66 13.4845 138.17 16.1478 138.173 19.6523C138.193 23.3352 138.716 26.1888 139.774 28.2279C140.816 30.2611 142.248 31.2777 144.021 31.2717C147.901 31.2509 149.828 27.785 149.808 20.874C149.79 17.0158 149.276 14.0492 148.272 11.9923C147.28 9.9413 145.884 8.91282 144.09 8.92174C142.15 8.92471 140.674 9.84321 139.664 11.6624ZM139.913 31.0369C138.636 30.4543 137.504 29.6309 136.545 28.5727C135.576 27.5205 134.825 26.278 134.275 24.8363C133.735 23.4036 133.462 21.9263 133.456 20.4103C133.453 18.6685 133.756 17.0128 134.376 15.4493C134.991 13.8858 135.865 12.5214 137.002 11.3592C138.978 9.34086 141.366 8.3213 144.164 8.31536C146.386 8.30346 148.429 9.04956 150.265 10.5655C151.611 11.6713 152.65 13.0594 153.42 14.7329C154.171 16.4064 154.548 18.1869 154.551 20.0863C154.578 23.362 153.53 26.1502 151.426 28.4419C149.326 30.7397 146.784 31.893 143.822 31.9108C142.503 31.9108 141.208 31.6254 139.913 31.0369ZM152.16 31.0103C153.986 30.7279 155.189 30.2047 155.763 29.4438C156.277 28.778 156.535 27.5474 156.526 25.7817L156.514 24.667L156.19 11.826C155.763 10.9133 155.243 10.3099 154.613 10.0216C153.983 9.73622 153.012 9.59057 151.696 9.59949L151.69 9.05553L155.338 9.112L158.959 9.1001L171.057 24.8304L171.013 15.5414C171.007 13.2883 170.716 11.7605 170.166 10.9549C169.483 10.0008 168.125 9.52815 166.094 9.53409V8.9931L170.912 9.04661L175.7 9.02284L175.703 9.49249C173.826 9.50141 172.629 9.98295 172.091 10.946C171.717 11.6178 171.541 13.0862 171.547 15.3393L171.577 23.0469C171.586 24.1586 171.628 25.7192 171.702 27.7048C171.776 29.6904 171.821 31.1291 171.824 32H171.149C170.505 30.8645 169.836 29.8271 169.189 28.8938C168.806 28.3201 167.837 27.0181 166.278 24.9998L156.764 12.566L157.049 24.8304C157.073 27.1549 157.405 28.7422 158.059 29.6101C158.727 30.484 160.067 30.9032 162.066 30.8972L162.072 31.5006L157.854 31.4531C157.203 31.456 156.202 31.4887 154.839 31.5512C153.473 31.6106 152.582 31.6374 152.16 31.6404L152.16 31.0103ZM179.549 11.6595C178.548 13.4905 178.052 16.1479 178.064 19.6495C178.088 23.3323 178.605 26.1948 179.656 28.225C180.702 30.2671 182.113 31.2807 183.907 31.2748C187.795 31.251 189.723 27.7881 189.687 20.8682C189.669 17.0099 189.159 14.0553 188.161 11.9954C187.157 9.93247 185.769 8.90994 183.975 8.92183C182.039 8.9248 180.553 9.84626 179.549 11.6595ZM179.799 31.04C178.516 30.4514 177.393 29.631 176.424 28.5728C175.459 27.5116 174.714 26.2751 174.164 24.8364C173.623 23.4007 173.35 21.9264 173.344 20.4074C173.338 18.6715 173.641 17.0129 174.259 15.4494C174.877 13.8888 175.747 12.5185 176.885 11.3533C178.866 9.34094 181.245 8.32436 184.038 8.31247C186.274 8.30654 188.306 9.05559 190.142 10.5656C191.493 11.6684 192.548 13.0595 193.29 14.73C194.054 16.4065 194.425 18.184 194.437 20.0834C194.458 23.365 193.403 26.1473 191.306 28.445C189.215 30.7397 186.675 31.899 183.714 31.9109C182.395 31.9139 181.085 31.6285 179.799 31.04ZM197.244 10.305L197.583 24.5669C197.598 27.0965 197.859 28.7759 198.379 29.5963C199.003 30.5772 200.313 31.0677 202.303 31.0617L202.297 31.5611L199.427 31.5403C198.664 31.5373 197.556 31.5819 196.101 31.6562C194.657 31.7275 193.582 31.7602 192.893 31.7662L192.895 31.2311C194.422 31.2282 195.503 30.9249 196.118 30.3334C196.736 29.7419 197.039 28.7491 197.027 27.3699L197.03 27.2302L196.736 14.3891C196.73 12.6026 196.469 11.378 195.958 10.73C195.441 10.073 194.39 9.7431 192.798 9.75499V9.18427L196.297 9.20211L201.548 9.17834L206.693 25.2059H206.958L211.826 9.13078C212.105 9.13078 212.515 9.13078 213.05 9.12485C213.59 9.12485 213.965 9.12187 214.187 9.12187L217.176 9.10703L220.859 9.0892V9.69558C218.313 9.71043 216.989 9.88879 216.876 10.2366C216.772 10.5814 216.718 11.6515 216.724 13.432L216.73 14.2405L216.787 26.2344C216.778 26.9953 216.796 27.8128 216.799 28.6956C216.799 29.5844 216.84 30.1253 216.923 30.3215C217.113 30.7733 218.45 30.9933 220.951 30.9755V31.5135L214.69 31.4719L208.265 31.4985V31.0288C210.466 31.017 211.767 30.9486 212.129 30.8089C212.491 30.6781 212.679 30.1668 212.673 29.2661L212.604 10.3672L212.07 10.3731L208.859 20.9135C207.332 25.9163 206.34 29.4803 205.888 31.6115L204.715 31.6205L197.827 10.302L197.244 10.305ZM226 30.2152C226.092 29.9418 226.155 28.7974 226.191 26.7731C226.232 24.7578 226.241 21.8804 226.223 18.147C226.193 13.5397 226.107 10.9834 225.935 10.4721C225.763 9.95787 224.376 9.70818 221.765 9.72304L221.759 9.11369C223.006 9.10776 224.577 9.11666 226.467 9.14638C228.35 9.17015 229.3 9.188 229.333 9.18503C229.55 9.18503 230.349 9.16126 231.703 9.12558C233.07 9.08396 234.089 9.06018 234.754 9.06018V9.66656C232.119 9.67846 230.723 9.93111 230.557 10.4335C230.385 10.9447 230.316 14.1193 230.346 19.9751C230.376 26.3183 230.48 29.7277 230.664 30.2093C230.848 30.6908 232.238 30.9167 234.855 30.9108V31.5796L228.353 31.4726L221.857 31.6093L221.85 30.9613C224.476 30.9552 225.855 30.7087 226 30.2152ZM250.673 29.2624C249.176 31.0132 247.1 31.893 244.424 31.9109C241.358 31.9198 238.905 30.9091 237.039 28.8611C235.177 26.816 234.241 24.0606 234.223 20.6095C234.212 17.0099 235.156 14.082 237.063 11.7902C238.97 9.50737 241.391 8.35999 244.32 8.35108C245.416 8.34515 246.366 8.5324 247.186 8.91287C248.009 9.29632 248.808 9.9354 249.616 10.8361H249.928C250.234 10.3902 250.513 9.93837 250.774 9.48953C251.021 9.04069 251.259 8.55321 251.449 8.01222L251.948 8.01815L251.998 18.6358L251.395 18.6417C250.656 12.1617 248.342 8.93357 244.456 8.94843C242.505 8.96033 241.049 9.89962 240.048 11.7753C239.047 13.6628 238.554 16.4361 238.575 20.116C238.602 27.5442 240.743 31.2538 244.944 31.236C247.168 31.2299 248.936 30.4037 250.284 28.7659C251.621 27.1221 252.292 24.9136 252.283 22.1194V21.9203L252.88 21.9143C252.898 25.0711 252.168 27.5146 250.673 29.2624ZM264.771 31.0891C267.343 31.0802 268.998 30.9821 269.752 30.8157C270.492 30.6373 270.946 30.1558 271.074 29.3502C271.219 28.5506 271.255 21.2414 271.193 7.41938L271.023 1.18017L267.601 1.18909C265.697 1.38527 264.248 2.03327 263.247 3.13308C262.133 4.38746 261.346 4.81847 260.891 8.66782H260.66L260.615 0.333019L274.021 0.315188L287.708 0.258711L287.753 8.66782H287.664C287.277 5.47528 286.888 5.2791 286.508 4.44086C285.498 2.22043 283.621 1.12062 280.867 1.13548L277.024 1.15033L276.961 8.20399L277.009 18.2539C277.039 25.5602 277.08 29.4007 277.131 29.79C277.184 30.1854 277.799 30.4856 278.996 30.6966C280.202 30.9136 281.634 31.0207 283.294 31.0058L283.532 31.523L264.554 31.6092L264.771 31.0891ZM288.608 30.2151C288.697 29.9535 288.76 28.8032 288.792 26.7819C288.828 24.7577 288.846 21.8773 288.825 18.1528C288.801 13.5515 288.709 10.9922 288.54 10.4779C288.365 9.96668 286.977 9.72293 284.36 9.72888V9.11952C285.611 9.11952 287.185 9.12844 289.074 9.15222C290.958 9.18195 291.905 9.19086 291.929 9.18789C292.152 9.19086 292.945 9.17006 294.302 9.12844C295.675 9.0898 296.685 9.06304 297.362 9.06304L297.356 9.66943C294.727 9.68726 293.328 9.93992 293.165 10.4393C292.983 10.9446 292.927 14.1311 292.951 19.9809C292.981 26.3242 293.081 29.7336 293.266 30.2151C293.435 30.6907 294.843 30.9255 297.454 30.9166L297.463 31.5884L290.949 31.4814L284.461 31.6092L284.458 30.9701C287.069 30.9582 288.448 30.7085 288.608 30.2151ZM302.656 10.2737L302.983 24.5356C302.998 27.0682 303.256 28.7476 303.773 29.574C304.4 30.5519 305.716 31.0394 307.7 31.0305V31.5358L304.813 31.5092C304.061 31.5153 302.956 31.5537 301.51 31.6281C300.054 31.7053 298.985 31.7351 298.287 31.741V31.203C299.835 31.1969 300.907 30.8998 301.51 30.3053C302.125 29.7108 302.434 28.7269 302.428 27.3418L302.419 27.2021L302.139 14.358C302.134 12.5804 301.866 11.3498 301.355 10.6988C300.838 10.0419 299.79 9.7179 298.198 9.72384L298.204 9.1561L301.7 9.17095L306.94 9.14719L312.088 25.1866L312.364 25.1805L317.217 9.10245C317.506 9.10245 317.912 9.09651 318.45 9.09948C318.988 9.0965 319.377 9.09354 319.594 9.09354L322.57 9.07869L326.256 9.0668L326.25 9.66723C323.716 9.67913 322.379 9.85747 322.279 10.2082C322.163 10.5501 322.115 11.6201 322.121 13.4125L322.134 14.2151L322.176 26.206C322.182 26.961 322.185 27.7844 322.192 28.6762C322.192 29.553 322.245 30.0911 322.337 30.2962C322.515 30.742 323.846 30.962 326.359 30.9471V31.4881L320.098 31.4435L313.664 31.4644L313.67 31.0037C315.868 30.9947 317.16 30.9204 317.531 30.7867C317.902 30.6499 318.075 30.1357 318.069 29.238L317.992 10.348H317.47L314.256 20.8825C312.735 25.8941 311.746 29.461 311.288 31.5834L310.115 31.5895L303.221 10.2709L302.656 10.2737ZM331.361 30.1824C331.509 29.7157 331.581 27.3229 331.563 23.0069L331.54 18.0191C331.527 13.3523 331.439 10.7811 331.291 10.3293C331.139 9.86857 329.743 9.65158 327.082 9.6605V9.12248C328.335 9.11058 330.121 9.10465 332.44 9.09275C334.766 9.08682 336.448 9.0779 337.496 9.06899L347.919 9.03034L347.948 17.808H347.375C347.004 14.3927 346.279 12.1574 345.2 11.1319C344.125 10.1004 342.093 9.59214 339.117 9.607C338.487 9.60997 337.875 9.60997 337.264 9.61294C336.465 9.66347 336.001 9.80912 335.897 10.0588C335.722 10.4155 335.642 13.5247 335.665 19.3715L337.011 19.4013C338.9 19.3953 340.189 18.9673 340.893 18.132C341.6 17.2938 341.942 15.7006 341.939 13.385L342.468 13.3791L342.53 26.3836H341.99C341.977 23.9997 341.651 22.3321 340.991 21.3661C340.344 20.406 339.188 19.9274 337.555 19.9334L335.671 19.9423C335.694 26.3063 335.79 29.7633 335.948 30.3221C336.034 30.6877 337.403 30.8572 340.05 30.8453C342.89 30.8334 344.868 30.2746 345.985 29.1748C347.191 27.9917 348.037 25.6494 348.527 22.1627L349.074 22.1597L349.1 28.1493L349.147 31.5498L336.855 31.4606L327.181 31.6092L327.168 30.9018C329.809 30.8957 331.215 30.6521 331.361 30.1824ZM350.257 31.9108L350.212 21.7598L350.714 21.7568C351.507 24.8809 352.669 27.2559 354.204 28.8997C355.74 30.5256 357.537 31.346 359.593 31.3371C361.001 31.3341 362.123 30.9299 362.964 30.1303C363.79 29.3307 364.191 28.2755 364.188 26.9824C364.182 25.3 363.537 24.0546 362.242 23.255C361.381 22.7229 359.655 22.1403 357.053 21.5161C354.454 20.8889 352.571 20.0833 351.403 19.1024C350.078 17.9907 349.419 16.4391 349.407 14.4713C349.41 12.6581 350.025 11.163 351.284 9.97695C352.535 8.79688 354.154 8.20239 356.126 8.19347C358.425 8.18754 360.463 9.19222 362.248 11.2194C362.741 10.8746 363.125 10.4823 363.419 10.0215C363.704 9.5608 363.935 8.93659 364.114 8.16077L364.452 8.1578L364.485 16.8285L364.025 16.8374C363.511 14.3049 362.554 12.3252 361.131 10.9192C359.709 9.48946 358.001 8.78796 356.049 8.79985C354.596 8.80578 353.444 9.16844 352.6 9.8848C351.76 10.6041 351.335 11.5732 351.338 12.78C351.348 14.1622 351.997 15.2055 353.295 15.8892C354.279 16.4213 356.105 16.9504 358.764 17.4616C361.417 17.9729 363.359 18.7546 364.559 19.801C365.89 20.9394 366.552 22.5772 366.564 24.7263C366.571 26.8041 365.908 28.5133 364.562 29.8568C363.217 31.1885 361.497 31.8573 359.391 31.8751C356.979 31.8812 354.84 30.7099 352.99 28.3498C351.893 29.0007 351.088 30.1897 350.586 31.9108H350.257Z" fill="black"/>
</svg>
