<svg width="80" height="80" viewBox="0 0 80 80" fill="none" xmlns="http://www.w3.org/2000/svg">
<rect width="80" height="80" rx="40" fill="#FAFAFA"/>
<path d="M29.5833 54.9993C29.2222 54.9993 28.9236 54.8813 28.6875 54.6451C28.4514 54.409 28.3333 54.1103 28.3333 53.7493C28.3333 53.3882 28.4514 53.0896 28.6875 52.8534C28.9236 52.6173 29.2222 52.4993 29.5833 52.4993H37V48.1659H36.375C34.125 48.1659 32.2222 47.3882 30.6666 45.8326C29.1111 44.2771 28.3333 42.3743 28.3333 40.1243C28.3333 38.4298 28.8194 36.8882 29.7916 35.4993C30.7639 34.1103 32.0416 33.1382 33.625 32.5826C33.5694 32.9993 33.5764 33.4159 33.6458 33.8326C33.7152 34.2493 33.8472 34.652 34.0416 35.0409C33.0139 35.4298 32.2222 36.0965 31.6666 37.0409C31.1111 37.9853 30.8333 39.0132 30.8333 40.1243C30.8333 41.652 31.375 42.9576 32.4583 44.0409C33.5416 45.1243 34.8472 45.6659 36.375 45.6659H49.5833C49.9444 45.6659 50.2431 45.784 50.4791 46.0201C50.7152 46.2563 50.8333 46.5548 50.8333 46.9159C50.8333 47.2771 50.7152 47.5757 50.4791 47.8118C50.2431 48.0479 49.9444 48.1659 49.5833 48.1659H41.1666V52.4993H50.4166C50.7777 52.4993 51.0764 52.6173 51.3125 52.8534C51.5486 53.0896 51.6666 53.3882 51.6666 53.7493C51.6666 54.1103 51.5486 54.409 51.3125 54.6451C51.0764 54.8813 50.7777 54.9993 50.4166 54.9993H29.5833ZM43.6666 38.4159L43.5833 38.1659L42.9583 38.3743C42.625 38.5132 42.3125 38.5132 42.0208 38.3743C41.7291 38.2354 41.5139 37.9993 41.375 37.6659L40.75 35.9993C41.1389 35.6104 41.4306 35.1728 41.625 34.6868C41.8194 34.2007 41.9166 33.6798 41.9166 33.1243C41.9166 32.0409 41.5556 31.1034 40.8333 30.3118C40.1111 29.5201 39.2083 29.0687 38.125 28.9576L37.6666 27.6659C37.5277 27.3326 37.5277 27.0201 37.6666 26.7284C37.8056 26.4368 38.0416 26.2215 38.375 26.0826L38.9166 25.8743L38.875 25.7076C38.7361 25.3187 38.7431 24.9437 38.8958 24.5826C39.0486 24.2215 39.3194 23.9715 39.7083 23.8326C40.0972 23.6937 40.4722 23.7007 40.8333 23.8534C41.1944 24.0062 41.4444 24.277 41.5833 24.6659L41.6666 24.8743L42.1666 24.7076C42.4722 24.5965 42.7777 24.6104 43.0833 24.7493C43.3889 24.8882 43.6111 25.1104 43.75 25.4159L47.5833 35.3743C47.7222 35.7076 47.7152 36.0271 47.5625 36.3326C47.4097 36.6382 47.1666 36.8604 46.8333 36.9993L46.25 37.2076L46.3333 37.4159C46.4722 37.8048 46.4583 38.1728 46.2916 38.5201C46.125 38.8673 45.8472 39.1103 45.4583 39.2493C45.0972 39.3882 44.7431 39.3743 44.3958 39.2076C44.0486 39.0409 43.8056 38.7771 43.6666 38.4159ZM37.75 35.2076C37.1666 35.2076 36.6736 35.0062 36.2708 34.6034C35.8681 34.2007 35.6666 33.7076 35.6666 33.1243C35.6666 32.5409 35.8681 32.0478 36.2708 31.6451C36.6736 31.2423 37.1666 31.0409 37.75 31.0409C38.3333 31.0409 38.8264 31.2423 39.2291 31.6451C39.6319 32.0478 39.8333 32.5409 39.8333 33.1243C39.8333 33.7076 39.6319 34.2007 39.2291 34.6034C38.8264 35.0062 38.3333 35.2076 37.75 35.2076Z" fill="#195AFF"/>
</svg>
