<svg width="32" height="32" viewBox="0 0 32 32" fill="none" xmlns="http://www.w3.org/2000/svg">
<path d="M14.5333 16.0003L18.1666 19.6337C18.3666 19.8337 18.4666 20.067 18.4666 20.3337C18.4666 20.6003 18.3666 20.8337 18.1666 21.0337C17.9666 21.2337 17.7278 21.3337 17.45 21.3337C17.1722 21.3337 16.9333 21.2337 16.7333 21.0337L12.4 16.7003C12.2 16.5003 12.1 16.267 12.1 16.0003C12.1 15.7337 12.2 15.5003 12.4 15.3003L16.7666 10.9337C16.9666 10.7337 17.2 10.6392 17.4666 10.6503C17.7333 10.6615 17.9666 10.767 18.1666 10.967C18.3666 11.167 18.4666 11.4003 18.4666 11.667C18.4666 11.9337 18.3666 12.167 18.1666 12.367L14.5333 16.0003ZM16 29.3337C17.8444 29.3337 19.5778 28.9837 21.2 28.2837C22.8222 27.5837 24.2333 26.6281 25.4333 25.417C26.6333 24.2059 27.5833 22.7892 28.2833 21.167C28.9833 19.5448 29.3333 17.8225 29.3333 16.0003C29.3333 14.1559 28.9833 12.4225 28.2833 10.8003C27.5833 9.17813 26.6333 7.76699 25.4333 6.56699C24.2333 5.36699 22.8222 4.41699 21.2 3.71699C19.5778 3.01699 17.8444 2.66699 16 2.66699C14.1555 2.66699 12.4278 3.01699 10.8166 3.71699C9.20551 4.41699 7.79445 5.36699 6.58331 6.56699C5.37218 7.76699 4.41665 9.17813 3.71665 10.8003C3.01665 12.4225 2.66665 14.1559 2.66665 16.0003C2.66665 17.8225 3.01665 19.5448 3.71665 21.167C4.41665 22.7892 5.37218 24.2059 6.58331 25.417C7.79445 26.6281 9.20551 27.5837 10.8166 28.2837C12.4278 28.9837 14.1555 29.3337 16 29.3337Z" fill="#195AFF"/>
</svg>
