<svg width="81" height="80" viewBox="0 0 81 80" fill="none" xmlns="http://www.w3.org/2000/svg">
<rect x="0.333374" width="80" height="80" rx="40" fill="#FAFAFA"/>
<path d="M54.3334 54.75V56H26.3334V54.75C26.3334 54.375 26.6459 54 27.0834 54H28.3334V31.5C28.3334 30.6875 28.9584 30 29.8334 30H35.3334V25.5C35.3334 24.6875 35.9584 24 36.8334 24H43.8334C44.6459 24 45.3334 24.6875 45.3334 25.5V30H50.8334C51.6459 30 52.3334 30.6875 52.3334 31.5V54H53.5834C53.9584 54 54.3334 54.375 54.3334 54.75ZM45.5834 36H43.0834C42.6459 36 42.3334 36.375 42.3334 36.75V39.25C42.3334 39.6875 42.6459 40 43.0834 40H45.5834C45.9584 40 46.3334 39.6875 46.3334 39.25V36.75C46.3334 36.375 45.9584 36 45.5834 36ZM35.0834 40H37.5834C37.9584 40 38.3334 39.6875 38.3334 39.25V36.75C38.3334 36.375 37.9584 36 37.5834 36H35.0834C34.6459 36 34.3334 36.375 34.3334 36.75V39.25C34.3334 39.6875 34.6459 40 35.0834 40ZM41.5834 48H39.0834C38.6459 48 38.3334 48.375 38.3334 48.75V54H42.3334V48.75C42.3334 48.375 41.9584 48 41.5834 48ZM45.5834 42H43.0834C42.6459 42 42.3334 42.375 42.3334 42.75V45.25C42.3334 45.6875 42.6459 46 43.0834 46H45.5834C45.9584 46 46.3334 45.6875 46.3334 45.25V42.75C46.3334 42.375 45.9584 42 45.5834 42ZM38.3334 42.75C38.3334 42.375 37.9584 42 37.5834 42H35.0834C34.6459 42 34.3334 42.375 34.3334 42.75V45.25C34.3334 45.6875 34.6459 46 35.0834 46H37.5834C37.9584 46 38.3334 45.6875 38.3334 45.25V42.75ZM37.7084 30H39.3334V31.625C39.3334 31.875 39.4584 32 39.7084 32H40.9584C41.1459 32 41.3334 31.875 41.3334 31.625V30H42.9584C43.1459 30 43.3334 29.875 43.3334 29.625V28.375C43.3334 28.1875 43.1459 28 42.9584 28H41.3334V26.375C41.3334 26.1875 41.1459 26 40.9584 26H39.7084C39.4584 26 39.3334 26.1875 39.3334 26.375V28H37.7084C37.4584 28 37.3334 28.1875 37.3334 28.375V29.625C37.3334 29.875 37.4584 30 37.7084 30Z" fill="#195AFF"/>
</svg>
