<svg width="81" height="80" viewBox="0 0 81 80" fill="none" xmlns="http://www.w3.org/2000/svg">
<rect x="0.666626" width="80" height="80" rx="40" fill="#FAFAFA"/>
<path d="M53.6666 32C55.2916 32 56.6666 33.375 56.6666 35V53C56.6666 54.6875 55.2916 56 53.6666 56H27.6666C25.9791 56 24.6666 54.6875 24.6666 53V35C24.6666 33.375 25.9791 32 27.6666 32H32.6666V29C32.6666 27.375 33.9791 26 35.6666 26H45.6666C47.2916 26 48.6666 27.375 48.6666 29V32H53.6666ZM36.6666 30V32H44.6666V30H36.6666ZM46.6666 45.5V42.5C46.6666 42.25 46.4166 42 46.1666 42H42.6666V38.5C42.6666 38.25 42.4166 38 42.1666 38H39.1666C38.8541 38 38.6666 38.25 38.6666 38.5V42H35.1666C34.8541 42 34.6666 42.25 34.6666 42.5V45.5C34.6666 45.8125 34.8541 46 35.1666 46H38.6666V49.5C38.6666 49.8125 38.8541 50 39.1666 50H42.1666C42.4166 50 42.6666 49.8125 42.6666 49.5V46H46.1666C46.4166 46 46.6666 45.8125 46.6666 45.5Z" fill="#195AFF"/>
</svg>
