<svg width="16" height="16" viewBox="0 0 16 16" fill="none" xmlns="http://www.w3.org/2000/svg">
<g clip-path="url(#clip0_82_1955)">
<path d="M10.0332 3.33366C10.6844 3.4607 11.2828 3.77916 11.752 4.24828C12.2211 4.7174 12.5395 5.31584 12.6666 5.96699M10.0332 0.666992C11.3861 0.817283 12.6476 1.42311 13.6107 2.385C14.5738 3.34689 15.1813 4.60767 15.3332 5.96033M14.6666 11.2803V13.2803C14.6673 13.466 14.6293 13.6498 14.5549 13.8199C14.4805 13.99 14.3714 14.1427 14.2346 14.2682C14.0978 14.3938 13.9363 14.4893 13.7604 14.5488C13.5845 14.6083 13.3982 14.6304 13.2132 14.6137C11.1618 14.3908 9.19125 13.6898 7.45991 12.567C5.84913 11.5434 4.48347 10.1778 3.45991 8.56699C2.33323 6.82779 1.63208 4.84766 1.41325 2.78699C1.39659 2.60264 1.4185 2.41683 1.47758 2.24141C1.53667 2.06598 1.63163 1.90478 1.75643 1.76807C1.88122 1.63136 2.03312 1.52213 2.20244 1.44734C2.37177 1.37255 2.55481 1.33383 2.73991 1.33366H4.73991C5.06345 1.33047 5.37711 1.44504 5.62242 1.65601C5.86774 1.86698 6.02797 2.15996 6.07325 2.48033C6.15766 3.12037 6.31421 3.74881 6.53992 4.35366C6.62961 4.59227 6.64902 4.8516 6.59585 5.10091C6.54268 5.35022 6.41916 5.57907 6.23991 5.76033L5.39325 6.60699C6.34229 8.27602 7.72422 9.65795 9.39325 10.607L10.2399 9.76033C10.4212 9.58108 10.65 9.45756 10.8993 9.40439C11.1486 9.35122 11.408 9.37063 11.6466 9.46032C12.2514 9.68603 12.8799 9.84258 13.5199 9.92699C13.8438 9.97268 14.1395 10.1358 14.3509 10.3853C14.5624 10.6348 14.6747 10.9534 14.6666 11.2803Z" stroke="#195AFF" stroke-width="1.2" stroke-linecap="round" stroke-linejoin="round"/>
</g>
<defs>
<clipPath id="clip0_82_1955">
<rect width="16" height="16" fill="white"/>
</clipPath>
</defs>
</svg>
