<svg width="32" height="32" viewBox="0 0 32 32" fill="none" xmlns="http://www.w3.org/2000/svg">
<path d="M17.4666 16.0003L13.8333 19.6337C13.6333 19.8337 13.5333 20.067 13.5333 20.3337C13.5333 20.6003 13.6333 20.8337 13.8333 21.0337C14.0333 21.2337 14.2722 21.3337 14.55 21.3337C14.8278 21.3337 15.0666 21.2337 15.2666 21.0337L19.6 16.7003C19.8 16.5003 19.9 16.267 19.9 16.0003C19.9 15.7337 19.8 15.5003 19.6 15.3003L15.2333 10.9337C15.0333 10.7337 14.8 10.6392 14.5333 10.6503C14.2666 10.6615 14.0333 10.767 13.8333 10.967C13.6333 11.167 13.5333 11.4003 13.5333 11.667C13.5333 11.9337 13.6333 12.167 13.8333 12.367L17.4666 16.0003ZM16 29.3337C14.1555 29.3337 12.4222 28.9837 10.8 28.2837C9.17776 27.5837 7.76663 26.6281 6.56663 25.417C5.36663 24.2059 4.41663 22.7892 3.71663 21.167C3.01663 19.5448 2.66663 17.8225 2.66663 16.0003C2.66663 14.1559 3.01663 12.4225 3.71663 10.8003C4.41663 9.17813 5.36663 7.76699 6.56663 6.56699C7.76663 5.36699 9.17776 4.41699 10.8 3.71699C12.4222 3.01699 14.1555 2.66699 16 2.66699C17.8444 2.66699 19.5722 3.01699 21.1833 3.71699C22.7944 4.41699 24.2055 5.36699 25.4166 6.56699C26.6278 7.76699 27.5833 9.17813 28.2833 10.8003C28.9833 12.4225 29.3333 14.1559 29.3333 16.0003C29.3333 17.8225 28.9833 19.5448 28.2833 21.167C27.5833 22.7892 26.6278 24.2059 25.4166 25.417C24.2055 26.6281 22.7944 27.5837 21.1833 28.2837C19.5722 28.9837 17.8444 29.3337 16 29.3337Z" fill="#195AFF"/>
</svg>
