<svg width="81" height="80" viewBox="0 0 81 80" fill="none" xmlns="http://www.w3.org/2000/svg">
<rect x="0.333374" width="80" height="80" rx="40" fill="#FAFAFA"/>
<path d="M40.3334 40C35.8959 40 32.3334 36.4375 32.3334 32C32.3334 27.625 35.8959 24 40.3334 24C44.7084 24 48.3334 27.625 48.3334 32C48.3334 36.4375 44.7084 40 40.3334 40ZM32.8334 50.5C32.8334 49.6875 33.4584 49 34.3334 49C35.1459 49 35.8334 49.6875 35.8334 50.5C35.8334 51.375 35.1459 52 34.3334 52C33.4584 52 32.8334 51.375 32.8334 50.5ZM46.3334 42.0625C50.7709 42.3125 54.3334 45.9375 54.3334 50.4375V53.25C54.3334 54.75 53.0209 56 51.5209 56H29.0834C27.5834 56 26.3334 54.75 26.3334 53.25V50.4375C26.3334 46.25 29.3334 42.8125 33.3334 42.1875V47.1875C31.8959 47.625 30.8334 48.9375 30.8334 50.5625C30.8334 52.4375 32.3959 54.0625 34.3334 54.0625C36.2709 54.0625 37.8334 52.4375 37.8334 50.5625C37.8334 48.9375 36.7709 47.625 35.3334 47.1875V42.125C35.7709 42.1875 36.2709 42.25 36.7084 42.4375C37.8334 42.8125 39.0834 43.0625 40.3334 43.0625C41.5834 43.0625 42.7709 42.8125 43.8959 42.4375C44.0209 42.375 44.1459 42.375 44.3334 42.3125V45.125C42.0209 45.625 40.3334 47.625 40.3334 50V52.75C40.3334 53.25 40.7084 53.6875 41.1459 53.75L43.1459 54C43.3959 54.0625 43.6459 53.875 43.7084 53.625L43.8959 52.625C43.9584 52.375 43.7709 52.125 43.5209 52.0625L42.3334 51.8125V50.125C42.3334 45.9375 48.3334 46.125 48.3334 50V51.8125L47.0834 52.0625C46.8334 52.125 46.6459 52.375 46.7084 52.625L46.8959 53.625C46.9584 53.875 47.2084 54.0625 47.4584 54L49.5209 53.625C49.9584 53.5 50.3334 53.125 50.3334 52.625V50C50.3334 47.625 48.5834 45.5625 46.3334 45.125V42.0625Z" fill="#195AFF"/>
</svg>
